<?xml version="1.0" encoding="UTF-8"?>
<svg width="104px" height="25px" viewBox="0 0 104 25" version="1.1" xmlns="http://www.w3.org/2000/svg" xmlns:xlink="http://www.w3.org/1999/xlink">
    <!-- Generator: Sketch 52.5 (67469) - http://www.bohemiancoding.com/sketch -->
    <title>little MO&amp;Co.</title>
    <desc>Created with Sketch.</desc>
    <defs>
        <polygon id="path-1" points="0.0793923569 0.283310096 11.6199085 0.283310096 11.6199085 11.9459459 0.0793923569 11.9459459"></polygon>
        <polygon id="path-3" points="0.334758626 0.184279757 9.61290982 0.184279757 9.61290982 9.48648649 0.334758626 9.48648649"></polygon>
        <polygon id="path-5" points="0.0983706277 0.287542421 2.27640541 0.287542421 2.27640541 2.45945946 0.0983706277 2.45945946"></polygon>
        <polygon id="path-7" points="0 12.896527 101.708838 12.896527 101.708838 0.351175676 0 0.351175676"></polygon>
    </defs>
    <g id="Page-1" stroke="none" stroke-width="1" fill="none" fill-rule="evenodd">
        <g id="我的购物袋" transform="translate(-726.000000, -562.000000)">
            <g id="Group-4-Copy-2" transform="translate(726.000000, 562.000000)">
                <g id="Group-27" transform="translate(1.000000, 6.000000)">
                    <path d="M89.2940486,3.45789459 L87.8268054,4.85627297 C86.8279135,3.80151622 85.7056973,3.27448919 84.4587514,3.27448919 C83.4057514,3.27448919 82.5189405,3.63392162 81.7976162,4.35384054 C81.0773459,5.07340811 80.7168595,5.96127297 80.7168595,7.01532703 C80.7168595,7.75035405 80.8770757,8.40246216 81.1957514,8.97270541 C81.5151297,9.54294865 81.9666162,9.98951622 82.5498595,10.3148676 C83.1341568,10.6395162 83.7824,10.8018405 84.4966973,10.8018405 C85.1045351,10.8018405 85.6607243,10.6880027 86.1649135,10.460327 C86.6684,10.2340568 87.2231838,9.81946216 87.8268054,9.21970541 L89.2476703,10.7034622 C88.4342919,11.4978676 87.6648324,12.0484351 86.9410486,12.3558676 C86.2169135,12.6636514 85.3908865,12.8171919 84.4629676,12.8171919 C82.749427,12.8171919 81.3461297,12.2740027 80.2569405,11.1879757 C79.1659946,10.1015973 78.6196432,8.71024595 78.6196432,7.01146216 C78.6196432,5.91348919 78.8680486,4.93708378 79.3652108,4.0833 C79.8616703,3.22916486 80.5731568,2.54227297 81.4996703,2.02332703 C82.4254811,1.50367838 83.4233189,1.24438108 84.4917784,1.24438108 C85.4010757,1.24438108 86.2759405,1.43621892 87.117427,1.8205973 C87.9585622,2.20392162 88.6844541,2.75027297 89.2940486,3.45789459" id="Fill-1" fill="#231916"></path>
                    <path d="M50.6192946,1.32733514 L54.1482676,1.32733514 L54.1482676,12.6675514 L51.9382676,12.6675514 L51.9382676,4.9979027 C51.9382676,4.7762 51.939673,4.46771351 51.9456459,4.06998378 C51.9519703,3.67330811 51.9540784,3.8914973 51.9540784,3.67647027 L49.5982676,12.6675514 L47.0745108,12.6675514 L44.7352135,3.67647027 C44.7352135,3.8914973 44.737673,3.67330811 44.7443486,4.06998378 C44.7499703,4.46771351 44.7513757,4.7762 44.7513757,4.9979027 L44.7513757,12.6675514 L42.5382135,12.6675514 L42.5382135,1.32733514 L46.1111054,1.32733514 L48.3741595,10.2442811 L50.6192946,1.32733514 Z" id="Fill-3" fill="#231916"></path>
                    <path d="M71.608427,4.51282703 C71.7032919,4.6625027 71.9105892,4.92707027 72.2296162,5.30758378 C72.5489946,5.09115135 72.7780757,4.9088 72.9165081,4.75982703 C73.1821297,4.48190811 73.3149405,4.18185405 73.3149405,3.85755676 C73.3149405,3.6218 73.2358865,3.41063784 73.076373,3.22512432 C72.9165081,3.04066486 72.673373,2.94825946 72.349427,2.94825946 C72.1477514,2.94825946 71.9590757,3.00166486 71.7834,3.11023243 C71.5170757,3.26904324 71.3835622,3.52131351 71.3835622,3.86598919 C71.3835622,4.07082703 71.4587514,4.28725946 71.608427,4.51282703 M70.6415081,10.5873405 C70.9521027,10.9003946 71.3512378,11.0570973 71.8357514,11.0570973 C72.2008054,11.0570973 72.5468865,10.9752324 72.8732919,10.8097459 C73.1993459,10.6449622 73.4639135,10.4612054 73.6669946,10.2584757 L71.5465892,7.67463784 C70.9914541,8.03969189 70.6235892,8.36047568 70.4440486,8.63839459 C70.2652108,8.91490811 70.1759676,9.22058378 70.1759676,9.55507027 C70.1759676,9.92925946 70.3319676,10.2735838 70.6415081,10.5873405 M68.4989676,7.87174595 C68.8380216,7.38336757 69.3906973,6.90166486 70.1619135,6.42488108 L70.3987243,6.27836757 C70.0709135,5.90839459 69.8172378,5.53069189 69.6376973,5.14561081 C69.4585081,4.76088108 69.3678595,4.35998919 69.3678595,3.94363784 C69.3678595,3.11761081 69.6478865,2.47077297 70.2093459,2.00593514 C70.7704541,1.54144865 71.4966973,1.30885405 72.3894811,1.30885405 C73.2039135,1.30885405 73.8778054,1.54671892 74.4094,2.02244865 C74.9413459,2.49923243 75.2076703,3.10742162 75.2076703,3.84842162 C75.2076703,4.51704324 75.0478054,5.06058378 74.7291297,5.47658378 C74.4104541,5.89293514 73.9417514,6.27907027 73.3247784,6.63393514 L74.9543459,8.60958378 C75.1412649,8.34325946 75.2860216,8.0540973 75.3861568,7.74034054 C75.4869946,7.42869189 75.5414541,7.09736757 75.547427,6.74882703 L77.4932108,6.74882703 C77.4570216,7.43782703 77.2911838,8.13525946 76.9932378,8.83936757 C76.8302108,9.23604324 76.5642378,9.67382703 76.196373,10.1516649 L78.2538865,12.6111243 L75.599427,12.6111243 L74.8109946,11.6505297 C74.4273189,12.0064486 74.0699946,12.2699622 73.7379676,12.4389622 C73.1469946,12.7435838 72.465373,12.8964216 71.6927514,12.8964216 C70.5311838,12.8964216 69.6246973,12.5570162 68.9711838,11.8803135 C68.3180216,11.2036108 67.9916162,10.4520703 67.9916162,9.62604324 C67.9916162,8.94371892 68.1602649,8.35836757 68.4989676,7.87174595" id="Fill-5" fill="#231916"></path>
                    <g id="Group-9" transform="translate(55.513514, 0.950581)">
                        <mask id="mask-2" fill="white">
                            <use xlink:href="#path-1"></use>
                        </mask>
                        <g id="Clip-8"></g>
                        <path d="M5.84227027,2.35138378 C4.81386486,2.35349189 3.9512973,2.71327568 3.25140541,3.42792432 C2.55362162,4.14468108 2.20543243,5.05397838 2.20754054,6.15616757 C2.21105405,7.38449189 2.65305405,8.35422162 3.5367027,9.06676216 C4.22254054,9.62365405 5.00921622,9.90122162 5.89532432,9.89911351 C6.89737838,9.89735676 7.75116216,9.53441081 8.45456757,8.80746486 C9.15797297,8.08192432 9.50967568,7.18773514 9.50791892,6.12524865 C9.50440541,5.06908649 9.14672973,4.17524865 8.43594595,3.44408649 C7.72340541,2.71432973 6.85908108,2.34927568 5.84227027,2.35138378 M5.86054054,0.28332973 C7.43072973,0.279464865 8.78308108,0.846194595 9.91618919,1.98141081 C11.0482432,3.11627568 11.6174324,4.5013027 11.6198919,6.13649189 C11.6234054,7.75657297 11.0679189,9.1293027 9.95518919,10.2539784 C8.84210811,11.3776 7.49081081,11.9418703 5.89954054,11.9460865 C4.23272973,11.9485459 2.8477027,11.3747892 1.7412973,10.2241135 C0.636648649,9.07519459 0.0829189189,7.70738378 0.0794054054,6.12208649 C0.0772972973,5.0603027 0.330621622,4.08424865 0.843945946,3.19216757 C1.35516216,2.30008649 2.06067568,1.59387027 2.95837838,1.07070811 C3.85537838,0.547897297 4.82335135,0.285437838 5.86054054,0.28332973" id="Fill-7" fill="#231916" mask="url(#mask-2)"></path>
                    </g>
                    <g id="Group-12" transform="translate(89.594595, 3.410041)">
                        <mask id="mask-4" fill="white">
                            <use xlink:href="#path-3"></use>
                        </mask>
                        <g id="Clip-11"></g>
                        <path d="M4.95152432,2.07174324 C4.20806486,2.0727973 3.58828108,2.33314865 3.09498378,2.85068919 C2.60098378,3.36928378 2.35433514,4.03298649 2.35644324,4.84004054 C2.35855135,5.67028378 2.60344324,6.34171622 3.09498378,6.85539189 C3.58476757,7.36906757 4.2042,7.6245 4.95328108,7.62344595 C5.70482162,7.62133784 6.32706486,7.35993243 6.82387568,6.83887838 C7.31998378,6.31817568 7.56768649,5.6477973 7.56557838,4.82985135 C7.56487568,4.0105 7.29609189,3.35944595 6.81157838,2.8542027 C6.32530811,2.34755405 5.7122,2.07068919 4.95152432,2.07174324 M4.91147027,0.184283784 C5.74628108,0.18322973 6.53155135,0.389121622 7.26657838,0.805472973 C8.00125405,1.22147297 8.57571351,1.78644595 8.9889027,2.50144595 C9.40209189,3.21714865 9.61079459,3.98766216 9.6129027,4.8172027 C9.61430811,5.65166216 9.40771351,6.43412162 8.99417297,7.16001351 C8.58098378,7.88801351 8.01776757,8.4572027 7.30347027,8.86687838 C6.58882162,9.27831081 5.80038919,9.48455405 4.93817297,9.48666216 C3.6704973,9.48841892 2.58657838,9.04044595 1.68711892,8.13922973 C0.787659459,7.23766216 0.33792973,6.1432027 0.334767568,4.85304054 C0.332308108,3.47082432 0.8372,2.31768919 1.84874054,1.39363514 C2.73484865,0.590094595 3.75657838,0.187094595 4.91147027,0.184283784" id="Fill-10" fill="#231916" mask="url(#mask-4)"></path>
                    </g>
                    <g id="Group-15" transform="translate(99.432432, 10.437068)">
                        <mask id="mask-6" fill="white">
                            <use xlink:href="#path-5"></use>
                        </mask>
                        <g id="Clip-14"></g>
                        <path d="M1.18651351,0.287545946 C1.48656757,0.286843243 1.74305405,0.391194595 1.95632432,0.601654054 C2.16924324,0.811762162 2.27640541,1.06719459 2.27640541,1.36724865 C2.27816216,1.66765405 2.1717027,1.92484324 1.95913514,2.13846486 C1.74727027,2.35173514 1.49043243,2.45819459 1.19002703,2.4596 C0.888567568,2.4596 0.631378378,2.35384324 0.419162162,2.14127568 C0.205189189,1.92905946 0.0983783784,1.67292432 0.0983783784,1.37146486 C0.0973243243,1.07105946 0.203783784,0.815978378 0.415297297,0.604464865 C0.628567568,0.393302703 0.884,0.287545946 1.18651351,0.287545946" id="Fill-13" fill="#231916" mask="url(#mask-6)"></path>
                    </g>
                    <path d="M9.61704865,5.51333514 L9.61704865,3.83422703 L10.8748865,3.83422703 L10.8748865,1.3182 L13.2082108,1.3182 L13.2082108,3.83422703 L14.6726432,3.83422703 L14.6726432,5.51333514 L13.2082108,5.51333514 L13.2082108,9.7949027 C13.1959135,10.8039838 13.2907784,10.9195784 13.4337784,11.0169027 C13.6635622,11.1725514 14.5946432,11.1114162 14.6726432,11.1061459 L14.6726432,12.8513081 L13.5560486,12.8931189 C12.4412108,12.9310649 11.7992919,12.5899027 11.391373,12.1654703 C11.1268054,11.8956324 10.8748865,11.3450649 10.8748865,10.4083622 L10.8748865,5.51333514 L9.61704865,5.51333514 Z" id="Fill-16" fill="#231916"></path>
                    <path d="M15.9161459,5.51333514 L15.9161459,3.83422703 L17.1739838,3.83422703 L17.1739838,1.3182 L19.5073081,1.3182 L19.5073081,3.83422703 L20.9720919,3.83422703 L20.9720919,5.51333514 L19.5073081,5.51333514 L19.5073081,9.7949027 C19.4950108,10.8039838 19.5898757,10.9195784 19.7328757,11.0169027 C19.9626595,11.1725514 20.8937405,11.1114162 20.9720919,11.1061459 L20.9720919,12.8513081 L19.8551459,12.8931189 C18.7403081,12.9310649 18.0983892,12.5899027 17.6904703,12.1654703 C17.4259027,11.8956324 17.1739838,11.3450649 17.1739838,10.4083622 L17.1739838,5.51333514 L15.9161459,5.51333514 Z" id="Fill-18" fill="#231916"></path>
                    <path d="M30.6746243,5.97585405 C30.3496243,6.30998919 30.1454892,6.76323243 30.0622189,7.33523243 L34.0194892,7.33523243 C33.977327,6.72528649 33.7735432,6.26255676 33.4077865,5.94704324 C33.0406243,5.63152973 32.5870297,5.47342162 32.0448946,5.47342162 C31.4560297,5.47342162 30.9985703,5.64066486 30.6746243,5.97585405 M34.1104892,3.99107027 C34.7232459,4.26582703 35.2288405,4.69834054 35.6286784,5.29107027 C35.9881108,5.81282703 36.2207054,6.41785405 36.329273,7.10685405 C36.3904081,7.51055676 36.4153541,8.09098919 36.4041108,8.85061081 L30.0053,8.85061081 C30.0418405,9.7310973 30.3475162,10.3494757 30.9244351,10.7043405 C31.2750838,10.9249892 31.6970568,11.0342595 32.1910568,11.0342595 C32.7142189,11.0342595 33.1400568,10.9003946 33.4661108,10.6316108 C33.6445973,10.4872054 33.8016514,10.2851784 33.9397324,10.0265838 L36.2846514,10.0265838 C36.2228135,10.5486919 35.9385703,11.0774757 35.4326243,11.6146919 C34.6459486,12.4695297 33.5441108,12.8964216 32.1278135,12.8964216 C30.9588676,12.8964216 29.9280027,12.5355838 29.0338135,11.8156649 C28.1396243,11.0950432 27.6930568,9.92188108 27.6930568,8.29793514 C27.6930568,6.77658378 28.0964081,5.6100973 28.9034622,4.79777297 C29.7105162,3.9858 30.7575432,3.57998919 32.0448946,3.57998919 C32.8094351,3.57998919 33.4984351,3.71736757 34.1104892,3.99107027" id="Fill-20" fill="#231916"></path>
                    <mask id="mask-8" fill="white">
                        <use xlink:href="#path-7"></use>
                    </mask>
                    <g id="Clip-23"></g>
                    <polygon id="Fill-22" fill="#231916" mask="url(#mask-8)" points="5.1227027 12.896527 7.51364865 12.896527 7.51364865 3.87839189 5.1227027 3.87839189"></polygon>
                    <path d="M6.3161027,0.351316216 C6.66745405,0.350262162 6.96891351,0.473235135 7.21907568,0.719532432 C7.46818378,0.965478378 7.59431892,1.26482973 7.59431892,1.61758649 C7.59607568,1.96928919 7.47099459,2.2703973 7.22258919,2.51985676 C6.97418378,2.77001892 6.67307568,2.8951 6.32102162,2.89615405 C5.96826486,2.89615405 5.66715676,2.77318108 5.41804865,2.52407297 C5.16683243,2.27461351 5.0421027,1.97420811 5.0421027,1.62285676 C5.04104865,1.2701 5.16542703,0.970748649 5.41348108,0.722343243 C5.66258919,0.475343243 5.96299459,0.351316216 6.3161027,0.351316216" id="Fill-24" fill="#231916" mask="url(#mask-8)"></path>
                    <polygon id="Fill-25" fill="#231916" mask="url(#mask-8)" points="0.000351351351 12.896527 2.35721622 12.896527 2.35721622 0.701824324 0.000351351351 0.701824324"></polygon>
                    <polygon id="Fill-26" fill="#231916" mask="url(#mask-8)" points="23.3574865 12.896527 25.7150541 12.896527 25.7150541 0.701824324 23.3574865 0.701824324"></polygon>
                </g>
            </g>
        </g>
    </g>
</svg>