<?xml version="1.0" encoding="UTF-8"?>
<svg height="19px" version="1.1" viewBox="0 0 15 19" width="15px" xmlns="http://www.w3.org/2000/svg"
>
  <!-- Generator: Sketch 51.2 (57519) - http://www.bohemiancoding.com/sketch -->
  <title>icon/address</title>
  <desc>Created with Sketch.</desc>
  <defs></defs>
  <g fill="none" fill-rule="evenodd" id="21-关于我们" stroke="none" stroke-width="1">
    <g id="联系我们" transform="translate(-953.000000, -460.000000)">
      <g id="icon/address" transform="translate(949.000000, 457.000000)">
        <g id="Group-5">
          <g id="Group-4" transform="translate(5.000000, 3.000000)">
            <path
              d="M11.2678,5.1489 C11.2678,7.7169 6.6188,15.0279 6.6188,15.0279 C6.6188,15.0279 1.9698,7.7169 1.9698,5.1489 C1.9698,2.5819 4.0508,0.4999 6.6188,0.4999 C9.1868,0.4999 11.2678,2.5819 11.2678,5.1489 Z M8.6525,5.4399 C8.6525,4.3159 7.7425,3.4059 6.6185,3.4059 C5.4955,3.4059 4.5855,4.3159 4.5855,5.4399 C4.5855,6.5629 5.4955,7.4739 6.6185,7.4739 C7.7425,7.4739 8.6525,6.5629 8.6525,5.4399 Z"
              fill="#000000" id="Stroke-1"></path>
            <path
              d="M11.2697,13.457 C12.1847,13.919 12.7377,14.52 12.7377,15.176 C12.7377,16.638 9.9987,17.822 6.6187,17.822 C3.2397,17.822 0.4997,16.638 0.4997,15.176 C0.4997,14.469 1.1417,13.827 2.1867,13.352"
              id="Stroke-5" stroke="#040000"></path>
          </g>
        </g>
      </g>
    </g>
  </g>
</svg>