<?xml version="1.0" encoding="UTF-8"?>
<svg width="46px" height="47px" viewBox="0 0 46 47" version="1.1" xmlns="http://www.w3.org/2000/svg" xmlns:xlink="http://www.w3.org/1999/xlink">
    <!-- Generator: Sketch 51.2 (57519) - http://www.bohemiancoding.com/sketch -->
    <title>生日礼遇</title>
    <desc>Created with Sketch.</desc>
    <defs></defs>
    <g id="14-会员权益" stroke="none" stroke-width="1" fill="none" fill-rule="evenodd">
        <g id="会员权益" transform="translate(-1305.000000, -445.000000)">
            <g id="生日礼遇" transform="translate(1298.000000, 439.000000)">
                <g>
                    <path d="M24,53 L36,53 L36,18 L24,18 L24,53 Z M26,51.001 L34,51.001 L34,20 L26,20 L26,51.001 Z" id="Fill-1" fill="#000000"></path>
                    <g id="Group-14">
                        <path d="M23.7729,6 L14.2799,6 C15.1759,18.769 28.1029,19.56 31.2919,19.56 C31.7429,19.56 31.9999,19.543 31.9999,19.543 C24.3019,13.575 23.7729,6 23.7729,6 M22.0869,8 C22.5589,10.053 23.7289,13.527 26.5949,17.056 C22.6579,16.196 17.8869,13.917 16.5789,8 L22.0869,8" id="Fill-2" fill="#000000"></path>
                        <path d="M42.9883,9.2788 L35.1013,9.2788 C35.1013,9.2788 36.9883,13.9828 30.0003,18.9748 C30.0003,18.9748 30.3263,18.9998 30.8763,18.9998 C33.7913,18.9998 42.9883,18.2858 42.9883,9.2788 M40.7803,11.2788 C40.3263,13.2888 39.1253,14.7518 37.1453,15.7208 C36.6053,15.9858 36.0413,16.1958 35.4793,16.3628 C36.8053,14.4278 37.2383,12.6498 37.3123,11.2788 L40.7803,11.2788" id="Fill-4" fill="#000000"></path>
                        <polygon id="Fill-6" fill="#000000" points="34 27.2646 34 29.3236 47 29.3236 47 50.9416 13 50.9416 13 29.3236 26 29.3236 26 27.2646 11 27.2646 11 52.9996 49 52.9996 49 27.2646"></polygon>
                        <polygon id="Fill-8" fill="#000000" points="7 18 7 29 25 29 25 27 9 27 9 20 51 20 51 27 34 27 34 29 53 29 53 18"></polygon>
                        <path d="M27,20 L27,51" id="Stroke-10" stroke="#000000" stroke-dasharray="1,1"></path>
                        <path d="M33,20 L33,51" id="Stroke-12" stroke="#000000" stroke-dasharray="1,1"></path>
                    </g>
                </g>
            </g>
        </g>
    </g>
</svg>