<?xml version="1.0" encoding="UTF-8"?>
<svg width="24px" height="24px" viewBox="0 0 24 24" version="1.1" xmlns="http://www.w3.org/2000/svg" xmlns:xlink="http://www.w3.org/1999/xlink">
    <!-- Generator: Sketch 49.2 (51160) - http://www.bohemiancoding.com/sketch -->
    <title>Group 3 Copy 2</title>
    <desc>Created with Sketch.</desc>
    <defs></defs>
    <g id="首页" stroke="none" stroke-width="1" fill="none" fill-rule="evenodd">
        <g id="PC首页" transform="translate(-1283.000000, -5331.000000)">
            <g id="Group-4" transform="translate(0.000000, 5206.000000)">
                <g id="footer" transform="translate(0.000000, 79.000000)">
                    <g id="语言" transform="translate(1283.000000, 46.000000)">
                        <g id="Group-3-Copy-2">
                            <circle id="Oval-5" fill="#D64B24" cx="12" cy="12" r="12"></circle>
                            <g id="Fill-5" transform="translate(2.000000, 4.000000)" fill="#FBDC00">
                                <path d="M4.82828285,1.89837816 L5.99054277,5.46891894 L9.70120992,5.46891894 L6.70600517,7.63833359 L7.8234876,11.2090989 L4.82828285,8.99427949 L1.83294483,11.2090989 L2.99538244,7.63833359 L0,5.46891894 L3.71062273,5.46891894 L4.82828285,1.89837816 Z M14.4847153,0 L14.4399822,1.26558544 L15.5576424,1.71747759 L14.350605,2.03396377 L14.3060052,3.25427915 L13.6353202,2.2146847 L12.4730603,2.48590083 L13.2329448,1.53680157 L12.6070374,0.497162201 L13.7246975,0.994369312 L14.4847153,0 Z M18.6423576,4.02265748 L18.1060052,5.10738726 L18.9554002,5.96612605 L17.7483628,5.78522548 L17.2118326,6.8701349 L17.0329448,5.64963987 L15.8259074,5.46891894 L16.8987901,4.92648669 L16.72008,3.7061713 L17.569475,4.56495501 L18.6423576,4.02265748 Z M17.3905428,8.99427949 L17.7929626,10.1695045 L19,10.1695045 L18.0164502,10.8926127 L18.3740926,12.0678377 L17.3905428,11.3446845 L16.4070374,12.0678377 L16.8094128,10.8926127 L15.8259074,10.1695045 L17.0329448,10.1695045 L17.3905428,8.99427949 Z M14.4847153,12.7909909 L14.3953824,14.0112614 L15.5576424,14.4631984 L14.350605,14.7796846 L14.2612277,16 L13.6353202,14.9603606 L12.4282829,15.2768468 L13.2329448,14.3275679 L12.5624376,13.2881531 L13.7246975,13.7400452 L14.4847153,12.7909909 Z"></path>
                            </g>
                        </g>
                    </g>
                </g>
            </g>
        </g>
    </g>
</svg>