<?xml version="1.0" encoding="UTF-8"?>
<svg width="20px" height="18px" viewBox="0 0 20 18" version="1.1" xmlns="http://www.w3.org/2000/svg" xmlns:xlink="http://www.w3.org/1999/xlink">
    <!-- Generator: Sketch 52.5 (67469) - http://www.bohemiancoding.com/sketch -->
    <title>icon/收藏</title>
    <desc>Created with Sketch.</desc>
    <g id="Page-1" stroke="none" stroke-width="1" fill="none" fill-rule="evenodd">
        <g id="个人中心" transform="translate(-248.000000, -493.000000)" fill="#131313">
            <g id="icon/收藏" transform="translate(246.000000, 490.000000)">
                <g id="Group-6">
                    <path d="M11.9961375,7.11753182 L11.287258,6.40200352 L10.7585698,5.86835492 C9.08441261,4.1836652 6.36187149,4.1766874 4.68222663,5.85180148 L4.6652467,5.86878885 C2.97818429,7.56438843 2.97818429,10.3071125 4.6705292,12.0099906 L11.8543818,19.3395927 C11.932722,19.4191629 12.0607245,19.4203629 12.132458,19.3504359 L12.1418707,19.3410817 L19.3348008,12.0046807 C21.0217966,10.3089595 21.0217966,7.5663058 19.3344135,5.86835989 C17.660446,4.18388466 14.9374921,4.17633952 13.2561781,5.8513128 L13.2346837,5.87271356 L11.9961375,7.11753182 Z M11.9976577,5.69820502 L12.7080573,4.99440652 C14.7887441,3.07943313 18.0312501,3.13835729 20.0437292,5.16346891 C22.1187569,7.2514861 22.1187569,10.624201 20.0437292,12.7099612 L12.8559269,20.0411701 L12.839791,20.0573164 C12.3655741,20.5202914 11.606723,20.5134046 11.1417886,20.0411701 L3.95635758,12.7099612 C1.88121414,10.621944 1.88121414,7.24911336 3.95635758,5.16346891 L3.97489365,5.14492097 C5.98901077,3.13623449 9.21533609,3.08810829 11.2895758,4.9920738 L11.9976577,5.69820502 Z" id="Fill-1" fill-rule="nonzero"></path>
                </g>
            </g>
        </g>
    </g>
</svg>