<?xml version="1.0" encoding="UTF-8"?>
<svg width="18px" height="18px" viewBox="0 0 18 18" version="1.1" xmlns="http://www.w3.org/2000/svg" xmlns:xlink="http://www.w3.org/1999/xlink">
    <!-- Generator: Sketch 49.2 (51160) - http://www.bohemiancoding.com/sketch -->
    <title>收藏</title>
    <desc>Created with Sketch.</desc>
    <defs></defs>
    <g id="首页" stroke="none" stroke-width="1" fill="none" fill-rule="evenodd">
        <g id="PC首页" transform="translate(-1594.000000, -50.000000)" stroke="#131313">
            <g id="head" transform="translate(0.000000, 36.000000)">
                <g id="Group-14" transform="translate(1468.000000, 14.000000)">
                    <g id="Group-13" transform="translate(126.000000, 0.000000)">
                        <g id="爱心" transform="translate(1.000000, 2.000000)">
                            <g id="Fill-1">
                                <path d="M8.79315979,1.65826542 L7.99728799,2.45816758 L7.64284825,2.10040343 L7.20191506,1.65533376 C5.67688791,0.120712322 3.19672459,0.114355727 1.66607787,1.6408744 L1.65140921,1.65555073 C0.116163525,3.19856533 0.116163525,5.69420423 1.65405046,7.24164902 L7.64112044,13.3501864 C7.83523098,13.5473447 8.1521818,13.5503161 8.34615933,13.3609901 L8.35624434,13.3509309 L14.3486435,7.23899409 C15.8838173,5.69588007 15.8838173,3.20031493 14.3484498,1.65533625 C12.8236238,0.120938749 10.343216,0.114065688 8.81162794,1.63987773 L8.79315979,1.65826542 Z"></path>
                            </g>
                        </g>
                    </g>
                </g>
            </g>
        </g>
    </g>
</svg>