<?xml version="1.0" encoding="UTF-8"?>
<svg height="14px" version="1.1" viewBox="0 0 23 14" width="23px" xmlns="http://www.w3.org/2000/svg"
>
  <!-- Generator: Sketch 51.2 (57519) - http://www.bohemiancoding.com/sketch -->
  <title>icon/优惠券</title>
  <desc>Created with Sketch.</desc>
  <defs></defs>
  <g fill="none" fill-rule="evenodd" id="个人中心" stroke="none" stroke-width="1">
    <g id="icon/优惠券" stroke="#000000" transform="translate(-42.000000, -506.000000)">
      <g transform="translate(42.000000, 500.000000)">
        <g id="优惠券">
          <path
            d="M0.5,10.6534998 L0.51513944,10.6591771 C1.1911978,10.9126989 1.72463189,11.446133 1.97815378,12.1221914 C2.46295409,13.4149922 1.80794025,14.8560226 0.51513944,15.3408229 L0.5,15.3465002 L0.5,19 C0.5,19.2761424 0.723857625,19.5 1,19.5 L7.5,19.5 L7.5,6.5 L1,6.5 C0.723857625,6.5 0.5,6.72385763 0.5,7 L0.5,10.6534998 Z"
            id="Rectangle-26"></path>
          <path
            d="M7.5,6.5 L7.5,19.5 L22,19.5 C22.2761424,19.5 22.5,19.2761424 22.5,19 L22.5,15.3138995 C21.9747021,15.0187918 21.5620955,14.5515299 21.3357617,13.9856953 C20.8351252,12.7341043 21.3547397,11.327214 22.5,10.6857698 L22.5,7 C22.5,6.72385763 22.2761424,6.5 22,6.5 L7.5,6.5 Z"
            id="Rectangle-26-Copy"></path>
        </g>
      </g>
    </g>
  </g>
</svg>