<?xml version="1.0" encoding="UTF-8"?>
<svg width="58px" height="50px" viewBox="0 0 58 50" version="1.1" xmlns="http://www.w3.org/2000/svg" xmlns:xlink="http://www.w3.org/1999/xlink">
    <!-- Generator: Sketch 51.2 (57519) - http://www.bohemiancoding.com/sketch -->
    <title>积分奖励</title>
    <desc>Created with Sketch.</desc>
    <defs>
        <polygon id="path-1" points="0.5318 0.2691 46.262 0.2691 46.262 46 0.5318 46"></polygon>
        <polygon id="path-3" points="0.5342 0.466 8.2622 0.466 8.2622 8.1937 0.5342 8.1937"></polygon>
    </defs>
    <g id="14-会员权益" stroke="none" stroke-width="1" fill="none" fill-rule="evenodd">
        <g id="会员权益" transform="translate(-1041.000000, -446.000000)">
            <g id="积分奖励" transform="translate(1039.000000, 439.000000)">
                <g id="-积分奖励">
                    <g id="Group-3" transform="translate(13.000000, 10.534400)">
                        <mask id="mask-2" fill="white">
                            <use xlink:href="#path-1"></use>
                        </mask>
                        <g id="Clip-2"></g>
                        <path d="M0.5548,22.2171 C0.5428,22.5221 0.5318,22.8271 0.5318,23.1341 C0.5318,35.7631 10.7688,46.0001 23.3968,46.0001 C36.0248,46.0001 46.2628,35.7631 46.2628,23.1341 C46.2628,10.5071 36.0248,0.2691 23.3968,0.2691 C17.7218,0.2691 12.5348,2.3411 8.5378,5.7631 L10.4448,6.8061 C14.0068,3.9741 18.5028,2.2691 23.3968,2.2691 C34.9018,2.2691 44.2628,11.6291 44.2628,23.1341 C44.2628,34.6401 34.9018,44.0001 23.3968,44.0001 C11.8918,44.0001 2.5318,34.6401 2.5318,23.1341 C2.5318,22.5651 2.5718,22.0061 2.6168,21.4481" id="Fill-1" fill="#000000" mask="url(#mask-2)"></path>
                    </g>
                    <polygon id="Fill-4" fill="#000000" points="37.4556 44.2652 35.4556 44.2652 35.4556 40.1482 29.3386 40.1482 29.3386 38.3832 35.4556 38.3832 35.4556 36.5012 29.3386 36.5012 29.3386 34.7362 35.4556 34.7362 28.0446 23.4432 30.5156 23.4432 36.6326 33.0892 42.6316 23.4432 44.7486 23.4432 37.4556 34.7362 43.4556 34.7362 43.4556 36.5012 37.4556 36.5012 37.4556 38.3832 43.4556 38.3832 43.4556 40.1482 37.4556 40.1482"></polygon>
                    <polygon id="Stroke-6" stroke="#000000" stroke-width="2" points="18.1637 18.3247 23.2627 21.1137 18.1637 23.9017 15.3757 28.9997 12.5867 23.9017 7.4887 21.1137 12.5867 18.3247 15.3757 13.2257"></polygon>
                    <g id="Group-10" transform="translate(3.000000, 6.534400)">
                        <mask id="mask-4" fill="white">
                            <use xlink:href="#path-3"></use>
                        </mask>
                        <g id="Clip-9"></g>
                        <polygon id="Fill-8" fill="#000000" mask="url(#mask-4)" points="5.7642 2.9637 8.2622 4.3297 5.7642 5.6957 4.3982 8.1937 3.0322 5.6957 0.5342 4.3297 3.0322 2.9637 4.3982 0.4657"></polygon>
                    </g>
                    <polygon id="Stroke-11" stroke="#000000" points="7.8341 28.149 10.6001 29.662 7.8341 31.175 6.3211 33.941 4.8081 31.175 2.0421 29.662 4.8081 28.149 6.3211 25.383"></polygon>
                    <path d="M37.6983,13.8457 L37.6333,14.8437 C37.9503,14.8647 38.2663,14.8927 38.5793,14.9287 L38.6943,13.9357 C38.6043,13.9257 38.5153,13.9157 38.4253,13.9067 C38.4203,13.9057 38.4153,13.9057 38.4103,13.9047 L38.4093,13.9047 C38.4063,13.9047 38.4053,13.9047 38.4023,13.9047 L38.4013,13.9047 C38.3993,13.9037 38.3973,13.9037 38.3953,13.9037 L38.3933,13.9037 C38.3913,13.9027 38.3893,13.9027 38.3873,13.9027 C38.3873,13.9027 38.3863,13.9027 38.3853,13.9027 C38.3833,13.9027 38.3823,13.9027 38.3803,13.9017 L38.3773,13.9017 C38.3753,13.9017 38.3753,13.9017 38.3733,13.9017 C38.3723,13.9017 38.3703,13.9007 38.3693,13.9007 C38.3683,13.9007 38.3673,13.9007 38.3663,13.9007 C38.3653,13.9007 38.3633,13.9007 38.3613,13.8997 L38.3593,13.8997 C38.3573,13.8997 38.3553,13.8997 38.3533,13.8997 L38.3523,13.8987 C38.3493,13.8987 38.3473,13.8987 38.3453,13.8987 L38.3443,13.8987 C38.3423,13.8987 38.3403,13.8977 38.3383,13.8977 L38.3373,13.8977 C38.1253,13.8767 37.9123,13.8597 37.6983,13.8457 Z M40.1763,14.1637 L39.9863,15.1457 C40.2983,15.2067 40.6073,15.2747 40.9133,15.3497 L41.1523,14.3787 C40.8303,14.2997 40.5043,14.2277 40.1763,14.1637 Z M42.5943,14.7927 L42.2813,15.7427 C42.5823,15.8427 42.8803,15.9487 43.1753,16.0627 L43.5353,15.1297 C43.4873,15.1107 43.4383,15.0927 43.3893,15.0747 L43.3893,15.0737 C43.3873,15.0737 43.3853,15.0727 43.3833,15.0717 C43.3823,15.0717 43.3813,15.0707 43.3803,15.0707 C43.3793,15.0697 43.3773,15.0697 43.3763,15.0687 C43.3743,15.0687 43.3743,15.0687 43.3723,15.0677 C43.3713,15.0677 43.3703,15.0667 43.3683,15.0667 C43.3673,15.0657 43.3663,15.0657 43.3653,15.0647 L43.3623,15.0637 C43.3603,15.0627 43.3593,15.0627 43.3573,15.0617 C43.3563,15.0617 43.3553,15.0617 43.3543,15.0607 C43.3533,15.0607 43.3523,15.0597 43.3503,15.0587 C43.3493,15.0587 43.3483,15.0587 43.3473,15.0577 C43.3463,15.0577 43.3443,15.0567 43.3433,15.0567 C43.3423,15.0557 43.3413,15.0557 43.3403,15.0557 C43.3383,15.0547 43.3373,15.0547 43.3353,15.0537 C43.3353,15.0537 43.3343,15.0537 43.3333,15.0527 C43.3313,15.0527 43.3293,15.0517 43.3273,15.0507 C43.3273,15.0507 43.3263,15.0507 43.3263,15.0507 C43.3243,15.0497 43.3233,15.0497 43.3213,15.0487 C43.3203,15.0487 43.3203,15.0477 43.3193,15.0477 C43.3173,15.0467 43.3163,15.0467 43.3133,15.0457 C43.3133,15.0457 43.3123,15.0457 43.3123,15.0447 C43.3093,15.0437 43.3093,15.0437 43.3063,15.0427 C43.3063,15.0427 43.3053,15.0427 43.3053,15.0427 C43.3023,15.0417 43.3013,15.0407 43.2993,15.0397 L43.2983,15.0397 C43.2963,15.0387 43.2943,15.0387 43.2923,15.0377 C43.2913,15.0377 43.2913,15.0367 43.2913,15.0367 C43.2883,15.0357 43.2873,15.0357 43.2843,15.0347 L43.2833,15.0347 C43.2813,15.0337 43.2803,15.0327 43.2783,15.0327 C43.2773,15.0327 43.2773,15.0317 43.2763,15.0317 C43.2743,15.0307 43.2733,15.0307 43.2703,15.0297 C43.2703,15.0297 43.2703,15.0297 43.2693,15.0297 C43.2673,15.0287 43.2653,15.0277 43.2633,15.0267 C43.2633,15.0267 43.2623,15.0267 43.2623,15.0267 C43.2603,15.0257 43.2583,15.0257 43.2563,15.0247 C43.2563,15.0247 43.2553,15.0237 43.2553,15.0237 C43.2533,15.0227 43.2513,15.0227 43.2493,15.0217 C43.2483,15.0217 43.2483,15.0217 43.2473,15.0207 C43.2463,15.0207 43.2433,15.0197 43.2413,15.0187 C43.2413,15.0187 43.2413,15.0187 43.2403,15.0187 C43.2393,15.0177 43.2373,15.0177 43.2353,15.0167 C43.2343,15.0157 43.2343,15.0157 43.2333,15.0157 C43.2313,15.0147 43.2293,15.0147 43.2273,15.0137 C43.2273,15.0137 43.2263,15.0127 43.2263,15.0127 C43.2243,15.0127 43.2223,15.0117 43.2203,15.0117 C43.2193,15.0107 43.2193,15.0107 43.2183,15.0107 C43.2163,15.0097 43.2153,15.0097 43.2133,15.0087 L43.2123,15.0087 C43.2103,15.0077 43.2083,15.0067 43.2063,15.0057 C43.2053,15.0057 43.2053,15.0057 43.2043,15.0057 C43.1923,15.0007 43.1803,14.9967 43.1673,14.9917 C43.1663,14.9917 43.1643,14.9907 43.1623,14.9907 C43.1603,14.9897 43.1583,14.9887 43.1563,14.9877 C43.1553,14.9877 43.1543,14.9867 43.1543,14.9867 C43.1523,14.9867 43.1503,14.9857 43.1483,14.9847 C43.1483,14.9847 43.1473,14.9847 43.1463,14.9847 C43.1453,14.9837 43.1433,14.9827 43.1413,14.9827 C43.1403,14.9817 43.1403,14.9817 43.1393,14.9817 C43.1373,14.9807 43.1353,14.9807 43.1333,14.9797 C43.1313,14.9787 43.1283,14.9777 43.1263,14.9767 L43.1253,14.9767 C43.1233,14.9757 43.1213,14.9747 43.1183,14.9737 C42.9453,14.9117 42.7703,14.8507 42.5943,14.7927 Z M44.9123,15.7227 L44.4833,16.6257 C44.7693,16.7627 45.0513,16.9057 45.3293,17.0557 L45.8043,16.1757 C45.8033,16.1757 45.8023,16.1747 45.8023,16.1747 C45.8013,16.1737 45.7993,16.1727 45.7983,16.1727 C45.7963,16.1717 45.7963,16.1717 45.7943,16.1707 L45.7913,16.1687 C45.7903,16.1677 45.7883,16.1667 45.7863,16.1667 C45.7863,16.1657 45.7853,16.1657 45.7853,16.1657 C45.7833,16.1647 45.7813,16.1637 45.7803,16.1627 C45.7803,16.1627 45.7793,16.1617 45.7783,16.1617 C45.7763,16.1607 45.7753,16.1597 45.7733,16.1587 C45.7723,16.1587 45.7723,16.1587 45.7723,16.1587 C45.7693,16.1577 45.7683,16.1567 45.7663,16.1557 C45.7663,16.1557 45.7653,16.1547 45.7653,16.1547 C45.7633,16.1537 45.7613,16.1527 45.7593,16.1517 C45.7563,16.1497 45.7553,16.1497 45.7533,16.1477 C45.7523,16.1477 45.7523,16.1477 45.7523,16.1477 C45.7473,16.1447 45.7433,16.1427 45.7393,16.1407 C45.6373,16.0867 45.5363,16.0337 45.4333,15.9807 C45.4333,15.9807 45.4333,15.9807 45.4323,15.9797 C45.4303,15.9787 45.4293,15.9777 45.4273,15.9767 C45.4263,15.9767 45.4263,15.9767 45.4263,15.9767 C45.4243,15.9757 45.4223,15.9747 45.4193,15.9737 L45.4193,15.9727 C45.4173,15.9717 45.4153,15.9707 45.4133,15.9707 C45.4123,15.9707 45.4123,15.9697 45.4123,15.9697 C45.4103,15.9687 45.4093,15.9687 45.4063,15.9667 C45.4063,15.9667 45.4063,15.9667 45.4063,15.9667 C45.4033,15.9657 45.4023,15.9647 45.4003,15.9637 C45.3993,15.9637 45.3993,15.9627 45.3993,15.9627 C45.3973,15.9617 45.3953,15.9617 45.3933,15.9597 C45.3933,15.9597 45.3923,15.9597 45.3923,15.9597 C45.3903,15.9577 45.3883,15.9577 45.3863,15.9567 C45.3863,15.9567 45.3853,15.9557 45.3853,15.9557 C45.3843,15.9547 45.3823,15.9537 45.3803,15.9527 C45.3793,15.9527 45.3793,15.9527 45.3783,15.9517 C45.3763,15.9517 45.3753,15.9507 45.3733,15.9497 C45.3723,15.9497 45.3723,15.9497 45.3723,15.9497 C45.3693,15.9477 45.3683,15.9477 45.3663,15.9467 C45.3653,15.9467 45.3653,15.9457 45.3653,15.9457 C45.3633,15.9447 45.3623,15.9437 45.3593,15.9427 C45.3563,15.9417 45.3553,15.9407 45.3533,15.9397 C45.3523,15.9397 45.3523,15.9387 45.3513,15.9387 C45.3503,15.9377 45.3473,15.9367 45.3463,15.9357 C45.3453,15.9357 45.3453,15.9357 45.3453,15.9357 C45.3433,15.9337 45.3423,15.9337 45.3393,15.9327 C45.3393,15.9327 45.3383,15.9317 45.3383,15.9317 C45.3363,15.9307 45.3343,15.9297 45.3323,15.9287 C45.3323,15.9287 45.3323,15.9287 45.3323,15.9287 C45.3293,15.9277 45.3283,15.9267 45.3263,15.9257 C45.3253,15.9257 45.3243,15.9257 45.3233,15.9247 C45.3223,15.9237 45.3213,15.9237 45.3193,15.9227 C45.3193,15.9227 45.3183,15.9217 45.3183,15.9217 C45.3163,15.9207 45.3143,15.9197 45.3123,15.9187 L45.3113,15.9187 C45.2983,15.9117 45.2853,15.9057 45.2723,15.8987 C45.2673,15.8967 45.2633,15.8937 45.2583,15.8917 C45.2543,15.8897 45.2503,15.8877 45.2453,15.8857 L45.2443,15.8857 C45.2423,15.8837 45.2403,15.8827 45.2383,15.8817 C45.2363,15.8807 45.2343,15.8797 45.2323,15.8787 C45.2323,15.8787 45.2313,15.8787 45.2313,15.8787 C45.2293,15.8767 45.2273,15.8767 45.2253,15.8747 L45.2243,15.8747 C45.2223,15.8737 45.2213,15.8727 45.2193,15.8717 C45.2183,15.8717 45.2183,15.8717 45.2173,15.8717 C45.2153,15.8697 45.2143,15.8697 45.2113,15.8687 C45.2113,15.8677 45.2113,15.8677 45.2113,15.8677 C45.1123,15.8197 45.0123,15.7707 44.9123,15.7227 Z M47.0963,16.9377 L46.5563,17.7797 C46.8233,17.9497 47.0853,18.1277 47.3423,18.3117 L47.9243,17.4987 C47.7813,17.3967 47.6383,17.2977 47.4943,17.1997 C47.4923,17.1987 47.4903,17.1977 47.4883,17.1957 C47.4883,17.1957 47.4873,17.1957 47.4873,17.1947 C47.4853,17.1937 47.4833,17.1927 47.4823,17.1917 C47.4813,17.1917 47.4803,17.1907 47.4803,17.1907 C47.4783,17.1897 47.4773,17.1887 47.4763,17.1877 C47.4743,17.1867 47.4743,17.1867 47.4733,17.1857 L47.4693,17.1827 C47.4683,17.1827 47.4683,17.1817 47.4673,17.1807 C47.4663,17.1807 47.4653,17.1797 47.4633,17.1787 C47.4623,17.1787 47.4613,17.1777 47.4603,17.1767 C47.4593,17.1767 47.4583,17.1757 47.4573,17.1747 C47.4563,17.1747 47.4553,17.1737 47.4543,17.1727 C47.4533,17.1717 47.4513,17.1717 47.4503,17.1707 C47.4493,17.1697 47.4483,17.1687 47.4473,17.1687 C47.4473,17.1677 47.4463,17.1667 47.4453,17.1667 C47.4433,17.1657 47.4423,17.1647 47.4413,17.1637 C47.4403,17.1637 47.4403,17.1627 47.4393,17.1627 C47.4373,17.1617 47.4363,17.1607 47.4343,17.1587 C47.3223,17.0837 47.2093,17.0107 47.0963,16.9377 Z M49.1103,18.4157 L48.4693,19.1837 C48.7123,19.3867 48.9503,19.5957 49.1833,19.8097 L49.8623,19.0757 C49.6163,18.8497 49.3653,18.6297 49.1103,18.4157 Z M50.9243,20.1337 L50.1933,20.8157 C50.4093,21.0467 50.6193,21.2837 50.8233,21.5267 L51.5883,20.8817 C51.5423,20.8277 51.4973,20.7747 51.4513,20.7217 C51.4513,20.7207 51.4503,20.7207 51.4503,20.7207 C51.4473,20.7167 51.4453,20.7137 51.4413,20.7097 C51.4413,20.7097 51.4413,20.7097 51.4413,20.7087 C51.4373,20.7057 51.4353,20.7027 51.4323,20.6987 L51.4303,20.6977 C51.4273,20.6937 51.4253,20.6907 51.4223,20.6877 C51.4213,20.6867 51.4213,20.6857 51.4203,20.6857 C51.4183,20.6817 51.4153,20.6797 51.4123,20.6767 C51.4113,20.6747 51.4103,20.6737 51.4093,20.6727 C51.4063,20.6697 51.4053,20.6677 51.4023,20.6647 C51.4013,20.6627 51.3993,20.6607 51.3973,20.6587 C51.3963,20.6577 51.3943,20.6557 51.3923,20.6537 C51.3903,20.6517 51.3893,20.6497 51.3873,20.6477 L51.3813,20.6397 L51.3773,20.6357 C51.3753,20.6337 51.3733,20.6307 51.3713,20.6287 C51.3703,20.6277 51.3683,20.6257 51.3663,20.6237 L51.3613,20.6167 C51.3593,20.6157 51.3583,20.6137 51.3573,20.6127 C51.3553,20.6097 51.3523,20.6077 51.3503,20.6057 C51.3493,20.6037 51.3483,20.6017 51.3463,20.6007 C51.3453,20.5987 51.3423,20.5957 51.3403,20.5937 C51.3393,20.5917 51.3373,20.5907 51.3363,20.5887 C51.3343,20.5867 51.3323,20.5847 51.3303,20.5827 C51.3293,20.5807 51.3273,20.5787 51.3253,20.5767 C51.3233,20.5747 51.3223,20.5727 51.3203,20.5707 C51.3183,20.5687 51.3163,20.5667 51.3143,20.5637 C51.3133,20.5627 51.3113,20.5607 51.3103,20.5587 C51.3083,20.5567 51.3063,20.5547 51.3043,20.5527 C51.3023,20.5507 51.3013,20.5487 51.3003,20.5477 C51.2983,20.5457 51.2963,20.5427 51.2933,20.5407 C51.2923,20.5387 51.2913,20.5377 51.2903,20.5357 C51.2873,20.5337 51.2853,20.5317 51.2833,20.5287 C51.2823,20.5277 51.2813,20.5267 51.2803,20.5247 C51.2783,20.5227 51.2753,20.5197 51.2733,20.5177 C51.2723,20.5157 51.2713,20.5147 51.2693,20.5127 C51.2673,20.5107 51.2653,20.5087 51.2633,20.5057 C51.2613,20.5037 51.2613,20.5027 51.2593,20.5007 C51.2573,20.4987 51.2553,20.4967 51.2523,20.4937 C51.2513,20.4927 51.2493,20.4907 51.2483,20.4897 C51.2463,20.4867 51.2443,20.4847 51.2423,20.4827 C51.2403,20.4807 51.2393,20.4787 51.2383,20.4777 C51.2363,20.4747 51.2343,20.4727 51.2323,20.4707 C51.2303,20.4697 51.2293,20.4677 51.2273,20.4657 C51.2253,20.4637 51.2233,20.4617 51.2213,20.4587 C51.2203,20.4577 51.2183,20.4557 51.2173,20.4537 C51.2153,20.4517 51.2123,20.4497 51.2103,20.4467 C51.2093,20.4457 51.2083,20.4437 51.2063,20.4427 C51.2043,20.4397 51.2023,20.4377 51.2003,20.4347 C51.1983,20.4337 51.1983,20.4317 51.1963,20.4307 C51.1943,20.4287 51.1923,20.4267 51.1903,20.4237 C51.1883,20.4227 51.1873,20.4207 51.1863,20.4197 C51.1843,20.4167 51.1813,20.4147 51.1793,20.4127 C51.1783,20.4107 51.1773,20.4097 51.1763,20.4077 C51.1743,20.4057 51.1713,20.4037 51.1693,20.4007 C51.1683,20.3997 51.1663,20.3977 51.1653,20.3967 C51.1633,20.3937 51.1613,20.3917 51.1593,20.3897 C51.1573,20.3877 51.1563,20.3857 51.1543,20.3837 C51.1523,20.3817 51.1513,20.3807 51.1493,20.3787 C51.1473,20.3757 51.1453,20.3737 51.1433,20.3717 C51.1413,20.3697 51.1403,20.3687 51.1393,20.3667 C51.1363,20.3647 51.1353,20.3627 51.1323,20.3597 C51.1313,20.3587 51.1303,20.3567 51.1293,20.3557 C51.1263,20.3527 51.1243,20.3507 51.1213,20.3477 C51.1203,20.3467 51.1193,20.3457 51.1183,20.3447 C51.1163,20.3427 51.1143,20.3387 51.1113,20.3367 L51.1093,20.3337 C51.1063,20.3307 51.1043,20.3277 51.1013,20.3247 L51.0993,20.3237 C51.0413,20.2597 50.9833,20.1967 50.9243,20.1337 Z M52.5113,22.0637 L51.7003,22.6487 C51.8863,22.9057 52.0643,23.1667 52.2373,23.4327 L53.0753,22.8887 C52.9843,22.7467 52.8893,22.6057 52.7943,22.4657 C52.7883,22.4577 52.7823,22.4497 52.7773,22.4407 C52.7763,22.4387 52.7753,22.4377 52.7733,22.4357 L52.7723,22.4337 C52.7713,22.4317 52.7703,22.4307 52.7683,22.4287 C52.7683,22.4287 52.7683,22.4287 52.7683,22.4277 C52.7673,22.4267 52.7653,22.4247 52.7643,22.4227 C52.7643,22.4227 52.7643,22.4217 52.7633,22.4217 C52.7613,22.4177 52.7583,22.4137 52.7553,22.4097 L52.7553,22.4087 C52.6753,22.2927 52.5943,22.1787 52.5113,22.0637 Z M53.8443,24.1767 L52.9663,24.6557 C53.1173,24.9327 53.2623,25.2147 53.4003,25.5007 L54.3013,25.0657 C54.1563,24.7647 54.0033,24.4687 53.8443,24.1767 Z M54.9013,26.4407 L53.9703,26.8047 C54.0853,27.0987 54.1933,27.3967 54.2943,27.6977 L55.2423,27.3807 C55.2423,27.3797 55.2413,27.3787 55.2413,27.3787 C55.2413,27.3767 55.2403,27.3757 55.2403,27.3747 C55.2403,27.3727 55.2403,27.3727 55.2393,27.3707 C55.2393,27.3697 55.2383,27.3687 55.2383,27.3667 C55.2373,27.3657 55.2373,27.3657 55.2373,27.3637 C55.2363,27.3627 55.2363,27.3617 55.2353,27.3597 C55.2353,27.3587 55.2353,27.3577 55.2343,27.3567 C55.2343,27.3557 55.2333,27.3537 55.2333,27.3527 C55.2323,27.3507 55.2323,27.3507 55.2323,27.3487 L55.2303,27.3447 C55.2303,27.3447 55.2293,27.3427 55.2293,27.3417 C55.2293,27.3407 55.2283,27.3397 55.2283,27.3377 C55.2273,27.3367 55.2273,27.3357 55.2273,27.3347 C55.2263,27.3327 55.2263,27.3317 55.2253,27.3307 C55.2253,27.3297 55.2243,27.3277 55.2243,27.3267 C55.2243,27.3257 55.2233,27.3247 55.2233,27.3237 C55.2223,27.3227 55.2223,27.3217 55.2223,27.3197 C55.2213,27.3187 55.2213,27.3167 55.2203,27.3157 C55.2203,27.3147 55.2193,27.3127 55.2193,27.3127 L55.2183,27.3077 C55.2183,27.3067 55.2173,27.3057 55.2173,27.3057 C55.2163,27.3037 55.2163,27.3017 55.2153,27.3007 C55.2153,27.2997 55.2153,27.2987 55.2143,27.2987 C55.2143,27.2967 55.2133,27.2947 55.2133,27.2937 C55.2123,27.2927 55.2123,27.2917 55.2123,27.2907 C55.2113,27.2887 55.2113,27.2877 55.2103,27.2867 C55.2103,27.2857 55.2103,27.2837 55.2093,27.2837 C55.2093,27.2817 55.2083,27.2807 55.2083,27.2797 C55.2073,27.2787 55.2073,27.2777 55.2073,27.2757 C55.2063,27.2747 55.2063,27.2737 55.2053,27.2717 C55.2053,27.2707 55.2053,27.2697 55.2043,27.2687 C55.2043,27.2677 55.2043,27.2667 55.2033,27.2657 C55.2033,27.2637 55.2023,27.2627 55.2023,27.2617 C55.2013,27.2607 55.2013,27.2607 55.2013,27.2607 C55.2003,27.2577 55.2003,27.2567 55.1993,27.2537 C55.1983,27.2487 55.1963,27.2437 55.1943,27.2397 C55.1943,27.2387 55.1943,27.2387 55.1943,27.2377 C55.1933,27.2357 55.1933,27.2337 55.1923,27.2327 C55.1923,27.2307 55.1913,27.2297 55.1913,27.2287 L55.1893,27.2247 C55.1893,27.2237 55.1893,27.2227 55.1893,27.2227 C55.1883,27.2207 55.1873,27.2197 55.1873,27.2177 C55.1873,27.2167 55.1863,27.2157 55.1863,27.2157 C55.1853,27.2137 55.1853,27.2117 55.1843,27.2097 C55.1843,27.2087 55.1843,27.2087 55.1833,27.2077 C55.1833,27.2057 55.1823,27.2047 55.1823,27.2027 C55.1813,27.2017 55.1813,27.2007 55.1813,27.1997 C55.1803,27.1987 55.1803,27.1967 55.1793,27.1957 C55.1793,27.1947 55.1783,27.1937 55.1783,27.1937 C55.1783,27.1917 55.1773,27.1897 55.1773,27.1877 C55.1773,27.1877 55.1763,27.1867 55.1763,27.1857 C55.1753,27.1837 55.1753,27.1827 55.1743,27.1807 C55.1743,27.1797 55.1743,27.1787 55.1733,27.1787 C55.1733,27.1767 55.1723,27.1757 55.1723,27.1737 C55.1713,27.1727 55.1713,27.1717 55.1713,27.1707 C55.1703,27.1697 55.1703,27.1677 55.1693,27.1657 C55.1693,27.1657 55.1693,27.1647 55.1683,27.1637 C55.1683,27.1627 55.1673,27.1607 55.1663,27.1587 C55.1663,27.1587 55.1663,27.1567 55.1663,27.1567 C55.1653,27.1547 55.1643,27.1537 55.1643,27.1517 C55.1643,27.1507 55.1633,27.1497 55.1633,27.1487 C55.1623,27.1477 55.1623,27.1457 55.1613,27.1447 C55.1613,27.1427 55.1613,27.1427 55.1603,27.1417 C55.1603,27.1397 55.1593,27.1377 55.1593,27.1367 C55.1583,27.1367 55.1583,27.1357 55.1583,27.1347 C55.1573,27.1327 55.1573,27.1317 55.1563,27.1297 C55.1563,27.1287 55.1563,27.1287 55.1563,27.1267 C55.1553,27.1257 55.1543,27.1237 55.1543,27.1217 C55.1543,27.1217 55.1533,27.1207 55.1533,27.1197 C55.1533,27.1177 55.1523,27.1167 55.1513,27.1147 C55.1513,27.1147 55.1513,27.1137 55.1503,27.1127 C55.1503,27.1107 55.1493,27.1087 55.1483,27.1067 C55.1483,27.1067 55.1483,27.1067 55.1483,27.1057 C55.1473,27.1037 55.1473,27.1017 55.1463,27.0997 C55.1463,27.0987 55.1463,27.0987 55.1453,27.0977 C55.1453,27.0957 55.1443,27.0947 55.1433,27.0927 C55.1433,27.0917 55.1433,27.0917 55.1433,27.0917 C55.1423,27.0887 55.1413,27.0867 55.1413,27.0847 C55.1403,27.0847 55.1403,27.0837 55.1403,27.0837 C55.1393,27.0817 55.1383,27.0787 55.1383,27.0767 C55.1373,27.0747 55.1363,27.0717 55.1353,27.0697 C55.1343,27.0667 55.1343,27.0647 55.1333,27.0627 L55.1333,27.0617 C55.1323,27.0597 55.1313,27.0577 55.1303,27.0557 L55.1303,27.0537 C55.0713,26.8877 55.0103,26.7217 54.9463,26.5567 L54.9403,26.5417 C54.9393,26.5367 54.9373,26.5327 54.9353,26.5277 C54.9313,26.5177 54.9273,26.5087 54.9243,26.4987 L54.9243,26.4977 C54.9213,26.4917 54.9183,26.4837 54.9153,26.4767 C54.9133,26.4727 54.9123,26.4687 54.9103,26.4637 C54.9103,26.4637 54.9093,26.4627 54.9093,26.4627 C54.9083,26.4597 54.9083,26.4587 54.9073,26.4557 C54.9073,26.4557 54.9073,26.4557 54.9063,26.4557 C54.9063,26.4527 54.9063,26.4517 54.9053,26.4497 C54.9043,26.4497 54.9043,26.4487 54.9043,26.4487 C54.9033,26.4457 54.9023,26.4437 54.9013,26.4407 Z M55.6633,28.8197 L54.6943,29.0637 C54.7713,29.3697 54.8403,29.6787 54.9023,29.9897 L55.8833,29.7947 C55.8683,29.7207 55.8533,29.6467 55.8373,29.5737 L55.8373,29.5727 C55.8373,29.5687 55.8363,29.5647 55.8353,29.5607 C55.7823,29.3117 55.7253,29.0647 55.6633,28.8197 Z M56.1183,31.2757 L55.1263,31.3957 C55.1633,31.7087 55.1943,32.0237 55.2163,32.3407 L56.2133,32.2717 C56.2023,32.1147 56.1903,31.9587 56.1753,31.8037 L56.1753,31.8027 C56.1753,31.7977 56.1743,31.7927 56.1743,31.7877 L56.1743,31.7867 C56.1733,31.7847 56.1733,31.7827 56.1733,31.7797 C56.1733,31.7797 56.1733,31.7787 56.1733,31.7787 C56.1733,31.7767 56.1723,31.7747 56.1723,31.7727 L56.1723,31.7697 C56.1723,31.7677 56.1723,31.7667 56.1723,31.7647 C56.1713,31.7637 56.1713,31.7627 56.1713,31.7627 C56.1713,31.7607 56.1713,31.7587 56.1713,31.7567 C56.1713,31.7567 56.1713,31.7547 56.1703,31.7537 L56.1703,31.7497 C56.1703,31.7477 56.1703,31.7467 56.1703,31.7447 C56.1703,31.7437 56.1693,31.7427 56.1693,31.7417 C56.1693,31.7397 56.1693,31.7397 56.1693,31.7377 C56.1693,31.7367 56.1693,31.7347 56.1683,31.7337 L56.1683,31.7287 C56.1683,31.7277 56.1683,31.7267 56.1683,31.7267 C56.1683,31.7247 56.1673,31.7227 56.1673,31.7207 L56.1673,31.7187 C56.1673,31.7157 56.1673,31.7147 56.1663,31.7117 L56.1663,31.7107 C56.1663,31.7087 56.1663,31.7067 56.1653,31.7037 L56.1653,31.7027 C56.1523,31.5607 56.1363,31.4177 56.1183,31.2757 Z M55.2623,33.7657 C55.2603,34.0837 55.2513,34.4007 55.2333,34.7157 L56.2323,34.7697 C56.2363,34.6907 56.2403,34.6117 56.2433,34.5317 L56.2433,34.5307 C56.2433,34.5287 56.2443,34.5267 56.2443,34.5237 L56.2443,34.5227 L56.2443,34.5177 C56.2443,34.5167 56.2443,34.5157 56.2443,34.5137 L56.2443,34.5117 L56.2443,34.5067 L56.2443,34.5047 C56.2553,34.2617 56.2603,34.0167 56.2623,33.7707 L55.2623,33.7657 Z M55.1023,36.1337 C55.0603,36.4487 55.0113,36.7617 54.9553,37.0717 L55.9383,37.2517 C55.9693,37.0867 55.9963,36.9227 56.0223,36.7567 C56.0333,36.6847 56.0443,36.6147 56.0543,36.5427 C56.0553,36.5427 56.0543,36.5427 56.0553,36.5417 C56.0553,36.5397 56.0553,36.5377 56.0563,36.5347 C56.0563,36.5347 56.0563,36.5357 56.0563,36.5347 C56.0563,36.5327 56.0563,36.5297 56.0573,36.5277 C56.0573,36.5267 56.0573,36.5257 56.0573,36.5257 C56.0573,36.5237 56.0583,36.5217 56.0583,36.5197 C56.0583,36.5177 56.0583,36.5177 56.0593,36.5157 L56.0593,36.5127 C56.0593,36.5107 56.0593,36.5097 56.0603,36.5077 C56.0603,36.5067 56.0603,36.5057 56.0603,36.5047 C56.0603,36.5027 56.0613,36.5007 56.0613,36.4987 L56.0613,36.4967 C56.0623,36.4947 56.0623,36.4927 56.0623,36.4907 L56.0623,36.4897 C56.0733,36.4137 56.0833,36.3387 56.0933,36.2627 L55.1023,36.1337 Z M54.6463,38.4607 C54.5653,38.7677 54.4773,39.0717 54.3813,39.3727 L55.3343,39.6757 C55.4353,39.3587 55.5283,39.0387 55.6133,38.7157 L54.6463,38.4607 Z M53.8993,40.7117 C53.7803,41.0057 53.6543,41.2957 53.5213,41.5827 L54.4283,42.0037 C54.4883,41.8757 54.5463,41.7457 54.6033,41.6167 L54.6033,41.6157 C54.6043,41.6137 54.6053,41.6117 54.6063,41.6097 L54.6063,41.6087 C54.6073,41.6067 54.6083,41.6047 54.6093,41.6017 C54.6103,41.5997 54.6113,41.5977 54.6123,41.5957 L54.6123,41.5947 C54.6133,41.5927 54.6143,41.5907 54.6153,41.5887 C54.6153,41.5887 54.6153,41.5877 54.6153,41.5877 C54.6163,41.5857 54.6163,41.5837 54.6173,41.5817 C54.6183,41.5817 54.6183,41.5807 54.6183,41.5807 C54.6193,41.5787 54.6203,41.5767 54.6213,41.5747 C54.6213,41.5747 54.6213,41.5747 54.6213,41.5737 C54.6223,41.5717 54.6233,41.5707 54.6243,41.5677 C54.6243,41.5677 54.6243,41.5667 54.6243,41.5657 C54.6253,41.5647 54.6263,41.5627 54.6273,41.5607 C54.6273,41.5607 54.6273,41.5597 54.6283,41.5587 C54.6283,41.5567 54.6293,41.5557 54.6303,41.5537 C54.6303,41.5537 54.6303,41.5527 54.6313,41.5527 C54.6313,41.5507 54.6323,41.5487 54.6333,41.5467 C54.6333,41.5467 54.6333,41.5457 54.6343,41.5457 C54.6343,41.5437 54.6353,41.5417 54.6363,41.5397 C54.6363,41.5387 54.6373,41.5377 54.6373,41.5367 C54.6383,41.5357 54.6383,41.5337 54.6393,41.5327 C54.6393,41.5317 54.6403,41.5297 54.6413,41.5277 C54.6413,41.5267 54.6413,41.5267 54.6423,41.5267 C54.6793,41.4407 54.7163,41.3537 54.7513,41.2677 L54.7523,41.2657 C54.7533,41.2637 54.7543,41.2627 54.7543,41.2607 C54.7553,41.2597 54.7553,41.2587 54.7553,41.2587 C54.7563,41.2567 54.7573,41.2547 54.7583,41.2537 C54.7583,41.2527 54.7583,41.2517 54.7583,41.2517 C54.7593,41.2497 54.7603,41.2477 54.7603,41.2457 C54.7603,41.2457 54.7613,41.2447 54.7613,41.2437 C54.7623,41.2417 54.7623,41.2407 54.7633,41.2397 C54.7643,41.2377 54.7643,41.2377 54.7643,41.2367 C54.7653,41.2347 54.7653,41.2337 54.7663,41.2327 C54.7663,41.2317 54.7673,41.2297 54.7673,41.2287 C54.7683,41.2277 54.7683,41.2267 54.7693,41.2247 L54.7713,41.2207 C54.7713,41.2207 54.7713,41.2197 54.7723,41.2187 C54.7723,41.2177 54.7733,41.2147 54.7743,41.2137 C54.7743,41.2127 54.7743,41.2127 54.7753,41.2117 C54.7763,41.2097 54.7763,41.2087 54.7773,41.2057 C54.7773,41.2057 54.7773,41.2057 54.7773,41.2047 C54.7783,41.2027 54.7793,41.2007 54.7803,41.1987 C54.7803,41.1987 54.7803,41.1987 54.7803,41.1987 C54.7963,41.1607 54.8113,41.1237 54.8253,41.0867 L53.8993,40.7117 Z M52.8733,42.8507 C52.7183,43.1277 52.5563,43.3997 52.3883,43.6677 L53.2363,44.1997 C53.4123,43.9167 53.5823,43.6307 53.7453,43.3387 L52.8733,42.8507 Z M51.5863,44.8447 C51.3983,45.0997 51.2043,45.3497 51.0033,45.5947 L51.7783,46.2277 C51.9893,45.9707 52.1933,45.7067 52.3913,45.4387 L51.5863,44.8447 Z M50.0613,46.6627 C49.8423,46.8927 49.6183,47.1167 49.3893,47.3347 L50.0783,48.0587 C50.0793,48.0587 50.0803,48.0567 50.0813,48.0557 C50.0833,48.0547 50.0853,48.0527 50.0863,48.0517 C50.0883,48.0497 50.0913,48.0477 50.0923,48.0457 C50.0943,48.0437 50.0963,48.0417 50.0983,48.0407 L50.1043,48.0347 C50.1063,48.0337 50.1073,48.0317 50.1093,48.0297 C50.1113,48.0287 50.1133,48.0257 50.1153,48.0237 C50.1163,48.0227 50.1183,48.0207 50.1203,48.0187 C50.1223,48.0167 50.1243,48.0147 50.1263,48.0127 C50.1283,48.0117 50.1303,48.0097 50.1313,48.0087 C50.1343,48.0067 50.1353,48.0047 50.1373,48.0027 C50.1393,48.0007 50.1413,47.9987 50.1433,47.9967 L50.1483,47.9917 C50.1513,47.9897 50.1533,47.9877 50.1553,47.9857 C50.1563,47.9847 50.1583,47.9827 50.1593,47.9817 C50.1613,47.9797 50.1643,47.9767 50.1663,47.9747 C50.1683,47.9727 50.1693,47.9717 50.1713,47.9707 C50.1733,47.9687 50.1753,47.9667 50.1773,47.9647 C50.1783,47.9627 50.1803,47.9617 50.1813,47.9607 C50.1843,47.9577 50.1863,47.9557 50.1893,47.9537 C50.1903,47.9517 50.1913,47.9507 50.1933,47.9497 C50.1953,47.9477 50.1983,47.9447 50.1993,47.9427 C50.2013,47.9417 50.2023,47.9397 50.2033,47.9387 L50.2113,47.9317 C50.2123,47.9307 50.2143,47.9287 50.2163,47.9277 L50.2223,47.9207 C50.2243,47.9197 50.2253,47.9177 50.2263,47.9167 C50.2293,47.9137 50.2313,47.9117 50.2343,47.9097 L50.2383,47.9057 L50.2453,47.8977 C50.2463,47.8977 50.2483,47.8957 50.2493,47.8947 L50.2573,47.8877 C50.2583,47.8857 50.2593,47.8857 50.2603,47.8837 C50.2633,47.8817 50.2653,47.8787 50.2683,47.8757 C50.2693,47.8757 50.2703,47.8737 50.2713,47.8727 C50.2743,47.8707 50.2763,47.8677 50.2793,47.8657 C50.2803,47.8647 50.2813,47.8637 50.2823,47.8627 C50.2853,47.8597 50.2873,47.8567 50.2903,47.8547 C50.2913,47.8537 50.2923,47.8527 50.2933,47.8517 C50.2963,47.8487 50.2993,47.8457 50.3013,47.8437 L50.3043,47.8407 C50.3073,47.8377 50.3103,47.8357 50.3133,47.8327 C50.3133,47.8317 50.3143,47.8307 50.3153,47.8297 C50.3183,47.8277 50.3213,47.8247 50.3233,47.8217 L50.3263,47.8197 L50.3353,47.8107 L50.3373,47.8077 L50.3463,47.7997 L50.3483,47.7967 C50.3523,47.7937 50.3553,47.7907 50.3583,47.7877 C50.3583,47.7877 50.3593,47.7867 50.3603,47.7857 L50.3693,47.7767 L50.3703,47.7757 L50.3803,47.7657 L50.3823,47.7637 C50.3853,47.7617 50.3883,47.7587 50.3913,47.7557 L50.3933,47.7537 C50.3963,47.7497 50.3993,47.7467 50.4023,47.7437 L50.4043,47.7417 C50.4063,47.7397 50.4103,47.7367 50.4133,47.7337 L50.4153,47.7317 C50.4183,47.7287 50.4213,47.7247 50.4243,47.7217 L50.4263,47.7207 L50.4353,47.7107 L50.4363,47.7097 L50.4473,47.6997 L50.4483,47.6987 L50.4583,47.6887 L50.4583,47.6877 C50.4623,47.6837 50.4653,47.6807 50.4693,47.6777 C50.4693,47.6767 50.4693,47.6767 50.4693,47.6767 C50.4733,47.6727 50.4763,47.6697 50.4803,47.6667 C50.4803,47.6657 50.4813,47.6657 50.4813,47.6647 C50.4843,47.6617 50.4883,47.6587 50.4903,47.6557 L50.4923,47.6537 C50.4953,47.6507 50.4983,47.6477 50.5013,47.6447 C50.5023,47.6437 50.5033,47.6427 50.5033,47.6427 C50.5063,47.6397 50.5093,47.6367 50.5123,47.6337 C50.5133,47.6327 50.5133,47.6327 50.5143,47.6317 C50.5173,47.6287 50.5203,47.6257 50.5233,47.6227 C50.5243,47.6217 50.5253,47.6207 50.5253,47.6207 C50.5283,47.6177 50.5313,47.6147 50.5343,47.6117 L50.5363,47.6097 L50.5453,47.5997 L50.5473,47.5987 C50.5503,47.5957 50.5533,47.5927 50.5563,47.5887 C50.5563,47.5887 50.5573,47.5877 50.5573,47.5877 C50.5613,47.5847 50.5643,47.5807 50.5673,47.5777 C50.5683,47.5767 50.5683,47.5767 50.5693,47.5757 L50.5783,47.5667 C50.5783,47.5657 50.5793,47.5647 50.5803,47.5647 C50.5833,47.5617 50.5863,47.5587 50.5893,47.5547 C50.5903,47.5547 50.5903,47.5537 50.5913,47.5537 L50.6003,47.5447 C50.6013,47.5437 50.6013,47.5427 50.6023,47.5417 C50.6053,47.5387 50.6083,47.5367 50.6113,47.5337 C50.6123,47.5327 50.6133,47.5317 50.6133,47.5307 L50.6213,47.5227 C50.6223,47.5217 50.6233,47.5207 50.6243,47.5197 C50.6273,47.5167 50.6293,47.5137 50.6323,47.5117 L50.6353,47.5087 C50.6373,47.5057 50.6403,47.5027 50.6423,47.5007 C50.6443,47.4987 50.6443,47.4987 50.6463,47.4977 C50.6483,47.4947 50.6513,47.4917 50.6533,47.4897 C50.6553,47.4887 50.6563,47.4877 50.6563,47.4857 L50.6643,47.4787 L50.6683,47.4737 C50.6703,47.4717 50.6723,47.4697 50.6743,47.4677 L50.6803,47.4617 C50.6813,47.4607 50.6833,47.4587 50.6853,47.4567 C50.6873,47.4547 50.6893,47.4527 50.6913,47.4507 L50.6953,47.4467 C50.6973,47.4437 50.7003,47.4407 50.7023,47.4387 C50.7033,47.4377 50.7043,47.4367 50.7053,47.4357 L50.7133,47.4277 C50.7143,47.4267 50.7153,47.4257 50.7163,47.4257 C50.7183,47.4227 50.7213,47.4197 50.7243,47.4167 C50.7243,47.4157 50.7243,47.4157 50.7253,47.4147 C50.7453,47.3937 50.7653,47.3737 50.7853,47.3517 L50.0613,46.6627 Z M48.3213,48.2777 C48.0753,48.4777 47.8253,48.6717 47.5713,48.8607 L48.1643,49.6647 C48.3863,49.5007 48.6053,49.3327 48.8203,49.1597 C48.8243,49.1567 48.8283,49.1537 48.8323,49.1507 L48.8333,49.1497 C48.8363,49.1467 48.8403,49.1437 48.8443,49.1407 C48.8443,49.1397 48.8443,49.1397 48.8453,49.1397 C48.8483,49.1367 48.8523,49.1347 48.8553,49.1317 C48.8563,49.1307 48.8573,49.1307 48.8583,49.1297 C48.8613,49.1267 48.8643,49.1247 48.8673,49.1217 C48.8683,49.1207 48.8683,49.1207 48.8693,49.1197 C48.8733,49.1167 48.8763,49.1147 48.8793,49.1127 C48.8803,49.1117 48.8823,49.1097 48.8833,49.1087 L48.8903,49.1027 C48.8923,49.1017 48.8943,49.0997 48.8963,49.0977 C48.8983,49.0967 48.9003,49.0957 48.9023,49.0937 C48.9043,49.0917 48.9063,49.0897 48.9083,49.0877 C48.9103,49.0867 48.9113,49.0857 48.9133,49.0847 C48.9153,49.0827 48.9193,49.0797 48.9213,49.0777 C48.9223,49.0767 48.9233,49.0767 48.9243,49.0757 C48.9273,49.0727 48.9303,49.0707 48.9333,49.0677 C48.9333,49.0677 48.9343,49.0677 48.9343,49.0677 C48.9413,49.0617 48.9473,49.0567 48.9533,49.0517 L48.3213,48.2777 Z M46.3933,49.6617 C46.1253,49.8297 45.8533,49.9917 45.5763,50.1467 L46.0643,51.0187 C46.2663,50.9067 46.4673,50.7897 46.6643,50.6697 C46.6643,50.6697 46.6643,50.6697 46.6643,50.6697 C46.6663,50.6687 46.6683,50.6677 46.6693,50.6667 C46.6703,50.6657 46.6703,50.6657 46.6713,50.6657 C46.6733,50.6647 46.6733,50.6637 46.6753,50.6627 L46.6783,50.6617 C46.6793,50.6607 46.6793,50.6597 46.6813,50.6587 C46.6823,50.6587 46.6833,50.6587 46.6843,50.6577 C46.6853,50.6577 46.6873,50.6557 46.6873,50.6557 C46.6893,50.6547 46.6903,50.6537 46.6913,50.6537 C46.6923,50.6527 46.6933,50.6527 46.6933,50.6517 C46.6953,50.6507 46.6973,50.6497 46.6983,50.6487 C46.6983,50.6487 46.6993,50.6487 46.6993,50.6477 C46.7013,50.6467 46.7033,50.6457 46.7053,50.6447 C46.7053,50.6447 46.7063,50.6447 46.7063,50.6437 C46.7083,50.6427 46.7103,50.6417 46.7113,50.6407 C46.7123,50.6407 46.7123,50.6407 46.7133,50.6397 C46.7153,50.6387 46.7173,50.6377 46.7193,50.6367 C46.7873,50.5947 46.8563,50.5517 46.9253,50.5097 L46.3933,49.6617 Z M44.3083,50.7937 C44.0213,50.9277 43.7313,51.0527 43.4373,51.1717 L43.8113,52.0987 C43.8603,52.0797 43.9083,52.0597 43.9563,52.0397 C43.9593,52.0387 43.9613,52.0377 43.9633,52.0367 C43.9643,52.0367 43.9643,52.0367 43.9653,52.0367 C43.9663,52.0357 43.9683,52.0347 43.9703,52.0337 C43.9703,52.0337 43.9723,52.0337 43.9723,52.0337 C43.9743,52.0327 43.9753,52.0317 43.9773,52.0317 C43.9783,52.0307 43.9793,52.0307 43.9803,52.0307 C43.9813,52.0297 43.9823,52.0287 43.9843,52.0287 C43.9853,52.0277 43.9873,52.0277 43.9883,52.0267 C43.9893,52.0267 43.9903,52.0257 43.9903,52.0257 C43.9913,52.0257 43.9943,52.0247 43.9953,52.0237 C43.9963,52.0237 43.9963,52.0227 43.9973,52.0227 C43.9983,52.0227 44.0013,52.0217 44.0023,52.0207 C44.0033,52.0207 44.0043,52.0197 44.0043,52.0197 C44.0063,52.0187 44.0083,52.0187 44.0103,52.0177 C44.0103,52.0177 44.0103,52.0177 44.0113,52.0167 C44.2043,51.9367 44.3953,51.8537 44.5853,51.7667 C44.5873,51.7667 44.5893,51.7657 44.5913,51.7647 C44.5923,51.7637 44.5923,51.7637 44.5933,51.7637 C44.5943,51.7627 44.5953,51.7627 44.5973,51.7617 C44.5983,51.7617 44.5993,51.7617 44.5993,51.7607 C44.6013,51.7597 44.6023,51.7597 44.6043,51.7587 L44.6073,51.7577 C44.6083,51.7567 44.6103,51.7567 44.6113,51.7557 C44.6123,51.7557 44.6133,51.7547 44.6143,51.7537 L44.6173,51.7527 C44.6183,51.7517 44.6203,51.7517 44.6213,51.7507 C44.6223,51.7507 44.6233,51.7497 44.6243,51.7497 C44.6253,51.7487 44.6273,51.7477 44.6293,51.7467 L44.6303,51.7467 C44.6323,51.7457 44.6353,51.7447 44.6363,51.7437 L44.6373,51.7437 C44.6393,51.7427 44.6413,51.7417 44.6443,51.7407 C44.6723,51.7277 44.7003,51.7147 44.7293,51.7007 L44.3083,50.7937 Z M42.0983,51.6547 C41.7973,51.7497 41.4933,51.8377 41.1863,51.9187 L41.4403,52.8857 C41.5433,52.8587 41.6463,52.8307 41.7483,52.8027 C41.7503,52.8017 41.7523,52.8007 41.7543,52.8007 C41.7553,52.8007 41.7553,52.8007 41.7563,52.7997 L41.7613,52.7987 C41.7623,52.7987 41.7623,52.7977 41.7633,52.7977 C41.7653,52.7977 41.7663,52.7967 41.7683,52.7967 C41.7693,52.7967 41.7703,52.7957 41.7713,52.7957 C41.7733,52.7957 41.7743,52.7947 41.7763,52.7947 C41.7773,52.7937 41.7783,52.7937 41.7783,52.7937 C41.7803,52.7937 41.7813,52.7927 41.7833,52.7927 C41.7843,52.7917 41.7853,52.7917 41.7863,52.7917 L41.7903,52.7897 C41.7913,52.7897 41.7923,52.7897 41.7933,52.7897 L41.7983,52.7877 C41.7993,52.7877 41.8003,52.7877 41.8013,52.7867 C41.8023,52.7867 41.8033,52.7867 41.8053,52.7857 C41.8063,52.7857 41.8073,52.7847 41.8083,52.7847 C41.8103,52.7847 41.8113,52.7847 41.8123,52.7837 L41.8163,52.7827 C41.8183,52.7827 41.8183,52.7827 41.8193,52.7827 C41.8213,52.7817 41.8233,52.7817 41.8243,52.7807 C41.8253,52.7807 41.8253,52.7807 41.8263,52.7797 C41.8283,52.7797 41.8303,52.7787 41.8313,52.7787 C41.8333,52.7787 41.8333,52.7787 41.8343,52.7777 C41.8363,52.7777 41.8373,52.7767 41.8393,52.7767 C41.8403,52.7767 41.8413,52.7757 41.8413,52.7757 C41.8433,52.7757 41.8453,52.7747 41.8463,52.7747 C41.8473,52.7737 41.8483,52.7737 41.8493,52.7737 C41.8503,52.7727 41.8523,52.7727 41.8543,52.7717 C41.8553,52.7717 41.8553,52.7717 41.8563,52.7717 C41.8583,52.7707 41.8603,52.7707 41.8623,52.7697 C41.8623,52.7697 41.8633,52.7697 41.8643,52.7697 C41.8653,52.7687 41.8673,52.7677 41.8693,52.7677 C41.8703,52.7677 41.8703,52.7677 41.8713,52.7667 L41.8773,52.7657 C41.8773,52.7657 41.8783,52.7647 41.8793,52.7647 C41.8813,52.7647 41.8833,52.7637 41.8853,52.7627 C41.8873,52.7627 41.8903,52.7617 41.8923,52.7617 C41.8923,52.7617 41.8933,52.7607 41.8933,52.7607 C41.8953,52.7607 41.8983,52.7597 41.9003,52.7587 L41.9013,52.7587 C41.9033,52.7587 41.9053,52.7577 41.9073,52.7567 L41.9083,52.7567 C41.9103,52.7557 41.9133,52.7557 41.9153,52.7547 C41.9183,52.7537 41.9203,52.7527 41.9223,52.7527 L41.9233,52.7517 C41.9833,52.7347 42.0433,52.7177 42.1023,52.6997 L42.1033,52.6997 L42.1173,52.6947 L42.1183,52.6947 C42.1223,52.6937 42.1273,52.6917 42.1323,52.6907 C42.1333,52.6897 42.1333,52.6907 42.1333,52.6897 C42.1353,52.6897 42.1373,52.6887 42.1393,52.6877 L42.1403,52.6877 C42.1433,52.6867 42.1453,52.6867 42.1473,52.6857 C42.1483,52.6857 42.1483,52.6857 42.1483,52.6857 C42.1503,52.6847 42.1533,52.6837 42.1553,52.6837 L42.1563,52.6827 C42.1573,52.6827 42.1593,52.6817 42.1613,52.6807 L42.1633,52.6807 C42.1653,52.6797 42.1673,52.6797 42.1693,52.6787 L42.1703,52.6787 C42.1733,52.6787 42.1753,52.6777 42.1773,52.6767 C42.1803,52.6757 42.1823,52.6757 42.1843,52.6747 L42.1853,52.6747 C42.1873,52.6737 42.1893,52.6727 42.1923,52.6727 L42.1933,52.6717 C42.1953,52.6717 42.1973,52.6707 42.1993,52.6697 L42.2003,52.6697 C42.2023,52.6687 42.2043,52.6687 42.2073,52.6677 C42.2103,52.6667 42.2123,52.6657 42.2143,52.6647 C42.2153,52.6647 42.2143,52.6657 42.2153,52.6647 C42.2173,52.6647 42.2193,52.6637 42.2213,52.6627 C42.2223,52.6627 42.2223,52.6627 42.2223,52.6627 C42.2253,52.6617 42.2273,52.6617 42.2293,52.6607 L42.2303,52.6607 C42.2323,52.6597 42.2353,52.6587 42.2373,52.6587 L42.2523,52.6537 C42.3023,52.6377 42.3513,52.6227 42.4013,52.6067 L42.0983,51.6547 Z M39.7973,52.2277 C39.4873,52.2837 39.1743,52.3327 38.8593,52.3747 L38.9893,53.3657 C39.0393,53.3597 39.0903,53.3527 39.1403,53.3457 C39.1433,53.3457 39.1453,53.3447 39.1483,53.3447 C39.1503,53.3447 39.1533,53.3437 39.1553,53.3437 L39.1563,53.3437 C39.1583,53.3427 39.1613,53.3427 39.1623,53.3427 C39.1633,53.3427 39.1643,53.3427 39.1653,53.3417 C39.1663,53.3417 39.1683,53.3417 39.1703,53.3417 C39.1713,53.3417 39.1723,53.3407 39.1733,53.3407 C39.1743,53.3407 39.1763,53.3407 39.1773,53.3407 C39.1783,53.3397 39.1793,53.3397 39.1803,53.3397 C39.1823,53.3397 39.1833,53.3397 39.1843,53.3397 C39.1863,53.3387 39.1873,53.3387 39.1893,53.3387 L39.1923,53.3387 C39.1943,53.3377 39.1953,53.3377 39.1973,53.3377 C39.1983,53.3377 39.1983,53.3377 39.1993,53.3367 C39.2013,53.3367 39.2033,53.3367 39.2053,53.3367 C39.2063,53.3357 39.2063,53.3367 39.2073,53.3357 C39.2093,53.3357 39.2113,53.3357 39.2133,53.3347 L39.2143,53.3347 C39.2173,53.3347 39.2193,53.3347 39.2213,53.3337 L39.2223,53.3337 C39.2243,53.3337 39.2273,53.3327 39.2293,53.3327 C39.2323,53.3327 39.2343,53.3317 39.2373,53.3317 L39.2383,53.3317 C39.2403,53.3317 39.2423,53.3307 39.2443,53.3307 L39.2453,53.3307 C39.4073,53.3067 39.5693,53.2817 39.7303,53.2547 L39.7313,53.2547 C39.7333,53.2537 39.7363,53.2537 39.7383,53.2537 C39.7383,53.2527 39.7383,53.2527 39.7393,53.2527 C39.7413,53.2527 39.7433,53.2527 39.7453,53.2517 C39.7453,53.2517 39.7463,53.2517 39.7473,53.2517 C39.7483,53.2517 39.7503,53.2507 39.7523,53.2507 L39.7543,53.2507 C39.7563,53.2497 39.7583,53.2497 39.7603,53.2497 C39.7603,53.2497 39.7613,53.2487 39.7623,53.2487 C39.7643,53.2487 39.7653,53.2487 39.7673,53.2477 C39.7683,53.2477 39.7693,53.2477 39.7703,53.2477 C39.7713,53.2477 39.7733,53.2467 39.7753,53.2467 C39.7763,53.2467 39.7773,53.2467 39.7783,53.2457 C39.7793,53.2457 39.7813,53.2457 39.7823,53.2457 C39.7823,53.2457 39.7853,53.2447 39.7853,53.2447 C39.7863,53.2447 39.7883,53.2447 39.7893,53.2447 C39.7913,53.2437 39.7923,53.2437 39.7943,53.2437 C39.7943,53.2437 39.7953,53.2427 39.7953,53.2427 C39.7973,53.2427 39.7993,53.2427 39.8013,53.2417 L39.8033,53.2417 L39.8093,53.2407 L39.8103,53.2407 C39.8133,53.2407 39.8143,53.2407 39.8173,53.2397 C39.8173,53.2397 39.8173,53.2397 39.8183,53.2397 C39.8703,53.2307 39.9243,53.2207 39.9763,53.2107 L39.7973,52.2277 Z M37.4413,52.5057 C37.1263,52.5227 36.8093,52.5327 36.4913,52.5337 L36.4963,53.5337 C36.5493,53.5337 36.6003,53.5337 36.6533,53.5327 C36.6553,53.5327 36.6573,53.5327 36.6593,53.5327 L36.6603,53.5327 L36.6673,53.5327 L36.6683,53.5327 C36.8153,53.5307 36.9603,53.5267 37.1063,53.5217 L37.1133,53.5217 L37.1153,53.5217 C37.1163,53.5217 37.1183,53.5217 37.1193,53.5207 L37.1233,53.5207 L37.1273,53.5207 L37.1303,53.5207 C37.1323,53.5207 37.1343,53.5207 37.1353,53.5207 L37.1383,53.5207 L37.1423,53.5207 C37.1443,53.5207 37.1453,53.5207 37.1463,53.5197 L37.1503,53.5197 L37.1553,53.5197 L37.1573,53.5197 C37.1593,53.5197 37.1613,53.5197 37.1623,53.5197 L37.1653,53.5197 L37.1713,53.5197 C37.1713,53.5187 37.1723,53.5187 37.1733,53.5187 L37.1793,53.5187 L37.1803,53.5187 C37.1833,53.5187 37.1853,53.5187 37.1873,53.5187 L37.1953,53.5187 L37.1963,53.5187 C37.2953,53.5137 37.3963,53.5097 37.4953,53.5047 L37.4413,52.5057 Z M34.1213,52.3977 L34.0013,53.3907 C34.1113,53.4037 34.2193,53.4157 34.3293,53.4277 C34.3323,53.4277 34.3343,53.4277 34.3373,53.4287 L34.3383,53.4287 C34.3403,53.4287 34.3423,53.4287 34.3443,53.4287 L34.3453,53.4287 C34.3483,53.4287 34.3493,53.4297 34.3523,53.4297 L34.3543,53.4297 C34.3563,53.4297 34.3573,53.4297 34.3603,53.4307 L34.3623,53.4307 C34.3633,53.4307 34.3663,53.4307 34.3673,53.4307 C34.3683,53.4307 34.3693,53.4317 34.3703,53.4317 C34.3723,53.4317 34.3733,53.4317 34.3753,53.4317 L34.3773,53.4317 C34.3793,53.4327 34.3823,53.4327 34.3833,53.4327 L34.3853,53.4327 C34.3863,53.4327 34.3893,53.4337 34.3913,53.4337 C34.3923,53.4337 34.3923,53.4337 34.3933,53.4337 C34.3943,53.4337 34.3973,53.4347 34.3993,53.4347 L34.4013,53.4347 C34.4023,53.4347 34.4053,53.4347 34.4063,53.4347 C34.4073,53.4357 34.4083,53.4357 34.4093,53.4357 C34.4103,53.4357 34.4123,53.4357 34.4143,53.4357 C34.4153,53.4357 34.4163,53.4357 34.4173,53.4367 L34.4223,53.4367 C34.4233,53.4367 34.4243,53.4367 34.4253,53.4367 C34.4263,53.4367 34.4283,53.4377 34.4293,53.4377 C34.4303,53.4377 34.4313,53.4377 34.4333,53.4377 C34.4343,53.4377 34.4363,53.4377 34.4373,53.4387 L34.4413,53.4387 C34.4423,53.4387 34.4443,53.4387 34.4453,53.4387 C34.4463,53.4387 34.4473,53.4397 34.4483,53.4397 C34.4493,53.4397 34.4513,53.4397 34.4533,53.4397 L34.4563,53.4397 C34.4573,53.4407 34.4593,53.4407 34.4603,53.4407 C34.4623,53.4407 34.4633,53.4407 34.4643,53.4407 C34.4653,53.4407 34.4673,53.4417 34.4693,53.4417 C34.4693,53.4417 34.4703,53.4417 34.4713,53.4417 L34.4763,53.4417 C34.4773,53.4427 34.4783,53.4427 34.4803,53.4427 C34.4813,53.4427 34.4823,53.4427 34.4843,53.4427 C34.4853,53.4427 34.4863,53.4427 34.4883,53.4437 L34.4913,53.4437 C34.4923,53.4437 34.4943,53.4437 34.4953,53.4437 C34.4963,53.4437 34.4983,53.4447 34.4993,53.4447 C34.5013,53.4447 34.5023,53.4447 34.5033,53.4447 L34.5073,53.4447 C34.5083,53.4457 34.5103,53.4457 34.5113,53.4457 C34.5123,53.4457 34.5133,53.4457 34.5153,53.4457 C34.5163,53.4457 34.5173,53.4457 34.5193,53.4467 L34.5223,53.4467 C34.5243,53.4467 34.5253,53.4467 34.5273,53.4467 C34.5283,53.4477 34.5293,53.4477 34.5313,53.4477 C34.5313,53.4477 34.5333,53.4477 34.5343,53.4477 L34.5383,53.4477 C34.5393,53.4487 34.5413,53.4487 34.5423,53.4487 C34.5433,53.4487 34.5453,53.4487 34.5453,53.4487 C34.5473,53.4487 34.5493,53.4487 34.5513,53.4497 L34.5533,53.4497 C34.5553,53.4497 34.5563,53.4497 34.5583,53.4497 C34.5593,53.4497 34.5603,53.4497 34.5613,53.4497 C34.5633,53.4497 34.5643,53.4497 34.5663,53.4507 L34.5693,53.4507 C34.5713,53.4507 34.5723,53.4507 34.5743,53.4507 C34.5743,53.4507 34.5763,53.4517 34.5763,53.4517 C34.5783,53.4517 34.5803,53.4517 34.5823,53.4517 L34.5843,53.4517 C34.5863,53.4517 34.5883,53.4527 34.5903,53.4527 C34.5903,53.4527 34.5913,53.4527 34.5923,53.4527 C34.5943,53.4527 34.5953,53.4527 34.5973,53.4537 L34.6003,53.4537 C34.6023,53.4537 34.6033,53.4537 34.6053,53.4537 L34.6073,53.4537 C34.6093,53.4547 34.6113,53.4547 34.6133,53.4547 C34.6143,53.4547 34.6143,53.4547 34.6153,53.4547 C34.6173,53.4547 34.6193,53.4557 34.6213,53.4557 L34.6223,53.4557 C34.6253,53.4557 34.6273,53.4557 34.6293,53.4557 C34.6303,53.4557 34.6303,53.4557 34.6303,53.4567 C34.6333,53.4567 34.6353,53.4567 34.6363,53.4567 L34.6383,53.4567 C34.6403,53.4567 34.6423,53.4577 34.6453,53.4577 L34.6463,53.4577 C34.6483,53.4577 34.6503,53.4577 34.6533,53.4587 C34.6563,53.4587 34.6583,53.4587 34.6603,53.4587 C34.6633,53.4587 34.6663,53.4597 34.6683,53.4597 C34.6713,53.4597 34.6743,53.4597 34.6763,53.4607 C34.7823,53.4697 34.8893,53.4777 34.9963,53.4857 L35.0663,52.4877 C34.7493,52.4657 34.4343,52.4357 34.1213,52.3977 Z M31.7893,51.9657 L31.5453,52.9347 C31.7213,52.9797 31.8983,53.0217 32.0763,53.0607 L32.0833,53.0627 L32.0843,53.0627 C32.0863,53.0627 32.0893,53.0637 32.0913,53.0647 L32.0923,53.0647 C32.0943,53.0647 32.0963,53.0657 32.0983,53.0657 L32.0993,53.0657 C32.1013,53.0667 32.1043,53.0667 32.1063,53.0677 C32.1073,53.0677 32.1073,53.0677 32.1073,53.0677 L32.1133,53.0697 C32.1143,53.0697 32.1153,53.0697 32.1153,53.0697 C32.1173,53.0707 32.1193,53.0707 32.1203,53.0707 C32.1213,53.0707 32.1233,53.0717 32.1233,53.0717 C32.1253,53.0717 32.1273,53.0727 32.1283,53.0727 C32.1303,53.0727 32.1303,53.0727 32.1313,53.0737 C32.1333,53.0737 32.1343,53.0737 32.1363,53.0747 C32.1373,53.0747 32.1383,53.0747 32.1393,53.0747 C32.1403,53.0747 32.1423,53.0757 32.1433,53.0757 C32.1443,53.0757 32.1453,53.0757 32.1473,53.0767 C32.1483,53.0767 32.1493,53.0767 32.1513,53.0767 C32.1523,53.0777 32.1533,53.0777 32.1553,53.0777 C32.1563,53.0787 32.1573,53.0787 32.1583,53.0787 C32.1593,53.0787 32.1613,53.0797 32.1623,53.0797 C32.1633,53.0797 32.1643,53.0807 32.1653,53.0807 C32.1673,53.0807 32.1693,53.0817 32.1703,53.0817 C32.1713,53.0817 32.1723,53.0817 32.1733,53.0827 C32.1743,53.0827 32.1773,53.0827 32.1773,53.0837 C32.1783,53.0837 32.1793,53.0837 32.1803,53.0837 C32.1813,53.0837 32.1843,53.0847 32.1853,53.0847 C32.1863,53.0847 32.1873,53.0857 32.1883,53.0857 C32.1893,53.0857 32.1923,53.0867 32.1933,53.0867 C32.1943,53.0867 32.1953,53.0867 32.1953,53.0867 C32.1973,53.0877 32.1993,53.0877 32.2003,53.0887 C32.2013,53.0887 32.2023,53.0887 32.2033,53.0887 C32.2053,53.0897 32.2063,53.0897 32.2083,53.0897 C32.2093,53.0897 32.2093,53.0907 32.2103,53.0907 C32.2133,53.0907 32.2133,53.0907 32.2163,53.0917 L32.2183,53.0917 L32.2243,53.0937 C32.2243,53.0937 32.2253,53.0937 32.2253,53.0937 C32.2283,53.0947 32.2293,53.0947 32.2313,53.0947 C32.2323,53.0947 32.2323,53.0957 32.2333,53.0957 C32.2353,53.0957 32.2373,53.0957 32.2393,53.0967 L32.2403,53.0967 C32.2423,53.0967 32.2443,53.0977 32.2463,53.0977 C32.2473,53.0977 32.2473,53.0977 32.2483,53.0987 C32.2503,53.0987 32.2523,53.0987 32.2543,53.0997 C32.2543,53.0997 32.2553,53.0997 32.2553,53.0997 C32.2583,53.1007 32.2593,53.1007 32.2613,53.1017 L32.2633,53.1017 C32.2653,53.1017 32.2673,53.1027 32.2693,53.1027 L32.2703,53.1027 C32.2733,53.1037 32.2743,53.1037 32.2773,53.1047 C32.2773,53.1047 32.2783,53.1047 32.2783,53.1047 C32.2803,53.1057 32.2823,53.1057 32.2843,53.1057 C32.2843,53.1067 32.2853,53.1067 32.2853,53.1067 C32.2883,53.1067 32.2893,53.1077 32.2923,53.1077 L32.2933,53.1077 C32.2953,53.1087 32.2983,53.1087 32.3003,53.1097 L32.3013,53.1097 C32.3033,53.1107 32.3043,53.1107 32.3073,53.1107 C32.3073,53.1107 32.3083,53.1117 32.3083,53.1117 C32.3113,53.1117 32.3123,53.1117 32.3153,53.1127 C32.3153,53.1127 32.3153,53.1127 32.3163,53.1127 C32.3183,53.1137 32.3203,53.1137 32.3223,53.1147 L32.3243,53.1147 C32.3263,53.1147 32.3273,53.1157 32.3293,53.1157 C32.3303,53.1157 32.3313,53.1167 32.3323,53.1167 C32.3343,53.1167 32.3353,53.1167 32.3373,53.1167 C32.3383,53.1167 32.3393,53.1177 32.3403,53.1177 C32.3423,53.1177 32.3433,53.1177 32.3443,53.1187 C32.3453,53.1187 32.3473,53.1187 32.3483,53.1197 C32.3503,53.1197 32.3503,53.1197 32.3523,53.1197 C32.3533,53.1207 32.3553,53.1207 32.3563,53.1207 C32.3573,53.1217 32.3583,53.1217 32.3603,53.1217 C32.3613,53.1217 32.3623,53.1227 32.3643,53.1227 C32.3653,53.1227 32.3663,53.1227 32.3673,53.1237 C32.3693,53.1237 32.3703,53.1237 32.3723,53.1247 C32.3733,53.1247 32.3733,53.1247 32.3753,53.1247 C32.3763,53.1257 32.3783,53.1257 32.3803,53.1257 C32.3813,53.1267 32.3813,53.1267 32.3823,53.1267 C32.3853,53.1267 32.3863,53.1277 32.3893,53.1277 L32.3903,53.1277 C32.4333,53.1377 32.4773,53.1457 32.5203,53.1547 L32.7153,52.1737 C32.4043,52.1117 32.0943,52.0427 31.7893,51.9657 Z M29.5313,51.2417 L29.1653,52.1717 C29.4753,52.2937 29.7883,52.4077 30.1053,52.5127 L30.4233,51.5647 C30.1223,51.4647 29.8243,51.3567 29.5313,51.2417 Z M27.3813,50.2377 L26.9023,51.1147 C27.1943,51.2747 27.4903,51.4267 27.7913,51.5717 L28.2263,50.6717 C27.9403,50.5337 27.6583,50.3887 27.3813,50.2377 Z M25.3753,48.9707 L24.7893,49.7817 C24.8213,49.8037 24.8523,49.8267 24.8843,49.8497 C24.8863,49.8507 24.8883,49.8527 24.8893,49.8537 C24.8903,49.8537 24.8903,49.8547 24.8913,49.8547 C24.8923,49.8557 24.8943,49.8567 24.8963,49.8577 L24.8973,49.8597 C24.8993,49.8607 24.9003,49.8617 24.9013,49.8627 C24.9023,49.8627 24.9033,49.8637 24.9043,49.8637 C24.9053,49.8647 24.9063,49.8657 24.9063,49.8657 C24.9073,49.8667 24.9093,49.8677 24.9103,49.8687 L24.9113,49.8687 C25.1413,50.0327 25.3763,50.1927 25.6143,50.3467 L26.1583,49.5077 C25.8923,49.3347 25.6313,49.1567 25.3753,48.9707 Z M23.5413,47.4637 L22.8593,48.1947 C23.1033,48.4227 23.3523,48.6437 23.6073,48.8587 L24.2523,48.0937 C24.0103,47.8897 23.7733,47.6797 23.5413,47.4637 Z M21.9093,45.7397 L21.1423,46.3807 C21.1943,46.4427 21.2463,46.5047 21.2983,46.5657 C21.2983,46.5657 21.2993,46.5657 21.2993,46.5667 C21.3023,46.5697 21.3043,46.5737 21.3073,46.5757 C21.3083,46.5767 21.3083,46.5777 21.3093,46.5787 C21.3113,46.5807 21.3153,46.5847 21.3173,46.5877 L21.3203,46.5907 C21.3223,46.5937 21.3243,46.5957 21.3263,46.5987 C21.3273,46.5997 21.3293,46.6007 21.3303,46.6027 C21.3323,46.6047 21.3343,46.6077 21.3363,46.6107 C21.3383,46.6117 21.3393,46.6137 21.3413,46.6157 C21.3433,46.6167 21.3443,46.6197 21.3463,46.6217 C21.3483,46.6237 21.3503,46.6257 21.3523,46.6287 C21.3533,46.6297 21.3553,46.6317 21.3563,46.6337 C21.3583,46.6357 21.3603,46.6377 21.3633,46.6397 C21.3643,46.6417 21.3653,46.6427 21.3663,46.6447 C21.3683,46.6467 21.3703,46.6497 21.3723,46.6517 C21.3743,46.6537 21.3753,46.6547 21.3763,46.6567 C21.3783,46.6587 21.3813,46.6607 21.3833,46.6637 C21.3843,46.6647 21.3853,46.6657 21.3863,46.6677 C21.3883,46.6707 21.3903,46.6727 21.3933,46.6757 C21.3943,46.6767 21.3963,46.6787 21.3963,46.6797 C21.3993,46.6817 21.4013,46.6847 21.4033,46.6877 C21.4053,46.6887 21.4063,46.6907 21.4073,46.6917 C21.4093,46.6947 21.4113,46.6967 21.4133,46.6997 C21.4153,46.7007 21.4163,46.7017 21.4173,46.7037 C21.4193,46.7057 21.4223,46.7087 21.4243,46.7117 C21.4253,46.7127 21.4263,46.7137 21.4273,46.7157 C21.4303,46.7187 21.4323,46.7207 21.4353,46.7237 C21.4363,46.7247 21.4373,46.7257 21.4383,46.7267 C21.4403,46.7297 21.4433,46.7327 21.4453,46.7357 C21.4473,46.7367 21.4473,46.7377 21.4483,46.7387 C21.4503,46.7417 21.4533,46.7437 21.4553,46.7467 C21.4563,46.7477 21.4573,46.7487 21.4583,46.7497 C21.4603,46.7527 21.4633,46.7557 21.4653,46.7587 L21.4693,46.7627 C21.4713,46.7647 21.4733,46.7677 21.4763,46.7707 C21.4763,46.7707 21.4783,46.7727 21.4783,46.7737 C21.4813,46.7767 21.4843,46.7797 21.4863,46.7817 C21.4873,46.7837 21.4883,46.7837 21.4893,46.7847 C21.4913,46.7877 21.4933,46.7907 21.4963,46.7937 C21.4973,46.7947 21.4983,46.7957 21.4993,46.7967 L21.5063,46.8047 C21.5073,46.8057 21.5093,46.8077 21.5093,46.8087 C21.5123,46.8117 21.5143,46.8147 21.5173,46.8177 C21.5183,46.8177 21.5193,46.8197 21.5203,46.8207 C21.5223,46.8237 21.5253,46.8257 21.5283,46.8287 L21.5313,46.8317 C21.5333,46.8357 21.5363,46.8387 21.5383,46.8417 L21.5413,46.8437 C21.5433,46.8467 21.5463,46.8497 21.5493,46.8527 C21.5503,46.8537 21.5513,46.8547 21.5513,46.8557 C21.5543,46.8587 21.5563,46.8617 21.5593,46.8647 C21.5603,46.8657 21.5603,46.8667 21.5623,46.8667 C21.5643,46.8697 21.5673,46.8727 21.5693,46.8757 C21.5703,46.8767 21.5713,46.8777 21.5723,46.8787 C21.5743,46.8817 21.5773,46.8847 21.5793,46.8877 C21.5803,46.8877 21.5813,46.8897 21.5823,46.8907 C21.5853,46.8927 21.5873,46.8957 21.5903,46.8987 C21.5913,46.8997 21.5913,46.9007 21.5933,46.9027 C21.5953,46.9047 21.5973,46.9077 21.6003,46.9097 C21.6013,46.9107 21.6023,46.9127 21.6033,46.9137 C21.6053,46.9157 21.6083,46.9187 21.6103,46.9217 L21.6143,46.9257 C21.6153,46.9277 21.6183,46.9307 21.6203,46.9337 C21.6223,46.9347 21.6233,46.9357 21.6243,46.9377 C21.6263,46.9397 21.6293,46.9427 21.6313,46.9447 C21.6333,46.9467 21.6343,46.9477 21.6353,46.9497 C21.6373,46.9517 21.6393,46.9537 21.6413,46.9567 C21.6423,46.9577 21.6443,46.9597 21.6463,46.9607 C21.6483,46.9637 21.6503,46.9657 21.6523,46.9687 C21.6543,46.9707 21.6553,46.9707 21.6563,46.9727 C21.6583,46.9747 21.6603,46.9777 21.6633,46.9807 C21.6643,46.9817 21.6653,46.9827 21.6663,46.9847 C21.6693,46.9867 21.6713,46.9897 21.6733,46.9917 L21.6773,46.9957 C21.6793,46.9977 21.6813,47.0007 21.6833,47.0027 L21.6873,47.0067 C21.6893,47.0097 21.6923,47.0117 21.6943,47.0137 C21.6953,47.0157 21.6963,47.0167 21.6983,47.0187 C21.6993,47.0207 21.7023,47.0237 21.7043,47.0257 C21.7053,47.0277 21.7073,47.0287 21.7083,47.0297 C21.7103,47.0327 21.7123,47.0347 21.7143,47.0367 C21.7163,47.0387 21.7183,47.0407 21.7193,47.0427 C21.7213,47.0447 21.7233,47.0467 21.7243,47.0487 C21.7273,47.0507 21.7283,47.0527 21.7303,47.0547 C21.7323,47.0557 21.7333,47.0577 21.7353,47.0597 C21.7373,47.0617 21.7393,47.0637 21.7413,47.0667 L21.7453,47.0707 C21.7473,47.0727 21.7503,47.0757 21.7523,47.0777 C21.7533,47.0787 21.7543,47.0807 21.7553,47.0817 C21.7573,47.0837 21.7603,47.0867 21.7623,47.0897 C21.7633,47.0907 21.7643,47.0917 21.7653,47.0927 C21.7683,47.0957 21.7713,47.0977 21.7733,47.1007 C21.7743,47.1017 21.7753,47.1027 21.7763,47.1047 C21.7793,47.1067 21.7813,47.1097 21.7833,47.1127 C21.7843,47.1127 21.7843,47.1137 21.7853,47.1147 C21.7913,47.1197 21.7963,47.1257 21.8013,47.1317 L22.5363,46.4537 C22.3223,46.2207 22.1133,45.9827 21.9093,45.7397 Z M20.5053,43.8257 L19.6633,44.3667 C19.8443,44.6467 20.0313,44.9227 20.2243,45.1937 L21.0383,44.6127 C20.8543,44.3547 20.6773,44.0927 20.5053,43.8257 Z M19.3523,41.7527 L18.4493,42.1827 C18.5933,42.4847 18.7443,42.7817 18.9023,43.0747 L19.7823,42.5987 C19.6323,42.3217 19.4893,42.0387 19.3523,41.7527 Z M18.4693,39.5507 L17.5203,39.8637 C17.5423,39.9297 17.5643,39.9957 17.5863,40.0617 L17.5863,40.0627 C17.5873,40.0647 17.5883,40.0667 17.5893,40.0687 L17.5893,40.0697 C17.5903,40.0717 17.5903,40.0737 17.5913,40.0747 C17.5913,40.0757 17.5913,40.0767 17.5923,40.0767 C17.5923,40.0787 17.5933,40.0797 17.5933,40.0817 C17.5943,40.0827 17.5943,40.0837 17.5943,40.0847 C17.5943,40.0857 17.5953,40.0877 17.5953,40.0887 C17.5963,40.0897 17.5963,40.0917 17.5973,40.0927 C17.5973,40.0937 17.5973,40.0947 17.5983,40.0957 C17.5983,40.0967 17.5993,40.0977 17.5993,40.0997 C17.5993,40.1007 17.6003,40.1017 17.6003,40.1027 C17.6013,40.1047 17.6013,40.1057 17.6023,40.1077 C17.6023,40.1087 17.6023,40.1087 17.6023,40.1097 C17.6033,40.1117 17.6043,40.1137 17.6043,40.1157 C17.6053,40.1157 17.6053,40.1157 17.6053,40.1167 C17.6063,40.1187 17.6063,40.1207 17.6073,40.1227 L17.6073,40.1237 C17.6083,40.1257 17.6093,40.1277 17.6103,40.1307 C17.6883,40.3577 17.7703,40.5817 17.8563,40.8047 L18.7893,40.4447 C18.6763,40.1507 18.5693,39.8527 18.4693,39.5507 Z M17.8733,37.2557 L16.8913,37.4457 L16.8913,37.4467 C16.8923,37.4477 16.8923,37.4487 16.8923,37.4497 L16.8933,37.4537 C16.8933,37.4557 16.8933,37.4567 16.8933,37.4577 C16.8943,37.4597 16.8943,37.4607 16.8943,37.4617 C16.8943,37.4627 16.8953,37.4637 16.8953,37.4647 C16.8953,37.4667 16.8953,37.4677 16.8963,37.4697 C16.8963,37.4707 16.8963,37.4707 16.8963,37.4717 C16.8973,37.4737 16.8973,37.4757 16.8973,37.4777 C16.8973,37.4777 16.8983,37.4787 16.8983,37.4787 C16.8983,37.4817 16.8983,37.4827 16.8993,37.4847 C16.8993,37.4857 16.8993,37.4867 16.8993,37.4877 C16.9003,37.4897 16.9003,37.4917 16.9003,37.4927 C16.9013,37.4927 16.9013,37.4937 16.9013,37.4937 C16.9013,37.4967 16.9013,37.4977 16.9023,37.5007 C16.9033,37.5067 16.9043,37.5107 16.9053,37.5157 C16.9313,37.6477 16.9583,37.7787 16.9873,37.9087 L17.0003,37.9697 C17.0023,37.9797 17.0043,37.9897 17.0073,37.9997 C17.0093,38.0097 17.0113,38.0197 17.0133,38.0297 C17.0133,38.0297 17.0133,38.0297 17.0133,38.0307 C17.0143,38.0347 17.0153,38.0397 17.0163,38.0447 C17.0173,38.0447 17.0173,38.0447 17.0173,38.0447 C17.0193,38.0547 17.0213,38.0647 17.0233,38.0747 C17.0233,38.0747 17.0243,38.0747 17.0243,38.0747 C17.0243,38.0777 17.0253,38.0797 17.0253,38.0817 L17.0253,38.0827 C17.0263,38.0857 17.0263,38.0867 17.0273,38.0897 C17.0273,38.0897 17.0273,38.0907 17.0273,38.0917 L17.0293,38.0967 C17.0293,38.0977 17.0293,38.0977 17.0293,38.0987 C17.0303,38.1007 17.0303,38.1027 17.0303,38.1047 C17.0313,38.1047 17.0313,38.1057 17.0313,38.1067 L17.0323,38.1127 L17.0323,38.1137 C17.0323,38.1157 17.0333,38.1167 17.0333,38.1197 C17.0343,38.1197 17.0343,38.1207 17.0343,38.1217 C17.0343,38.1237 17.0353,38.1247 17.0353,38.1267 C17.0353,38.1277 17.0363,38.1287 17.0363,38.1297 C17.0363,38.1317 17.0363,38.1327 17.0373,38.1347 C17.0373,38.1357 17.0383,38.1377 17.0383,38.1377 C17.0383,38.1397 17.0383,38.1407 17.0393,38.1417 C17.0393,38.1447 17.0403,38.1467 17.0403,38.1487 L17.0403,38.1497 C17.0413,38.1517 17.0423,38.1537 17.0423,38.1567 L17.0423,38.1577 C17.0633,38.2457 17.0843,38.3337 17.1063,38.4227 L18.0763,38.1827 C18.0013,37.8767 17.9333,37.5677 17.8733,37.2557 Z M17.5713,34.9027 L16.5733,34.9677 C16.5793,35.0587 16.5863,35.1507 16.5933,35.2417 C16.5933,35.2427 16.5933,35.2437 16.5933,35.2447 L16.5933,35.2497 C16.5943,35.2517 16.5943,35.2527 16.5943,35.2547 C16.5943,35.2557 16.5943,35.2557 16.5943,35.2577 C16.5943,35.2597 16.5943,35.2617 16.5943,35.2637 L16.5943,35.2647 C16.6073,35.4157 16.6203,35.5657 16.6363,35.7157 L16.6363,35.7167 C16.6363,35.7187 16.6363,35.7207 16.6363,35.7227 L16.6363,35.7247 C16.6373,35.7267 16.6373,35.7287 16.6373,35.7307 C16.6373,35.7317 16.6373,35.7317 16.6373,35.7327 C16.6373,35.7347 16.6383,35.7367 16.6383,35.7387 C16.6383,35.7387 16.6383,35.7407 16.6383,35.7417 C16.6383,35.7427 16.6383,35.7437 16.6393,35.7457 C16.6393,35.7467 16.6393,35.7487 16.6393,35.7497 L16.6393,35.7527 C16.6403,35.7547 16.6403,35.7567 16.6403,35.7587 C16.6403,35.7587 16.6403,35.7597 16.6403,35.7607 C16.6403,35.7627 16.6413,35.7647 16.6413,35.7667 L16.6413,35.7677 C16.6483,35.8327 16.6553,35.8977 16.6633,35.9637 L17.6563,35.8487 C17.6203,35.5357 17.5923,35.2207 17.5713,34.9027 Z M16.5673,32.4687 L16.5673,32.4707 L16.5673,32.4757 C16.5673,32.4767 16.5663,32.4767 16.5663,32.4777 L16.5663,32.4837 C16.5663,32.4847 16.5663,32.4847 16.5663,32.4857 L16.5663,32.4917 C16.5653,32.4947 16.5653,32.4967 16.5653,32.4997 C16.5523,32.7247 16.5433,32.9507 16.5373,33.1777 L16.5373,33.1787 L16.5373,33.1857 C16.5373,33.1887 16.5373,33.1907 16.5363,33.1927 L16.5363,33.1937 L16.5363,33.1997 L16.5363,33.2017 L16.5363,33.2087 L16.5363,33.2097 C16.5363,33.2117 16.5363,33.2137 16.5363,33.2157 L16.5363,33.2187 L16.5363,33.2237 L16.5363,33.2257 L16.5363,33.2317 L16.5363,33.2337 C16.5353,33.2357 16.5353,33.2377 16.5353,33.2397 L16.5353,33.2417 L16.5353,33.2467 L16.5353,33.2497 L16.5353,33.2547 L16.5353,33.2587 C16.5353,33.2597 16.5353,33.2617 16.5353,33.2627 L16.5353,33.2657 L16.5353,33.2707 L16.5353,33.2747 L16.5353,33.2787 L16.5353,33.2827 C16.5343,33.2837 16.5343,33.2847 16.5343,33.2857 L16.5343,33.2897 L16.5343,33.2937 L16.5343,33.2987 L16.5343,33.3017 L16.5343,33.3067 L16.5343,33.3097 C16.5343,33.3117 16.5343,33.3127 16.5343,33.3147 L16.5343,33.3177 L16.5343,33.3237 L16.5343,33.3247 L16.5343,33.3317 L16.5343,33.3327 C16.5333,33.3387 16.5333,33.3437 16.5333,33.3487 C16.5333,33.3887 16.5323,33.4277 16.5323,33.4677 L17.5323,33.4777 C17.5353,33.1597 17.5463,32.8427 17.5653,32.5287 L16.5673,32.4687 Z M24.7093,17.6147 C24.6253,17.6757 24.5413,17.7377 24.4583,17.8007 L24.4573,17.8017 C24.4533,17.8037 24.4503,17.8067 24.4463,17.8097 L24.4453,17.8107 C24.4413,17.8137 24.4373,17.8167 24.4343,17.8187 C24.4333,17.8197 24.4323,17.8207 24.4323,17.8207 L24.4223,17.8277 C24.4213,17.8287 24.4203,17.8297 24.4193,17.8297 C24.4163,17.8327 24.4133,17.8347 24.4103,17.8367 C24.4093,17.8377 24.4073,17.8387 24.4063,17.8397 C24.4043,17.8417 24.4013,17.8447 24.3983,17.8457 C24.3963,17.8477 24.3953,17.8477 24.3943,17.8487 C24.3913,17.8517 24.3883,17.8537 24.3853,17.8557 C24.3843,17.8567 24.3833,17.8577 24.3823,17.8587 C24.3793,17.8607 24.3763,17.8627 24.3733,17.8647 C24.3713,17.8667 24.3703,17.8667 24.3683,17.8687 C24.3663,17.8707 24.3643,17.8717 24.3623,17.8737 C24.3593,17.8757 24.3573,17.8777 24.3553,17.8797 C24.3533,17.8807 24.3513,17.8817 24.3503,17.8827 C24.3473,17.8857 24.3453,17.8867 24.3423,17.8887 L24.3383,17.8917 C24.3353,17.8937 24.3323,17.8957 24.3293,17.8987 C24.3283,17.8997 24.3273,17.9007 24.3253,17.9017 C24.3233,17.9037 24.3203,17.9057 24.3173,17.9077 C24.3163,17.9087 24.3153,17.9087 24.3153,17.9097 C24.3113,17.9127 24.3083,17.9147 24.3043,17.9177 L24.3033,17.9187 C24.1973,18.0007 24.0893,18.0857 23.9843,18.1697 C23.9833,18.1707 23.9823,18.1717 23.9813,18.1717 C23.9783,18.1747 23.9763,18.1757 23.9733,18.1787 C23.9713,18.1797 23.9703,18.1807 23.9693,18.1817 C23.9663,18.1837 23.9643,18.1857 23.9623,18.1877 C23.9603,18.1887 23.9583,18.1907 23.9563,18.1927 C23.9543,18.1937 23.9523,18.1957 23.9503,18.1967 C23.9483,18.1987 23.9463,18.2007 23.9433,18.2027 C23.9423,18.2037 23.9403,18.2047 23.9393,18.2057 C23.9363,18.2087 23.9323,18.2107 23.9293,18.2137 L23.9273,18.2157 C23.9243,18.2177 23.9203,18.2207 23.9173,18.2237 C23.9163,18.2237 23.9173,18.2237 23.9163,18.2237 L24.5463,19.0007 C24.7923,18.8027 25.0433,18.6087 25.2993,18.4217 L24.7093,17.6147 Z M26.8153,16.2707 C26.8153,16.2707 26.8133,16.2717 26.8133,16.2717 C26.8123,16.2727 26.8113,16.2737 26.8093,16.2737 C26.8083,16.2747 26.8073,16.2747 26.8063,16.2757 L26.8033,16.2777 C26.8023,16.2787 26.8003,16.2797 26.7983,16.2807 C26.7983,16.2807 26.7973,16.2807 26.7973,16.2807 C26.7953,16.2827 26.7933,16.2827 26.7913,16.2837 C26.7913,16.2837 26.7903,16.2837 26.7903,16.2847 C26.7883,16.2857 26.7863,16.2867 26.7843,16.2877 C26.7813,16.2897 26.7803,16.2907 26.7783,16.2917 L26.7773,16.2917 C26.6153,16.3817 26.4553,16.4737 26.2963,16.5677 C26.2923,16.5707 26.2883,16.5727 26.2833,16.5757 C26.2813,16.5767 26.2793,16.5777 26.2773,16.5797 C26.2753,16.5807 26.2733,16.5817 26.2713,16.5827 C26.2703,16.5837 26.2703,16.5837 26.2703,16.5837 C26.2683,16.5847 26.2663,16.5857 26.2643,16.5867 C26.2643,16.5877 26.2633,16.5877 26.2633,16.5877 C26.2613,16.5887 26.2603,16.5897 26.2583,16.5907 C26.2573,16.5917 26.2573,16.5917 26.2563,16.5927 C26.2543,16.5937 26.2533,16.5937 26.2523,16.5947 C26.2513,16.5947 26.2503,16.5957 26.2493,16.5957 C26.2483,16.5967 26.2473,16.5977 26.2453,16.5987 C26.2443,16.5987 26.2433,16.5987 26.2433,16.5997 C26.2413,16.6007 26.2403,16.6007 26.2393,16.6017 C26.2383,16.6027 26.2373,16.6037 26.2363,16.6037 C26.2353,16.6047 26.2333,16.6057 26.2323,16.6057 L26.2283,16.6087 L26.2263,16.6097 C26.2243,16.6107 26.2223,16.6117 26.2213,16.6127 C26.2203,16.6137 26.2203,16.6137 26.2193,16.6137 C26.1303,16.6677 26.0413,16.7217 25.9533,16.7767 L26.4803,17.6257 C26.7493,17.4597 27.0223,17.2997 27.2993,17.1457 L26.8153,16.2707 Z M29.0733,15.2017 C28.7633,15.3257 28.4573,15.4567 28.1543,15.5957 L28.5713,16.5047 C28.8583,16.3727 29.1493,16.2487 29.4443,16.1317 L29.0733,15.2017 Z M31.4493,14.4277 C31.3903,14.4427 31.3313,14.4577 31.2723,14.4737 C31.2693,14.4747 31.2643,14.4757 31.2613,14.4767 C31.2613,14.4767 31.2603,14.4767 31.2603,14.4767 C31.0873,14.5237 30.9153,14.5717 30.7443,14.6227 C30.7413,14.6237 30.7403,14.6237 30.7373,14.6247 C30.7373,14.6247 30.7373,14.6247 30.7363,14.6247 C30.7353,14.6257 30.7323,14.6257 30.7313,14.6267 C30.7303,14.6267 30.7293,14.6267 30.7283,14.6277 C30.7273,14.6277 30.7243,14.6287 30.7233,14.6287 C30.7223,14.6297 30.7213,14.6297 30.7213,14.6297 C30.7193,14.6297 30.7183,14.6307 30.7173,14.6307 C30.7153,14.6317 30.7143,14.6317 30.7133,14.6317 C30.7123,14.6327 30.7103,14.6327 30.7093,14.6337 C30.7083,14.6337 30.7063,14.6347 30.7043,14.6347 C30.7043,14.6347 30.7033,14.6347 30.7023,14.6357 L30.6973,14.6367 C30.6963,14.6377 30.6963,14.6377 30.6953,14.6377 C30.6263,14.6577 30.5563,14.6787 30.4873,14.7007 L30.7853,15.6557 C31.0863,15.5617 31.3913,15.4747 31.6983,15.3957 L31.4493,14.4277 Z M33.9033,13.9597 C33.6053,13.9967 33.3083,14.0407 33.0143,14.0917 L33.0133,14.0917 C33.0113,14.0927 33.0093,14.0927 33.0073,14.0937 C33.0043,14.0937 33.0033,14.0937 33.0003,14.0947 L32.9993,14.0947 C32.9713,14.0987 32.9433,14.1047 32.9143,14.1097 L33.0893,15.0937 C33.4003,15.0387 33.7133,14.9917 34.0283,14.9517 L33.9033,13.9597 Z M36.3973,13.8037 L36.3893,13.8037 L36.3843,13.8037 L36.3813,13.8037 L36.3783,13.8037 L36.3733,13.8037 L36.3713,13.8037 L36.3653,13.8037 L36.3623,13.8037 L36.3573,13.8037 L36.3543,13.8037 L36.3493,13.8037 L36.3463,13.8037 L36.3413,13.8037 L36.3393,13.8037 L36.3333,13.8037 L36.3313,13.8037 L36.3253,13.8037 L36.3233,13.8037 L36.3173,13.8037 L36.3153,13.8037 L36.3093,13.8037 L36.3073,13.8037 L36.3013,13.8037 L36.2993,13.8037 C36.2973,13.8037 36.2953,13.8037 36.2933,13.8037 L36.2913,13.8037 L36.2853,13.8037 L36.2833,13.8037 L36.2773,13.8037 L36.2763,13.8037 L36.2693,13.8037 L36.2673,13.8037 L36.2613,13.8037 L36.2603,13.8037 L36.2533,13.8037 L36.2523,13.8037 L36.2453,13.8037 L36.2443,13.8037 L36.2373,13.8037 L36.2363,13.8037 L36.2293,13.8037 L36.2283,13.8037 C36.2253,13.8047 36.2233,13.8047 36.2203,13.8047 C36.0233,13.8057 35.8263,13.8107 35.6303,13.8187 C35.5523,13.8217 35.4753,13.8247 35.3973,13.8287 L35.4473,14.8267 C35.7613,14.8117 36.0783,14.8037 36.3973,14.8037 L36.3973,13.8037 Z" id="Fill-13" fill="#000000"></path>
                </g>
            </g>
        </g>
    </g>
</svg>