<?xml version="1.0" encoding="UTF-8"?>
<svg width="20px" height="23px" viewBox="0 0 20 23" version="1.1" xmlns="http://www.w3.org/2000/svg" xmlns:xlink="http://www.w3.org/1999/xlink">
    <!-- Generator: Sketch 49.2 (51160) - http://www.bohemiancoding.com/sketch -->
    <title>icon/key</title>
    <desc>Created with Sketch.</desc>
    <defs></defs>
    <g id="登录" stroke="none" stroke-width="1" fill="none" fill-rule="evenodd">
        <g id="账号密码登录" transform="translate(-802.000000, -346.000000)" fill="#000000">
            <g id="icon/key" transform="translate(800.000000, 345.000000)">
                <g id="钥匙">
                    <path d="M2.43984779,23.0396043 L2,19.512207 L7.70882801,12.3696499 C6.20459665,9.67796043 6.46858447,6.32657534 8.41254186,3.88995434 C9.68800609,2.29783866 11.5000913,1.29503805 13.5231355,1.07519026 C15.5463014,0.846392694 17.534277,1.42703196 19.126484,2.69369863 C20.7185997,3.96033486 21.7214003,5.78121766 21.9412481,7.80429224 C22.1700457,9.8274277 21.5894064,11.8154033 20.3227397,13.4076408 L19.8389041,13.0205784 L20.3227397,13.4076408 C18.4403653,15.7562557 15.3880365,16.7678539 12.5203653,16.0465145 L12.370898,18.3247489 L9.08986301,18.9668798 L8.21896499,22.3622831 L5.72085236,22.7053577 L2.43984779,23.0396043 Z M3.30185693,19.8816743 L3.52170472,21.6761644 L5.57126332,21.4737595 L7.20736682,21.2451142 L8.06949772,17.8936986 L11.1833181,17.2867884 L11.3856925,14.3400304 L12.1684932,14.6302892 C14.7459056,15.580274 17.6310502,14.7798782 19.3551598,12.6247184 C20.4195434,11.2964688 20.9032877,9.62517504 20.7098021,7.93625571 C20.5162253,6.24736682 19.6806393,4.7256621 18.3523896,3.6700761 C17.02414,2.60569254 15.3528463,2.12185693 13.6639269,2.31543379 C11.9750381,2.50009132 10.4533029,3.34462709 9.38894977,4.67284627 C7.68243531,6.81028919 7.52404871,9.78356164 9.00188737,12.0881887 L9.23933029,12.4663318 L3.30185693,19.8816743 Z M14.3676408,11.3140639 C13.7871233,11.3140639 13.1976865,11.1204871 12.7051446,10.7335464 C11.5527854,9.81863014 11.3680974,8.12974125 12.2828919,6.98627093 C13.1976865,5.83391172 14.8865753,5.64925419 16.0301674,6.56401826 C16.5842922,7.01269406 16.9361339,7.64599696 17.0153425,8.34971081 C17.0945205,9.06225266 16.8921461,9.75716895 16.4436225,10.3112938 C15.9245662,10.9710198 15.1505632,11.3140639 14.3676408,11.3140639 Z M13.4792694,9.75716895 C14.0949772,10.2497108 14.9921766,10.1441096 15.4760426,9.53716895 C15.7134855,9.23811263 15.8190868,8.86864536 15.7750989,8.49041096 C15.7310807,8.11226788 15.5463014,7.77799087 15.2472451,7.54042618 C14.6315068,7.04788432 13.7343379,7.15336377 13.2504718,7.76039574 C12.766758,8.36733638 12.8634094,9.26450533 13.4792694,9.75716895 Z" id="Fill-1"></path>
                </g>
            </g>
        </g>
    </g>
</svg>