<?xml version="1.0" encoding="UTF-8"?>
<svg xmlns:xlink="http://www.w3.org/1999/xlink" height="24px" version="1.1" viewBox="0 0 75 24" width="75px"
  xmlns="http://www.w3.org/2000/svg">
  <!-- Generator: Sketch 51.2 (57519) - http://www.bohemiancoding.com/sketch -->
  <title>MO&amp;CO.</title>
  <desc>Created with Sketch.</desc>
  <defs>
    <polygon id="path-1"
      points="0.119830149 0.0344148148 1.42179193 0.0344148148 1.42179193 1.33333333 0.119830149 1.33333333"></polygon>
    <polygon id="path-3"
      points="0.0952175964 0.0155107703 9.47779958 0.0155107703 9.47779958 9.03703704 0.0952175964 9.03703704"></polygon>
  </defs>
  <g fill="none" fill-rule="evenodd" id="购物袋" stroke="none" stroke-width="1">
    <g id="我的购物袋" transform="translate(-506.000000, -222.000000)">
      <g id="Group-3" transform="translate(505.000000, 222.000000)">
        <g id="logo/MO&amp;Co" transform="translate(0.000000, 6.000000)">
          <g id="Group-15">
            <path
              d="M0,0.499925926 L3.94197877,0.499925926 L7.91023355,9.22333333 L11.9915329,0.51962963 L15.6841783,0.51962963 L15.6834565,0.71562963 C15.6834565,0.71562963 13.9203652,0.71562963 13.8374947,2.00911111 C13.7546242,3.30437037 13.8374947,10.424963 13.8374947,10.424963 C13.8458684,11.231037 14.714276,11.8491111 15.6391338,11.7781481 C15.6883652,11.7745926 15.6678641,11.9901481 15.6594904,11.9901481 L10.0325265,11.9625926 L10.0300722,11.7468889 C10.0300722,11.7468889 10.0361359,11.7517778 10.1195839,11.7479259 C10.4191592,11.736963 11.1159066,11.7283704 11.5091805,11.4793333 C11.9674225,11.1865926 11.9457665,10.6160741 11.9607813,10.4934074 L11.9915329,1.87533333 L7.16613163,11.9625926 L2.34318471,2.11755556 L2.37032696,10.3713333 C2.47182166,11.4233333 3.12338004,11.9002222 4.32745648,11.8011111 L4.35503185,11.9625926 L0.0275753715,11.9353333 L0.0545732484,11.8011111 C0.771099788,11.7221481 1.46178344,11.524963 1.95655202,10.5062963 L1.95655202,2.11755556 C1.79081104,1.03474074 1.04786412,0.691481481 0,0.688518519 L0,0.499925926 Z"
              fill="white" id="Fill-1"></path>
            <path
              d="M24.6026743,0.342162963 C27.0739185,0.342162963 29.2226318,2.91682963 29.2226318,6.07431111 C29.2226318,9.23075556 27.1735363,11.8387556 24.7022921,11.8387556 C22.2306149,11.8387556 20.0819015,9.23075556 20.0819015,6.07431111 C20.0819015,2.91682963 22.1320076,0.342162963 24.6026743,0.342162963 M24.6171117,0.190607407 C28.2886786,0.190607407 31.2829885,2.81579259 31.2829885,6.07431111 C31.2829885,9.33253333 28.2886786,11.990163 24.6171117,11.990163 C20.9454004,11.990163 17.9510904,9.33253333 17.9510904,6.07431111 C17.9510904,2.81579259 20.9454004,0.190607407 24.6171117,0.190607407"
              fill="white" id="Fill-3"></path>
            <path
              d="M61.2832459,4.63976296 C62.8495558,4.63976296 64.1261079,6.20628148 64.1261079,8.21887407 C64.1261079,10.2320593 62.8495558,11.8225778 61.2832459,11.8225778 C59.7182352,11.8225778 58.4413945,10.2320593 58.4413945,8.21887407 C58.4413945,6.20628148 59.7182352,4.63976296 61.2832459,4.63976296 M61.293352,4.44820741 C63.6193563,4.44820741 65.5157045,6.14094815 65.5157045,8.21887407 C65.5157045,10.2969481 63.6193563,11.9901333 61.293352,11.9901333 C58.967059,11.9901333 57.0698446,10.2969481 57.0698446,8.21887407 C57.0698446,6.14094815 58.967059,4.44820741 61.293352,4.44820741"
              fill="white" id="Fill-5"></path>
            <g id="Group-9" transform="translate(66.556263, 10.656844)">
              <mask fill="white" id="mask-2">
                <use xlink:href="#path-1"></use>
              </mask>
              <g id="Clip-8"></g>
              <path
                d="M0.770089172,0.0344148148 C1.12986837,0.0344148148 1.42179193,0.325822222 1.42179193,0.683896296 C1.42179193,1.04256296 1.12986837,1.33337778 0.770089172,1.33337778 C0.410454352,1.33337778 0.119830149,1.04256296 0.119830149,0.683896296 C0.119830149,0.325822222 0.410454352,0.0344148148 0.770089172,0.0344148148"
                fill="white" id="Fill-7" mask="url(#mask-2)"></path>
            </g>
            <path
              d="M54.8467788,0.224474074 L54.8329189,3.99395556 L54.6378701,3.99084444 C53.9135473,1.86921481 52.9429231,0.655881481 51.6939465,0.422844444 C50.9456577,0.190548148 50.1272034,0.311288889 49.5368594,0.477214815 C44.4130378,1.91914074 45.2489614,11.267437 50.8027278,11.3376593 C51.8417851,11.3505481 53.3357639,11.0098074 54.0084008,10.1680296 C54.6400357,9.37736296 54.7553902,8.28906667 54.7626089,8.28906667 L55.0556875,8.27558519 C54.9199762,10.0312889 53.7609444,11.1170667 52.3827533,11.6315852 C49.7524093,12.6149926 45.9924858,11.5188444 44.71218,9.0304 C44.1686132,7.97425185 43.9482989,6.89025185 44.0365113,5.71943704 C44.3168849,2.0306963 46.9886641,-0.0614518519 50.384766,0.00136296296 C50.9264561,0.0106962963 51.8140654,0.110992593 52.4806386,0.287288889 C53.004282,0.426548148 53.3465919,0.581214815 53.6877469,0.628177778 C54.0174964,0.670696296 54.3518658,0.591140741 54.5884943,0.356325926 C54.6677554,0.278103704 54.6871015,0.224474074 54.6871015,0.224474074 L54.8467788,0.224474074 Z"
              fill="white" id="Fill-10"></path>
            <g id="Group-14" transform="translate(33.061571, 2.953141)">
              <mask fill="white" id="mask-4">
                <use xlink:href="#path-3"></use>
              </mask>
              <g id="Clip-13"></g>
              <path
                d="M3.19018174,0.148488889 C1.33642378,0.194711111 2.55248323,2.66271111 3.29586327,3.29367407 C4.61110743,2.92345185 4.72155329,0.109674074 3.19018174,0.148488889 M1.10282718,6.47663704 C1.17241529,7.0718963 1.4426828,7.53900741 1.72493333,7.87485926 C2.5739949,8.88419259 4.13424119,8.91011852 5.34495881,7.32952593 C4.30720085,6.28552593 3.33787601,5.23308148 2.45705223,4.06893333 C1.67700127,4.67041481 0.986317622,5.50908148 1.10282718,6.47663704 M5.94078896,6.34908148 C6.34532399,5.90908148 6.96410955,4.64211852 6.75866582,4.07026667 C6.67449597,3.83663704 6.41447898,3.69174815 5.93588025,3.68997037 L5.93588025,3.42937778 L8.57459788,3.43293333 L8.57820722,3.69678519 C8.28758301,3.67456296 7.86962123,3.81145185 7.68092484,3.95693333 C7.07816476,4.41900741 6.94173163,5.44063704 6.13280594,6.5796 C6.56765945,7.05411852 7.4300034,7.96182222 8.17107346,8.34256296 C8.61545563,8.5718963 9.13433461,8.39737778 9.21590573,7.9593037 L9.47779958,7.95693333 C9.25979533,8.93411852 8.21554055,9.30700741 7.17547261,8.8313037 C6.41751083,8.48493333 5.80738769,7.77634074 5.53351083,7.54019259 C3.94684416,9.65574815 0.764126539,9.34893333 0.215217834,7.55574815 C-0.158276858,6.33545185 0.286105308,4.86404444 2.31585478,3.88656296 C2.12614777,3.68745185 1.05951507,2.54197037 1.190462,1.56345185 C1.32140892,0.581081481 2.20540892,0.0523407407 3.16809257,0.0178222222 C4.94619873,-0.0438074074 5.62605435,1.13945185 5.30352357,2.07426667 C5.0741138,2.73797037 4.33116688,3.17915556 3.43287389,3.50582222 C3.96734522,4.19826667 5.19120085,5.60345185 5.94078896,6.34908148"
                fill="white" id="Fill-12" mask="url(#mask-4)"></path>
            </g>
          </g>
        </g>
      </g>
    </g>
  </g>
</svg>