<?xml version="1.0" encoding="UTF-8"?>
<svg xmlns:xlink="http://www.w3.org/1999/xlink" height="20px" version="1.1" viewBox="0 0 20 20" width="20px"
  xmlns="http://www.w3.org/2000/svg">
  <!-- Generator: Sketch 52.3 (67297) - http://www.bohemiancoding.com/sketch -->
  <title>icon/personal center</title>
  <desc>Created with Sketch.</desc>
  <defs>
    <path
      d="M0,4.5 C0,6.985 2.014,9 4.5,9 C6.985,9 9,6.985 9,4.5 C9,2.014 6.985,0 4.5,0 C2.014,0 0,2.014 0,4.5 Z"
      id="path-1"></path>
    <path d="M0,6.972 L14.764,6.972 C14.764,3.122 11.46,0 7.382,0 C3.305,0 0,3.122 0,6.972"
      id="path-3"></path>
  </defs>
  <g fill="none" fill-rule="evenodd" id="icon/personal-center" stroke="none" stroke-width="1">
    <g id="Group-7" transform="translate(3.000000, 2.000000)">
      <g id="Group-3" transform="translate(3.000000, 0.000000)">
        <mask fill="white" id="mask-2">
          <use xlink:href="#path-1"></use>
        </mask>
        <g id="Clip-2"></g>
        <path
          d="M4.5,9 C6.985,9 9,6.985 9,4.5 C9,2.015 6.985,0 4.5,0 C2.015,0 0,2.015 0,4.5 C0,6.985 2.015,9 4.5,9 Z"
          id="Stroke-1" mask="url(#mask-2)" stroke="#000000" stroke-linejoin="round"
          stroke-width="2"></path>
      </g>
      <g id="Group-6" transform="translate(0.000000, 9.000000)">
        <mask fill="white" id="mask-4">
          <use xlink:href="#path-3"></use>
        </mask>
        <g id="Clip-5"></g>
        <path
          d="M14.7646,6.9726 C14.7646,3.1216 11.4596,-0.0004 7.3826,-0.0004 C3.3056,-0.0004 -0.0004,3.1216 -0.0004,6.9726"
          id="Stroke-4" mask="url(#mask-4)" stroke="#000000" stroke-linecap="round"
          stroke-linejoin="round" stroke-width="2"></path>
      </g>
    </g>
  </g>
</svg>