<?xml version="1.0" encoding="UTF-8"?>
<svg height="24px" version="1.1" viewBox="0 0 24 24" width="24px" xmlns="http://www.w3.org/2000/svg"
>
  <!-- Generator: Sketch 49.2 (51160) - http://www.bohemiancoding.com/sketch -->
  <title>客服2</title>
  <desc>Created with Sketch.</desc>
  <defs></defs>
  <g fill="none" fill-rule="evenodd" id="首页" stroke="none" stroke-width="1">
    <g fill="#000000" id="PC首页" transform="translate(-880.000000, -5236.000000)">
      <g id="Group-4" transform="translate(0.000000, 5206.000000)">
        <g id="客服">
          <g id="Group-6" transform="translate(736.000000, 30.000000)">
            <g id="客服2" transform="translate(144.000000, 0.000000)">
              <g id="Fill-1" transform="translate(2.000000, 2.000000)">
                <path
                  d="M18.4134211,6.18943973 C17.688985,2.69979626 14.1100752,0.0119864177 9.99590226,0.0119864177 C5.76804511,0.0119864177 2.11714286,2.62458404 1.57834586,6.18943973 C0.518834586,6.41531409 0,6.94943973 0,7.61490662 L0,11.4165025 C0,12.2470968 0.685338346,12.8420034 1.57834586,12.8420034 C2.30793233,12.8420034 2.86067669,12.7032598 3.15657895,12.3667572 C3.87172932,14.1079117 5.34481203,15.3988795 5.78714286,15.693073 C6.33575188,16.0582343 7.46093985,16.2378268 7.36533835,16.1683531 C6.8012782,15.7571477 5.75218045,14.4373854 5.26093985,12.3667572 C5.01379699,11.3231239 5.43924812,10.140781 6.31315789,9.99089983 C7.71631579,9.75056027 9.42552632,10.1467572 10.5220677,9.51565365 C11.3918421,9.01544992 11.8033459,8.42651952 12.1002632,8.0901528 C12.2328947,7.93976231 12.5076316,7.50546689 12.6264286,7.13979626 C12.7281955,6.89840407 13.1411654,7.12628183 13.1524436,7.13979626 C13.1524436,7.13979626 14.9948496,7.68601019 15.2568421,10.9412564 C15.437782,13.1751783 13.5121053,15.8462818 13.1524436,16.1683531 C13.0979699,16.2166044 13.1288346,16.1733786 13.1524436,16.1683531 C15.2609398,15.7075382 16.4354887,13.6049236 16.835188,11.8916129 C17.1068797,12.1951104 17.2935338,12.7379966 17.887406,12.8420034 C17.2898496,15.5409508 14.1764662,17.6192869 11.5740977,18.0690662 C11.1971429,17.4114431 11.0018045,17.1187097 9.99590226,17.1187097 C8.89537594,17.1187097 8.4175188,17.8486248 8.4175188,18.5441766 C8.4175188,19.1985059 8.90609023,19.9660781 9.98458647,19.9660781 C11.0069549,19.9660781 11.4807143,19.6468251 11.5740977,19.0193209 C16.1004887,17.9275382 17.6700376,16.3747368 18.9395865,12.8420034 C19.8149624,12.6275042 19.9917669,12.2201698 19.9917669,11.4163667 L19.9917669,7.61490662 C19.9917669,6.20149406 18.4181203,6.21171477 18.4134211,6.18943973 Z M16.3090226,7.61490662 C15.051391,4.4408489 12.5915038,3.33833616 9.99590226,3.33833616 C7.38075188,3.33833616 4.40703008,4.4686927 3.15657895,7.61490662 C3.1031203,7.55548387 2.69105263,7.19178268 2.63041353,7.13979626 C3.23263158,3.95775891 6.40977444,1.43758913 9.99590226,1.43758913 C13.5645113,1.43758913 16.2134211,3.98003396 16.835188,7.13979626 C16.6137594,7.41354839 16.3090226,7.61490662 16.3090226,7.61490662 Z"></path>
              </g>
            </g>
          </g>
        </g>
      </g>
    </g>
  </g>
</svg>