<?xml version="1.0" encoding="UTF-8"?>
<svg height="19px" version="1.1" viewBox="0 0 20 19" width="20px" xmlns="http://www.w3.org/2000/svg"
>
  <!-- Generator: Sketch 51.2 (57519) - http://www.bohemiancoding.com/sketch -->
  <title>icon/待自提</title>
  <desc>Created with Sketch.</desc>
  <defs></defs>
  <g fill="none" fill-rule="evenodd" id="个人中心" stroke="none" stroke-width="1">
    <g id="icon/待自提" transform="translate(-350.000000, -403.000000)">
      <g transform="translate(348.000000, 401.000000)">
        <g id="Group-6">
          <path
            d="M19.6518938,7 L4.34810617,7 C4.0829038,7 3.86383619,7.20705823 3.8488998,7.47183964 L3.17197672,19.4718396 C3.15642419,19.7475437 3.36731867,19.9836538 3.64302273,19.9992064 C3.6524002,19.9997353 3.66179071,20 3.67118309,20 L20.3288169,20 C20.6049593,20 20.8288169,19.7761424 20.8288169,19.5 C20.8288169,19.4906076 20.8285523,19.4812171 20.8280233,19.4718396 L20.1511002,7.47183964 C20.1361638,7.20705823 19.9170962,7 19.6518938,7 Z M3.93555309,6 L20.0644469,6 C20.5909108,6 21.0272122,6.40818315 21.0622321,6.93348099 L21.9288987,19.933481 C21.9656362,20.4845425 21.5486941,20.9610477 20.9976326,20.9977852 C20.9754903,20.9992613 20.953305,21 20.9311136,21 L3.06888643,21 C2.51660168,21 2.06888643,20.5522847 2.06888643,20 C2.06888643,19.9778086 2.06962511,19.9556233 2.07110127,19.933481 L2.93776793,6.93348099 C2.97278779,6.40818315 3.40908922,6 3.93555309,6 Z"
            fill="#000000" fill-rule="nonzero" id="Rectangle-2"></path>
          <circle cx="7" cy="13" fill="#000000" id="Oval-7" r="1"></circle>
          <circle cx="12" cy="13" fill="#000000" id="Oval-7-Copy" r="1"></circle>
          <circle cx="17" cy="13" fill="#000000" id="Oval-7-Copy-2" r="1"></circle>
          <path
            d="M15.8739825,6 C15.4299397,4.27477279 13.8638394,3 12,3 C10.1361606,3 8.57006028,4.27477279 8.12601749,6 L15.8739825,6 Z"
            id="Oval-8" stroke="#000000" stroke-width="2"></path>
        </g>
      </g>
    </g>
  </g>
</svg>