<?xml version="1.0" encoding="UTF-8"?>
<svg width="60px" height="60px" viewBox="0 0 60 60" version="1.1" xmlns="http://www.w3.org/2000/svg" xmlns:xlink="http://www.w3.org/1999/xlink">
    <!-- Generator: Sketch 52.5 (67469) - http://www.bohemiancoding.com/sketch -->
    <title>95折会员权益@1x</title>
    <desc>Created with Sketch.</desc>
    <defs>
        <polygon id="path-1" points="0 0.584 23 0.584 23 12.5839 0 12.5839"></polygon>
    </defs>
    <g id="Page-1" stroke="none" stroke-width="1" fill="none" fill-rule="evenodd">
        <g id="95折会员权益" transform="translate(-1300.000000, -473.000000)">
            <g id="Group" transform="translate(1300.000000, 473.000000)">
                <g id="Group-33" transform="translate(16.000000, 0.000000)">
                    <path d="M28,11 L5,11 L7,46 L26,46 L28,11 Z M25.883,13 L24.111,44 L8.889,44 L7.117,13 L25.883,13 Z" id="Fill-1" fill="#000000"></path>
                    <g id="Group-32" transform="translate(0.000000, 0.416100)">
                        <path d="M26.9385,11.639 L26.8805,12.638 L27.8785,12.695 L27.9365,11.696 L26.9385,11.639 Z M26.8245,13.636 L26.7665,14.634 L27.7655,14.691 L27.8225,13.693 L26.8245,13.636 Z M26.7095,15.633 L26.6525,16.631 L27.6515,16.688 L27.7085,15.69 L26.7095,15.633 Z M26.5955,17.629 L26.5395,18.628 L27.5375,18.685 L27.5935,17.686 L26.5955,17.629 Z M26.4815,19.626 L26.4245,20.624 L27.4225,20.681 L27.4805,19.683 L26.4815,19.626 Z M26.3675,21.623 L26.3105,22.621 L27.3085,22.678 L27.3665,21.68 L26.3675,21.623 Z M26.2535,23.619 L26.1965,24.618 L27.1945,24.675 L27.2515,23.677 L26.2535,23.619 Z M26.1395,25.616 L26.0825,26.615 L27.0815,26.672 L27.1375,25.674 L26.1395,25.616 Z M26.0255,27.613 L25.9675,28.611 L26.9665,28.669 L27.0235,27.67 L26.0255,27.613 Z M25.9115,29.61 L25.8545,30.608 L26.8525,30.665 L26.9095,29.667 L25.9115,29.61 Z M25.7965,31.606 L25.7405,32.605 L26.7385,32.662 L26.7685,32.136 L26.7685,32.135 L26.7695,32.124 L26.7695,32.123 L26.7695,32.121 L26.7695,32.12 L26.7695,32.112 L26.7695,32.111 L26.7695,32.11 C26.7695,32.109 26.7695,32.108 26.7705,32.107 L26.7705,32.105 L26.7705,32.103 L26.7705,32.099 L26.7705,32.098 L26.7705,32.097 L26.7705,32.095 L26.7715,32.092 L26.7715,32.091 L26.7715,32.09 L26.7715,32.088 L26.7715,32.086 L26.7715,32.084 L26.7715,32.083 L26.7715,32.077 L26.7715,32.076 L26.7725,32.068 L26.7725,32.067 L26.7725,32.066 L26.7725,32.065 L26.7725,32.063 L26.7725,32.058 C26.7735,32.055 26.7735,32.051 26.7735,32.047 L26.7735,32.042 L26.7735,32.041 C26.7735,32.04 26.7745,32.04 26.7745,32.039 L26.7745,32.038 L26.7745,32.036 L26.7745,32.035 L26.7745,32.025 L26.7755,32.022 L26.7755,32.021 L26.7755,32.018 L26.7755,32.014 L26.7755,32.013 L26.7755,32.009 L26.7755,32.007 C26.7755,32.006 26.7765,32.005 26.7765,32.004 L26.7765,32 L26.7765,31.997 L26.7765,31.995 L26.7765,31.992 L26.7775,31.987 L26.7775,31.985 L26.7775,31.984 L26.7775,31.983 L26.7775,31.981 L26.7775,31.975 L26.7775,31.974 L26.7775,31.973 C26.7775,31.972 26.7785,31.971 26.7785,31.969 C26.7785,31.958 26.7795,31.947 26.7805,31.937 L26.7805,31.935 C26.7805,31.93 26.7805,31.923 26.7815,31.916 L26.7815,31.915 L26.7815,31.913 L26.7815,31.911 L26.7815,31.91 L26.7815,31.908 L26.7815,31.907 L26.7815,31.906 L26.7815,31.905 C26.7815,31.903 26.7825,31.902 26.7825,31.9 L26.7825,31.898 L26.7825,31.894 C26.7825,31.889 26.7835,31.883 26.7835,31.876 L26.7835,31.875 C26.7835,31.872 26.7835,31.869 26.7845,31.866 L26.7845,31.865 L26.7845,31.861 L26.7845,31.86 L26.7845,31.856 L26.7845,31.855 C26.7855,31.849 26.7855,31.844 26.7855,31.838 C26.7865,31.832 26.7865,31.826 26.7865,31.82 L26.7865,31.819 C26.7865,31.818 26.7875,31.818 26.7875,31.818 L26.7875,31.817 C26.7885,31.795 26.7895,31.774 26.7905,31.756 C26.7915,31.737 26.7925,31.721 26.7925,31.707 C26.7945,31.68 26.7945,31.664 26.7945,31.664 L25.7965,31.606 Z M25.6825,33.603 L25.6265,34.601 L26.6245,34.659 L26.6815,33.66 L25.6825,33.603 Z M25.5685,35.6 L25.5115,36.598 L26.5095,36.655 L26.5675,35.657 L25.5685,35.6 Z M25.4555,37.597 L25.3975,38.596 L26.3965,38.652 L26.4535,37.654 L25.4555,37.597 Z M25.3405,39.594 L25.2835,40.592 L26.2825,40.649 L26.3385,39.65 L25.3405,39.594 Z M25.2265,41.591 L25.1695,42.589 L26.1675,42.645 L26.2245,41.647 L25.2265,41.591 Z M25.1125,43.587 L25.0555,44.584 L24.9435,44.584 L24.9435,45.584 L25.9435,45.584 L25.9435,44.637 L26.0535,44.642 L26.1115,43.644 L25.1125,43.587 Z M22.9435,45.584 L23.9435,45.584 L23.9435,44.584 L22.9435,44.584 L22.9435,45.584 Z M20.9435,45.584 L21.9435,45.584 L21.9435,44.584 L20.9435,44.584 L20.9435,45.584 Z M18.9435,45.584 L19.9435,45.584 L19.9435,44.584 L18.9435,44.584 L18.9435,45.584 Z M16.9435,45.584 L17.9435,45.584 L17.9435,44.584 L16.9435,44.584 L16.9435,45.584 Z M14.9435,45.584 L15.9435,45.584 L15.9435,44.584 L14.9435,44.584 L14.9435,45.584 Z M12.9435,45.584 L13.9435,45.584 L13.9435,44.584 L12.9435,44.584 L12.9435,45.584 Z M10.9435,45.584 L11.9435,45.584 L11.9435,44.584 L10.9435,44.584 L10.9435,45.584 Z M8.9435,45.584 L9.9435,45.584 L9.9435,44.584 L8.9435,44.584 L8.9435,45.584 Z M7.9435,44.584 L7.0005,44.584 L7.0005,45.526 L7.0005,44.584 L7.0005,45.526 L6.9975,45.527 L7.0005,45.581 L7.0005,45.582 L7.0005,45.583 L7.0005,45.584 L7.9435,45.584 L7.9435,45.53 L7.9985,45.527 L7.9955,45.47 L7.9435,45.472 L7.9435,44.584 Z M7.8805,43.473 L6.8825,43.53 L6.9395,44.528 L7.9385,44.472 L7.8805,43.473 Z M7.7665,41.476 L6.7685,41.533 L6.8255,42.532 L7.8245,42.474 L7.7665,41.476 Z M7.6525,39.479 L6.6545,39.537 L6.7115,40.535 L7.7095,40.478 L7.6525,39.479 Z M7.5395,37.483 L6.5405,37.54 L6.5975,38.538 L7.5955,38.481 L7.5395,37.483 Z M7.4245,35.486 L6.4255,35.543 L6.4835,36.542 L7.4815,36.484 L7.4245,35.486 Z M7.3105,33.489 L6.3125,33.547 C6.3125,33.547 6.3265,33.796 6.3405,34.046 L6.3695,34.545 L7.3675,34.488 L7.3105,33.489 Z M7.1965,31.493 L6.1985,31.55 L6.2545,32.548 L7.2535,32.491 L7.1965,31.493 Z M7.0825,29.496 L6.0845,29.553 L6.1405,30.552 L7.1395,30.494 L7.0825,29.496 Z M6.9675,27.499 L5.9695,27.556 L6.0275,28.555 L7.0255,28.498 L6.9675,27.499 Z M6.8545,25.502 L5.8555,25.559 L5.9135,26.557 L6.9115,26.501 L6.8545,25.502 Z M6.7405,23.506 L5.7415,23.563 L5.7985,24.561 L6.7965,24.504 L6.7405,23.506 Z M6.6265,21.509 L5.6275,21.566 L5.6845,22.564 L6.6825,22.507 L6.6265,21.509 Z M6.5115,19.512 L5.5135,19.569 L5.5705,20.568 L6.5685,20.511 L6.5115,19.512 Z M6.3975,17.515 L5.3995,17.573 L5.4565,18.571 L6.4555,18.514 L6.3975,17.515 Z M6.2835,15.518 L5.2855,15.576 L5.3415,16.574 L6.3405,16.517 L6.2835,15.518 Z M6.1695,13.522 L5.1705,13.579 L5.2285,14.577 L6.2265,14.52 L6.1695,13.522 Z M6.0005,10.584 L5.0005,10.584 L5.0565,11.584 C5.0595,11.629 5.1145,12.58 5.1145,12.58 L6.1125,12.523 L6.0555,11.525 L6.0005,11.528 L6.0005,10.584 Z M7.0005,11.584 L8.0005,11.584 L8.0005,10.584 L7.0005,10.584 L7.0005,11.584 Z M9.0005,11.584 L10.0005,11.584 L10.0005,10.584 L9.0005,10.584 L9.0005,11.584 Z M11.0005,11.584 L12.0005,11.584 L12.0005,10.584 L11.0005,10.584 L11.0005,11.584 Z M13.0005,11.584 L14.0005,11.584 L14.0005,10.584 L13.0005,10.584 L13.0005,11.584 Z M15.0005,11.584 L16.0005,11.584 L16.0005,10.584 L15.0005,10.584 L15.0005,11.584 Z M17.0005,11.584 L18.0005,11.584 L18.0005,10.584 L17.0005,10.584 L17.0005,11.584 Z M19.0005,11.584 L20.0005,11.584 L20.0005,10.584 L19.0005,10.584 L19.0005,11.584 Z M21.0005,11.584 L22.0005,11.584 L22.0005,10.584 L21.0005,10.584 L21.0005,11.584 Z M23.0005,11.584 L24.0005,11.584 L24.0005,10.584 L23.0005,10.584 L23.0005,11.584 Z M25.0005,11.584 L26.0005,11.584 L26.0005,10.584 L25.0005,10.584 L25.0005,11.584 Z M28.0005,10.584 L26.9985,10.584 L26.9955,10.641 L27.0005,10.641 L27.0005,11.584 L27.9435,11.584 L28.0005,10.584 Z" id="Fill-2" fill="#000000"></path>
                        <g id="Group-6" transform="translate(5.000000, 0.000000)">
                            <mask id="mask-2" fill="white">
                                <use xlink:href="#path-1"></use>
                            </mask>
                            <g id="Clip-5"></g>
                            <path d="M12,0.5839 L0,10.5839 L4,12.5839 L22,12.5839 L23,10.5839 L12,0.5839 Z M12,4.1889 L20,10.5839 L3,10.5839 L12,4.1889 Z" id="Fill-4" fill="#000000" mask="url(#mask-2)"></path>
                        </g>
                        <path d="M16.5,18.5839 C14.291,18.5839 12.5,20.3749 12.5,22.5839 C12.5,24.7929 14.291,26.5839 16.5,26.5839 C18.709,26.5839 20.5,24.7929 20.5,22.5839 C20.5,20.3749 18.709,18.5839 16.5,18.5839 M16.5,20.5839 C17.603,20.5839 18.5,21.4809 18.5,22.5839 C18.5,23.6869 17.603,24.5839 16.5,24.5839 C15.397,24.5839 14.5,23.6869 14.5,22.5839 C14.5,21.4809 15.397,20.5839 16.5,20.5839" id="Fill-7" fill="#000000"></path>
                        <path d="M25,29.5839 L24,43.5839 L33,45.5839 L32,31.5839 L25,29.5839 Z M26.819,32.1839 L30.104,33.1219 L30.813,43.0499 L26.118,42.0059 L26.819,32.1839 Z" id="Fill-9" fill="#000000"></path>
                        <path d="M8,29.5839 L1,31.5839 L0,45.5839 L9,43.5839 L8,29.5839 Z M6.181,32.1839 L6.882,42.0059 L2.187,43.0499 L2.896,33.1219 L6.181,32.1839 Z" id="Fill-11" fill="#000000"></path>
                        <path d="M21.8086,43.5839 L12.1916,43.5839 L11.8606,47.5019 C11.2326,50.1119 11.6436,51.2919 12.9996,53.5839 L16.9996,57.9999 L20.9996,53.5839 C22.3566,51.2919 22.7676,50.1119 22.1396,47.5019 L21.8086,43.5839 Z M19.9706,45.5839 L20.1466,47.6699 L20.1596,47.8209 L20.1956,47.9689 C20.6546,49.8779 20.4566,50.5569 19.3806,52.3929 L16.9996,55.0209 L14.6196,52.3929 C13.5426,50.5569 13.3456,49.8789 13.8046,47.9689 L13.8406,47.8209 L13.8536,47.6699 L14.0296,45.5839 L19.9706,45.5839 Z" id="Fill-13" fill="#000000"></path>
                        <polygon id="Fill-15" fill="#000000" points="8 15.584 9 15.584 9 14.584 8 14.584"></polygon>
                        <polygon id="Fill-17" fill="#000000" points="10 15.584 11 15.584 11 14.584 10 14.584"></polygon>
                        <polygon id="Fill-18" fill="#000000" points="12 15.584 13 15.584 13 14.584 12 14.584"></polygon>
                        <polygon id="Fill-19" fill="#000000" points="14 15.584 15 15.584 15 14.584 14 14.584"></polygon>
                        <polygon id="Fill-20" fill="#000000" points="16 15.584 17 15.584 17 14.584 16 14.584"></polygon>
                        <polygon id="Fill-21" fill="#000000" points="18 15.584 19 15.584 19 14.584 18 14.584"></polygon>
                        <polygon id="Fill-22" fill="#000000" points="20 15.584 21 15.584 21 14.584 20 14.584"></polygon>
                        <polygon id="Fill-23" fill="#000000" points="22 15.584 23 15.584 23 14.584 22 14.584"></polygon>
                        <polygon id="Fill-24" fill="#000000" points="24 15.584 25 15.584 25 14.584 24 14.584"></polygon>
                        <polygon id="Fill-25" fill="#000000" points="10 41.584 11 41.584 11 40.584 10 40.584"></polygon>
                        <polygon id="Fill-26" fill="#000000" points="12 41.584 13 41.584 13 40.584 12 40.584"></polygon>
                        <polygon id="Fill-27" fill="#000000" points="14 41.584 15 41.584 15 40.584 14 40.584"></polygon>
                        <polygon id="Fill-28" fill="#000000" points="16 41.584 17 41.584 17 40.584 16 40.584"></polygon>
                        <polygon id="Fill-29" fill="#000000" points="18 41.584 19 41.584 19 40.584 18 40.584"></polygon>
                        <polygon id="Fill-30" fill="#000000" points="20 41.584 21 41.584 21 40.584 20 40.584"></polygon>
                        <polygon id="Fill-31" fill="#000000" points="22 41.584 23 41.584 23 40.584 22 40.584"></polygon>
                    </g>
                </g>
                <polygon id="Fill-8" fill="#000000" points="7.87648033 36.8515197 9.728 37.864 7.87648033 38.8764803 6.864 40.728 5.85151967 38.8764803 4 37.864 5.85151967 36.8515197 6.864 35"></polygon>
                <polygon id="Fill-8-Copy" fill="#000000" points="54.8764803 51.1235197 56.728 52.136 54.8764803 53.1484803 53.864 55 52.8515197 53.1484803 51 52.136 52.8515197 51.1235197 53.864 49.272"></polygon>
                <polygon id="Stroke-11" stroke="#000000" points="12.4687936 52.0892064 15.558 53.779 12.4687936 55.4687936 10.779 58.558 9.08920636 55.4687936 6 53.779 9.08920636 52.0892064 10.779 49"></polygon>
            </g>
        </g>
    </g>
</svg>