<?xml version="1.0" encoding="UTF-8"?>
<svg width="30px" height="30px" viewBox="0 0 30 30" version="1.1" xmlns="http://www.w3.org/2000/svg" xmlns:xlink="http://www.w3.org/1999/xlink">
    <!-- Generator: Sketch 52.5 (67469) - http://www.bohemiancoding.com/sketch -->
    <title>voice/on</title>
    <desc>Created with Sketch.</desc>
    <g id="Page-1" stroke="none" stroke-width="1" fill="none" fill-rule="evenodd">
        <g id="首页_太阳码" transform="translate(-291.000000, -2151.000000)">
            <g id="voice/on" transform="translate(291.000000, 2151.000000)">
                <g id="Group-10">
                    <path d="M30,15 C30,23.284 23.284,30 15,30 C6.716,30 0,23.284 0,15 C0,6.716 6.716,0 15,0 C23.284,0 30,6.716 30,15" id="Fill-1" fill="#000000" opacity="0.5"></path>
                    <path d="M20.1357,9.3984 L19.7027,10.3184 C21.6197,11.0184 22.9997,12.8434 22.9997,15.0004 C22.9997,17.1564 21.6197,18.9814 19.7027,19.6814 L20.1357,20.6014 C22.3937,19.7394 23.9997,17.5604 23.9997,15.0004 C23.9997,12.4404 22.3937,10.2604 20.1357,9.3984" id="Fill-3" fill="#FFFFFF"></path>
                    <path d="M20,15 C20,15.958 19.321,16.76 18.419,16.954 L18.848,17.864 C20.089,17.496 21,16.36 21,15 C21,13.64 20.089,12.504 18.848,12.136 L18.419,13.046 C19.321,13.24 20,14.042 20,15" id="Fill-5" fill="#FFFFFF"></path>
                    <path d="M10,12 L7,12 C6.448,12 6,12.448 6,13 L6,17 C6,17.552 6.448,18 7,18 L10,18 L14.36,21.633 C15.011,22.176 16,21.713 16,20.865 L16,9.135 C16,8.287 15.011,7.824 14.36,8.367 L10,12 Z" id="Fill-7" fill="#FFFFFF"></path>
                </g>
            </g>
        </g>
    </g>
</svg>