<?xml version="1.0" encoding="UTF-8"?>
<svg height="21px" version="1.1" viewBox="0 0 24 21" width="24px" xmlns="http://www.w3.org/2000/svg"
>
  <!-- Generator: Sketch 49.2 (51160) - http://www.bohemiancoding.com/sketch -->
  <title>icon/weibo/black</title>
  <desc>Created with Sketch.</desc>
  <defs></defs>
  <g fill="none" fill-rule="evenodd" id="登录" stroke="none" stroke-width="1">
    <g fill="#000000" id="手机快速登录/注册" transform="translate(-866.000000, -562.000000)">
      <g id="icon/weibo/black" transform="translate(866.000000, 560.000000)">
        <g id="icon/微博">
          <path
            d="M22.4407348,4.221837 C20.9421544,2.3565797 18.6942989,1.66582148 16.6962922,2.14929554 C16.1967755,2.28754057 15.9470171,2.77101462 16.009419,3.32366121 C16.134253,3.87630781 16.5713678,4.15266446 17.0708846,4.08359197 C18.5070631,3.73822954 20.1304473,4.221837 21.1919128,5.53428095 C22.2533784,6.84689165 22.5656894,8.64294306 22.0661425,10.2318771 C22.00362,10.5082004 22.00362,10.7153511 22.1285745,10.9916744 C22.2533784,11.1989586 22.4407348,11.4062427 22.6280913,11.4752819 C23.0652061,11.6133935 23.5646023,11.3372036 23.7519587,10.8535961 C24.3139075,8.57390393 23.9393152,6.0869609 22.4407348,4.221837 Z"
            id="Fill-1"></path>
          <path
            d="M19.2214465,10.6181997 C19.6070803,10.7484029 20.0571157,10.5531139 20.1856396,10.0971984 C20.507027,9.05516432 20.3142877,7.94804437 19.5428339,7.10145652 C18.7714111,6.25483723 17.67857,5.92912494 16.6499753,6.1245083 C16.1999399,6.1896256 15.9427989,6.64554106 16.071416,7.03633922 C16.1356934,7.49212891 16.5857288,7.75266101 16.9713626,7.62245784 C17.4856755,7.49212891 17.9999573,7.68754371 18.3856221,8.07824753 C18.7714111,8.46907713 18.8356575,9.05516432 18.7071336,9.57619708 C18.5785166,10.0321125 18.8356575,10.488028 19.2214465,10.6181997 Z M17.67857,12.1161493 C17.3571516,11.9858203 17.1000107,11.9207345 17.292781,11.5299049 C17.67857,10.5531139 17.67857,9.70649458 17.292781,9.12028162 C16.5213272,8.01316167 14.3999224,8.07824753 12.0213456,9.12028162 C12.0213456,9.12028162 11.2499229,9.44586815 11.4428174,8.85978096 C11.8285753,7.62245784 11.7642047,6.64554106 11.1856454,6.05942243 C9.89994084,4.75688769 6.42852293,6.1245083 3.4714179,9.12028162 C1.28573562,11.3997332 0,13.7441448 0,15.828213 C0,19.8008716 5.01429444,22.2105263 9.89994084,22.2105263 C16.3285879,22.2105263 20.5714286,18.433251 20.5714286,15.4375091 C20.5714286,13.6139731 19.028552,12.571939 17.67857,12.1161493 Z M9.89994084,20.7778198 C5.97861168,21.1684922 2.63571768,19.3449562 2.37857676,16.8051297 C2.12143585,14.2000602 5.07854088,11.790437 8.99999418,11.3997332 C12.9214164,11.0089036 16.2641863,12.8324396 16.5213272,15.3723918 C16.7784992,17.9773355 13.8213631,20.3869902 9.89994084,20.7778198 Z"
            id="Fill-3"></path>
          <path
            d="M11.1568295,12.8519166 C9.16005244,12.2883597 6.88782341,13.3450415 6.06156738,15.1060418 C5.16646499,16.93744 6.06156738,18.9802357 8.05834448,19.6141564 C10.1239679,20.3186449 12.6027693,19.2619971 13.4290586,17.2896333 C14.2553146,15.3878033 13.222453,13.4154394 11.1568295,12.8519166 Z M9.64194371,17.5713947 C9.22886555,18.2054854 8.40260952,18.5576446 7.71411269,18.2054854 C7.09442898,17.9236899 6.88782341,17.1488036 7.30090157,16.5148829 C7.71411269,15.8807922 8.54036872,15.5991668 9.16005244,15.8807922 C9.84854927,16.0921558 10.0551548,16.8670422 9.64194371,17.5713947 Z"
            id="Fill-4"></path>
        </g>
      </g>
    </g>
  </g>
</svg>