<?xml version="1.0" encoding="UTF-8"?>
<svg width="130px" height="25px" viewBox="0 0 130 25" version="1.1" xmlns="http://www.w3.org/2000/svg" xmlns:xlink="http://www.w3.org/1999/xlink">
    <!-- Generator: Sketch 52.5 (67469) - http://www.bohemiancoding.com/sketch -->
    <title>COMMON GENDER</title>
    <desc>Created with Sketch.</desc>
    <g id="Page-1" stroke="none" stroke-width="1" fill="none" fill-rule="evenodd">
        <g id="我的购物袋" transform="translate(-589.000000, -562.000000)" fill="#000000">
            <g id="Group-4-Copy" transform="translate(589.000000, 562.000000)">
                <g id="Group-3" transform="translate(1.000000, 8.000000)">
                    <path d="M12.9476539,6.83942726 C13.0482959,7.25720222 13.2087522,7.63305411 13.4285944,7.96596398 C13.6490076,8.30018394 13.9365155,8.56729789 14.2909753,8.76861593 C14.6451496,8.9702251 15.075555,9.07066577 15.5836188,9.07066577 C16.0908262,9.07066577 16.5216598,8.9702251 16.8758341,8.76861593 C17.2304367,8.56729789 17.5176591,8.30018394 17.7383578,7.96596398 C17.9584855,7.63305411 18.118799,7.25720222 18.2195838,6.83942726 C18.3195121,6.42267127 18.3697617,5.99325102 18.3697617,5.55145765 C18.3697617,5.09001284 18.3195121,4.64341578 18.2195838,4.2115209 C18.118799,3.77948046 17.9584855,3.39431233 17.7383578,3.05543425 C17.5176591,2.71670173 17.2304367,2.44682203 16.8758341,2.24579512 C16.5216598,2.04462265 16.0908262,1.94403642 15.5836188,1.94403642 C15.075555,1.94403642 14.6451496,2.04462265 14.2909753,2.24579512 C13.9365155,2.44682203 13.6490076,2.71670173 13.4285944,3.05543425 C13.2087522,3.39431233 13.0482959,3.77948046 12.9476539,4.2115209 C12.8472973,4.64341578 12.7970477,5.09001284 12.7970477,5.55145765 C12.7970477,5.99325102 12.8472973,6.42267127 12.9476539,6.83942726 M10.8864192,3.36461683 C11.116397,2.69253775 11.446874,2.10590602 11.8777076,1.60544947 C12.3082557,1.10441066 12.8374473,0.711964217 13.464854,0.427091191 C14.0919753,0.142509296 14.7980399,0 15.5836188,0 C16.3783341,0 17.0866828,0.142509296 17.7090931,0.427091191 C18.3316462,0.711964217 18.858411,1.10441066 19.2895301,1.60544947 C19.7203637,2.10590602 20.0508407,2.69253775 20.2803902,3.36461683 C20.5102252,4.03727818 20.625,4.76656477 20.625,5.55145765 C20.625,6.31728135 20.5102252,7.03113793 20.2803902,7.69404634 C20.0508407,8.35666362 19.7203637,8.93339685 19.2895301,9.42366377 C18.858411,9.91480408 18.3316462,10.3004089 17.7090931,10.5796049 C17.0866828,10.8601109 16.3783341,11 15.5836188,11 C14.7980399,11 14.0919753,10.8601109 13.464854,10.5796049 C12.8374473,10.3004089 12.3082557,9.91480408 11.8777076,9.42366377 C11.446874,8.93339685 11.116397,8.35666362 10.8864192,7.69404634 C10.6568697,7.03113793 10.5416667,6.31728135 10.5416667,5.55145765 C10.5416667,4.76656477 10.6568697,4.03727818 10.8864192,3.36461683" id="Fill-1"></path>
                    <polygon id="Fill-3" points="24.7026401 0.458333333 27.0919232 7.70722515 27.1204991 7.70722515 29.380551 0.458333333 32.5416667 0.458333333 32.5416667 11 30.4392795 11 30.4392795 3.52926439 30.4104193 3.52926439 27.9074015 11 26.1763584 11 23.6726297 3.60296907 23.6444803 3.60296907 23.6444803 11 21.5416667 11 21.5416667 0.458333333"></polygon>
                    <polygon id="Fill-5" points="37.0776189 0.458333333 39.4666363 7.70722515 39.4950685 7.70722515 41.755288 0.458333333 44.9166667 0.458333333 44.9166667 11 42.8139617 11 42.8139617 3.52926439 42.7852452 3.52926439 40.2822146 11 38.5512609 11 36.0482303 3.60296907 36.0193716 3.60296907 36.0193716 11 33.9166667 11 33.9166667 0.458333333"></polygon>
                    <path d="M48.2394292,6.83942726 C48.3399271,7.25720222 48.5000956,7.63305411 48.7200774,7.96596398 C48.9404875,8.30018394 49.2278486,8.56729789 49.5824461,8.76861593 C49.9364727,8.9702251 50.3671575,9.07066577 50.8750714,9.07066577 C51.3822715,9.07066577 51.8133845,8.9702251 52.1675539,8.76861593 C52.5217232,8.56729789 52.8090843,8.30018394 53.0294943,7.96596398 C53.2497617,7.63305411 53.4103584,7.25720222 53.510999,6.83942726 C53.6112114,6.42267127 53.6614603,5.99325102 53.6614603,5.55145765 C53.6614603,5.09001284 53.6112114,4.64341578 53.510999,4.2115209 C53.4103584,3.77948046 53.2497617,3.39431233 53.0294943,3.05543425 C52.8090843,2.71670173 52.5217232,2.44682203 52.1675539,2.24579512 C51.8133845,2.04462265 51.3822715,1.94403642 50.8750714,1.94403642 C50.3671575,1.94403642 49.9364727,2.04462265 49.5824461,2.24579512 C49.2278486,2.44682203 48.9404875,2.71670173 48.7200774,3.05543425 C48.5000956,3.39431233 48.3399271,3.77948046 48.2394292,4.2115209 C48.1383604,4.64341578 48.0885397,5.09001284 48.0885397,5.55145765 C48.0885397,5.99325102 48.1383604,6.42267127 48.2394292,6.83942726 M46.1779382,3.36461683 C46.40777,2.69253775 46.7383851,2.10590602 47.1690699,1.60544947 C47.5997546,1.10441066 48.1289387,0.711964217 48.7563366,0.427091191 C49.3827352,0.142509296 50.0893608,0 50.8750714,0 C51.6697754,0 52.3783995,0.142509296 53.0005156,0.427091191 C53.6229171,0.711964217 54.1498171,1.10441066 54.5806446,1.60544947 C55.0117576,2.10590602 55.3420873,2.69253775 55.5716335,3.36461683 C55.8017508,4.03727818 55.9166667,4.76656477 55.9166667,5.55145765 C55.9166667,6.31728135 55.8017508,7.03113793 55.5716335,7.69404634 C55.3420873,8.35666362 55.0117576,8.93339685 54.5806446,9.42366377 C54.1498171,9.91480408 53.6229171,10.3004089 53.0005156,10.5796049 C52.3783995,10.8601109 51.6697754,11 50.8750714,11 C50.0893608,11 49.3827352,10.8601109 48.7563366,10.5796049 C48.1289387,10.3004089 47.5997546,9.91480408 47.1690699,9.42366377 C46.7383851,8.93339685 46.40777,8.35666362 46.1779382,7.69404634 C45.9485347,7.03113793 45.8333333,6.31728135 45.8333333,5.55145765 C45.8333333,4.76656477 45.9485347,4.03727818 46.1779382,3.36461683" id="Fill-7"></path>
                    <polygon id="Fill-9" points="59.0865204 0.458333333 63.3896642 7.53062582 63.4190867 7.53062582 63.4190867 0.458333333 65.5416667 0.458333333 65.5416667 11 63.2745578 11 58.9850488 3.9425944 58.956631 3.9425944 58.956631 11 56.8333333 11 56.8333333 0.458333333"></polygon>
                    <polygon id="Fill-11" points="89.2602675 0.458333333 89.2602675 2.4070559 83.8402634 2.4070559 83.8402634 4.66635977 88.8151968 4.66635977 88.8151968 6.46781892 83.8402634 6.46781892 83.8402634 9.05127744 89.375 9.05127744 89.375 11 81.5833333 11 81.5833333 0.458333333"></polygon>
                    <polygon id="Fill-13" points="93.0031499 0.458333333 97.3062228 7.53062582 97.3352142 7.53062582 97.3352142 0.458333333 99.4583333 0.458333333 99.4583333 11 97.1908312 11 92.901967 3.9425944 92.8728321 3.9425944 92.8728321 11 90.75 11 90.75 0.458333333"></polygon>
                    <path d="M104.925532,9.05127744 C105.23762,9.05127744 105.540944,8.99727599 105.834682,8.88883524 C106.128557,8.78039449 106.390387,8.60043831 106.620721,8.3495505 C106.84996,8.09910053 107.033187,7.77217284 107.171634,7.36818362 C107.309122,6.9647782 107.37814,6.47234337 107.37814,5.89146291 C107.37814,5.36005946 107.330074,4.88032227 107.233668,4.45195942 C107.136851,4.02418037 106.978821,3.65726242 106.757936,3.35222721 C106.537461,3.04748389 106.245778,2.81323436 105.883296,2.65064622 C105.520129,2.48849592 105.072059,2.4070559 104.539907,2.4070559 L102.996586,2.4070559 L102.996586,9.05127744 L104.925532,9.05127744 Z M105.076852,0.458333333 C105.711024,0.458333333 106.301376,0.567065981 106.847495,0.783363677 C107.393889,0.999661373 107.867567,1.32483767 108.266612,1.75772496 C108.666753,2.1907582 108.979251,2.73208624 109.20356,3.38185503 C109.429101,4.03133192 109.541667,4.79450375 109.541667,5.67020292 C109.541667,6.4378992 109.449643,7.14663173 109.265868,7.79610862 C109.082231,8.44573146 108.804241,9.00647083 108.432173,9.47949433 C108.060516,9.95164214 107.59615,10.3230845 107.040308,10.5939675 C106.48515,10.8648504 105.8303,11 105.076852,11 L100.833333,11 L100.833333,0.458333333 L105.076852,0.458333333 Z" id="Fill-15"></path>
                    <polygon id="Fill-17" points="118.593319 0.458333333 118.593319 2.4070559 113.173514 2.4070559 113.173514 4.66635977 118.148265 4.66635977 118.148265 6.46781892 113.173514 6.46781892 113.173514 9.05127744 118.708333 9.05127744 118.708333 11 110.916667 11 110.916667 0.458333333"></polygon>
                    <path d="M76.311615,5.08015934 L76.311615,6.80304915 L78.605243,6.80304915 C78.5375048,7.53980837 78.2981248,8.10173103 77.8866724,8.48910828 C77.4750765,8.87721341 76.8924129,9.0711204 76.1372465,9.0711204 C75.6243303,9.0711204 75.1887677,8.97052751 74.8308458,8.76890501 C74.4726368,8.56801038 74.1818791,8.30044202 73.9595771,7.96678225 C73.7368446,7.63297689 73.5751052,7.25739128 73.4736414,6.84002541 C73.3718905,6.42280511 73.3207998,5.99321087 73.3207998,5.55153384 C73.3207998,5.09020407 73.3718905,4.64343188 73.4736414,4.21136285 C73.5751052,3.77958498 73.7368446,3.39424578 73.9595771,3.05563643 C74.1818791,2.71659035 74.4726368,2.44698393 74.8308458,2.245507 C75.1887677,2.0444668 75.6243303,1.94358275 76.1372465,1.94358275 C76.6889112,1.94358275 77.1583429,2.09119663 77.5455415,2.38540536 C77.9328837,2.67990524 78.1937907,3.1214367 78.3295542,3.71101877 L80.50708,3.71101877 C80.4488136,3.11197427 80.2890834,2.58193272 80.0278894,2.1203118 C79.7665519,1.65927318 79.4350364,1.2714592 79.0333429,0.957306583 C78.6322235,0.64300839 78.1820226,0.404700776 77.6837447,0.242820465 C77.1847493,0.0807945793 76.6692499,0 76.1372465,0 C75.343762,0 74.6297838,0.142373151 73.9960295,0.426682724 C73.3617011,0.711865753 72.827545,1.10419258 72.3914083,1.6049734 C71.9565633,2.10546306 71.6224646,2.69242476 71.3901167,3.36469389 C71.1580559,4.03725418 71.0416667,4.7661523 71.0416667,5.55153384 C71.0416667,6.31711707 71.1580559,7.03131204 71.3901167,7.69426431 C71.6224646,8.35677986 71.9565633,8.93355126 72.3914083,9.42414176 C72.827545,9.915169 73.3617011,10.3007993 73.9960295,10.5805961 C74.6297838,10.8605384 75.343762,11 76.1372465,11 C76.6406908,11 77.1393992,10.8947487 77.632367,10.683227 C78.1263395,10.4722877 78.5761098,10.1017972 78.9828263,9.57190122 L78.9828263,10.7646039 L79.2151741,10.7646039 L79.9423555,10.7646039 L80.6666667,10.7646039 L80.6666667,5.08015934 L76.311615,5.08015934 Z" id="Fill-19"></path>
                    <path d="M122.297392,2.25964654 L124.722639,2.25964654 C125.230187,2.25964654 125.610883,2.37553073 125.864866,2.60686126 C126.11857,2.83775394 126.245701,3.20963419 126.245701,3.72104251 C126.245701,4.25244596 126.11857,4.636586 125.864866,4.87273287 C125.610883,5.10887975 125.230187,5.22709914 124.722639,5.22709914 L122.297392,5.22709914 L122.297392,2.25964654 Z M128.791667,11 L126.497036,6.57815702 C126.700139,6.50416044 126.916345,6.40637403 127.130042,6.27122446 C127.151788,6.25838087 127.172838,6.24451563 127.194026,6.23065039 C127.202529,6.2251043 127.211172,6.2192663 127.219675,6.21357426 C127.397408,6.09433322 127.561619,5.95509705 127.705896,5.79221701 C127.715653,5.78127077 127.725272,5.77003263 127.73503,5.75908639 C127.745066,5.7468266 127.756218,5.73558846 127.766255,5.72332867 L127.765,5.72332867 C128.111265,5.31525286 128.375424,4.75115664 128.437456,3.97280602 C128.439408,3.95251899 128.440662,3.93179411 128.442335,3.91136113 C128.444287,3.88056571 128.447493,3.85137574 128.449166,3.81970462 L128.445541,3.82174791 C128.451536,3.72118846 128.452929,3.61537481 128.452372,3.50664216 C128.454045,3.45964631 128.459481,3.4151316 128.459481,3.36711409 C128.459481,3.13899446 128.435226,2.92050751 128.391734,2.70975591 C128.390897,2.70318817 128.390061,2.69705827 128.389225,2.69019863 L128.387552,2.69165813 C128.354375,2.53592963 128.312137,2.38384987 128.254706,2.23760811 C128.118374,1.88805819 127.920987,1.58054183 127.662822,1.31447523 C127.403681,1.04913838 127.093799,0.839992224 126.731922,0.687328668 C126.369905,0.534665111 125.96342,0.458333333 125.512468,0.458333333 L120.083333,0.458333333 L120.083333,11 L122.297392,11 L122.297392,6.88071108 L124.166719,6.88071108 C124.166719,6.88071108 124.203242,6.88333818 124.266668,6.88640313 L126.40113,11 L128.791667,11 Z" id="Fill-22"></path>
                    <path d="M7.02052731,7.27627139 C6.90175769,7.72810883 6.71062147,8.11211243 6.44076585,8.42275067 C6.06581293,8.85493668 5.54474576,9.07066577 4.87756434,9.07066577 C4.38660389,9.07066577 3.96966729,8.9702251 3.62703076,8.76861593 C3.28439422,8.56729789 3.00625235,8.30018394 2.79315756,7.96596398 C2.58006277,7.63305411 2.42510986,7.25720222 2.32788449,6.83942726 C2.23038293,6.42267127 2.18149404,5.99325102 2.18149404,5.55145765 C2.18149404,5.09001284 2.23038293,4.64341578 2.32788449,4.2115209 C2.42510986,3.77948046 2.58006277,3.39431233 2.79315756,3.05543425 C3.00625235,2.71670173 3.28439422,2.44682203 3.62703076,2.24579512 C3.96966729,2.04462265 4.38660389,1.94403642 4.87756434,1.94403642 C5.14603892,1.94403642 5.40332706,1.99032647 5.64901444,2.08363439 C5.8941494,2.17694232 6.11483992,2.30722405 6.30873823,2.4740429 C6.50346516,2.64115288 6.6655995,2.83417365 6.79514124,3.05543425 C6.90175769,3.23695528 6.97522913,3.43390633 7.01928437,3.64555957 L9.13697426,3.64555957 C9.06364093,3.09430042 8.91586943,2.59879312 8.68482109,2.16456919 C8.43485248,1.69337145 8.11762712,1.29830482 7.73328311,0.979078169 C7.3486629,0.660433787 6.91322034,0.41719269 6.42709353,0.250228274 C5.94041431,0.0835549909 5.424457,0 4.87756434,0 C4.11785311,0 3.4345135,0.142509296 2.82782172,0.427091191 C2.22112994,0.711964217 1.70931576,1.10441066 1.29265537,1.60544947 C0.875580665,2.10590602 0.555869429,2.69253775 0.333797866,3.36461683 C0.111450094,4.03727818 0,4.76656477 0,5.55145765 C0,6.31728135 0.111450094,7.03113793 0.333797866,7.69404634 C0.555869429,8.35666362 0.875580665,8.93339685 1.29265537,9.42366377 C1.70931576,9.91480408 2.22112994,10.3004089 2.82782172,10.5796049 C3.4345135,10.8601109 4.11785311,11 4.87756434,11 C5.48895166,11 6.04951664,10.9014517 6.55912116,10.705374 C7.06872567,10.5088597 7.51314501,10.2239867 7.89306968,9.85119166 C8.27285625,9.47810552 8.57861896,9.02641365 8.81021971,8.49655273 C8.97359699,8.12201093 9.09112367,7.71398891 9.16666667,7.27627139 L7.02052731,7.27627139 Z" id="Fill-24"></path>
                </g>
            </g>
        </g>
    </g>
</svg>