<?xml version="1.0" encoding="UTF-8"?>
<svg width="75px" height="25px" viewBox="0 0 75 25" version="1.1" xmlns="http://www.w3.org/2000/svg" xmlns:xlink="http://www.w3.org/1999/xlink">
    <!-- Generator: Sketch 52.5 (67469) - http://www.bohemiancoding.com/sketch -->
    <title>EDITION</title>
    <desc>Created with Sketch.</desc>
    <defs>
        <polygon id="path-1" points="0 0.0175444047 8.56072281 0.0175444047 8.56072281 10.0211341 0 10.0211341"></polygon>
        <polygon id="path-3" points="0.00145816396 0.0185327928 11.0817395 0.0185327928 11.0817395 10.0209672 0.00145816396 10.0209672"></polygon>
    </defs>
    <g id="Page-1" stroke="none" stroke-width="1" fill="none" fill-rule="evenodd">
        <g id="我的购物袋" transform="translate(-507.000000, -562.000000)">
            <g id="Group-4" transform="translate(507.000000, 562.000000)">
                <g id="logo/edition" transform="translate(0.000000, 4.000000)">
                    <g id="Group-17">
                        <g id="Group-3" transform="translate(0.000000, 4.805825)">
                            <mask id="mask-2" fill="white">
                                <use xlink:href="#path-1"></use>
                            </mask>
                            <g id="Clip-2"></g>
                            <path d="M7.23870762,4.00163332 C7.20291816,3.76663843 7.20291816,3.58837374 7.15399465,3.3354325 C6.77158771,1.38009167 5.70236086,0.510945529 4.58029392,0.510945529 C2.82002672,0.510945529 2.0881999,2.29775289 1.83547908,4.00427767 L7.23870762,4.00163332 Z M8.56072281,4.46591129 L1.79192398,4.46591129 C1.76268468,4.91227818 1.78790611,5.24250506 1.79584057,5.46092867 C1.84888324,6.79026285 2.15842826,7.62640746 2.5791907,8.21359499 C3.01062245,8.81745958 3.85900135,9.40757353 4.82899687,9.40757353 C6.14422557,9.40757353 7.39091409,8.61158784 7.95199821,7.22012897 L8.46800787,7.22012897 C8.19671705,8.07665273 7.54967071,8.92943914 6.86291834,9.36618058 C6.17339735,9.79174522 5.22318733,10.0211341 4.41201596,10.0211341 C3.6604374,10.0211341 2.9498479,9.81935227 2.28277973,9.42696546 C1.61459736,9.03165222 1.06529676,8.47055565 0.639098373,7.74787144 C0.210536533,7.02508145 -1.35054547e-05,6.1462746 -1.35054547e-05,5.11268493 C-1.35054547e-05,3.65053367 0.410417262,2.43589392 1.23475645,1.46573347 C2.05926446,0.499874502 3.37327767,0.0175444047 4.60916183,0.0175444047 C5.77370342,0.0175444047 6.66827098,0.560553602 7.3247036,1.28468339 C8.06709844,2.10147133 8.56072281,3.28991436 8.56072281,4.46591129 Z" id="Fill-1" fill="#000000" mask="url(#mask-2)"></path>
                        </g>
                        <path d="M33.9180159,6.04744249 L31.2723758,6.04744249 L31.2723758,11.4446783 C31.2723758,12.3139154 31.3075891,12.8968655 31.3796861,13.1958463 C31.4516495,13.503242 31.6009552,13.7422483 31.8339174,13.9265931 C32.0645076,14.1069799 32.314542,14.1992593 32.5777061,14.1992593 C33.0930094,14.1992593 33.7215031,13.6626628 34.0985925,13.0351062 L34.4444444,13.2544301 C34.2217388,13.7534802 33.7111796,14.3613186 33.2790318,14.6143736 C32.8475856,14.8714222 32.4087893,15 31.9675542,15 C31.4543891,15 31.0038328,14.8391886 30.6134798,14.5136793 C30.2261337,14.1908799 29.9823803,13.8135616 29.8853934,13.3761618 C29.7873375,12.9415076 29.7388942,12.1798465 29.7388942,11.0897166 L29.7388942,6.04744249 L28.1179138,6.04744249 L28.1179138,5.52478773 C28.7056817,5.5122366 29.4692152,5.42134787 30.0452564,4.73524317 C30.4852554,4.20970022 30.8021749,3.25107196 30.9304328,2.33009709 L31.2723758,2.33009709 L31.2723758,5.5192253 L33.9180159,5.5192253 L33.9180159,6.04744249 Z" id="Fill-4" fill="#000000"></path>
                        <path d="M46.0308048,4.8825879 C45.0989014,4.8825879 44.3506769,5.32842664 43.7859591,6.21186007 C43.2214824,7.09943292 42.9405192,8.30191393 42.9405192,9.82476436 C42.9405192,11.3095253 43.2348879,12.4793084 43.8211096,13.3382185 C44.4099849,14.1983112 45.1233,14.630549 45.9578157,14.630549 C46.8277231,14.630549 47.5436228,14.2692377 48.1135788,13.5522155 C48.6809157,12.8325148 48.9644981,11.5126694 48.9644981,9.58213932 C48.9644981,7.99385839 48.6973193,6.81318754 48.1596192,6.0428052 C47.624607,5.27120539 46.9143589,4.8825879 46.0308048,4.8825879 M46.0552723,4.51456311 C47.3223466,4.51456311 48.4215942,5.03115443 49.353532,6.0742508 C50.2883646,7.11574706 50.7528345,8.31965426 50.7528345,9.69536434 C50.7528345,11.0791097 50.2855733,12.3115754 49.3426767,13.3845868 C48.4027439,14.4602071 47.249323,15 45.8848955,15 C44.566715,15 43.4537863,14.4861567 42.551623,13.4648357 C41.6438426,12.4381926 41.1927438,11.220928 41.1927438,9.80845022 C41.1927438,8.85269887 41.422463,7.97340484 41.8735274,7.17175083 C42.3246952,6.36602698 42.9027151,5.72382719 43.6158579,5.23847275 C44.3288629,4.75444014 45.1394969,4.51456311 46.0552723,4.51456311" id="Fill-6" fill="#000000"></path>
                        <path d="M38.9733353,4.0776699 L38.9733353,11.4034932 C38.9733353,12.3853544 38.9894355,13.0045664 39.015852,13.260078 C39.0448729,13.5126467 39.1509785,13.709054 39.3312938,13.8422227 C39.5089709,13.9794205 40.0817789,14.0454268 40.5456063,14.0454268 L40.7709751,14.0454268 L40.7709751,14.5631068 L35.569161,14.5631068 L35.569161,14.0454268 L35.9375035,14.0454268 C36.4466887,14.0454268 36.9582078,13.9700311 37.1121405,13.8134588 C37.2659378,13.6596543 37.358683,13.4769458 37.382698,13.2655084 C37.4092159,13.0499369 37.4249779,12.4319862 37.4249779,11.4034932 L37.4249779,8.62015752 C37.4249779,7.53939196 37.3745464,6.8816413 37.2763894,6.64273633 C37.178503,6.40239493 37.0485177,6.25409097 36.8842011,6.19232393 C36.7197154,6.13055689 36.4386386,6.10445567 36.0356266,6.10445567 L35.743963,6.10445567 L35.743963,5.63344257 C37.9525295,5.63344257 38.9733353,4.0776699 38.9733353,4.0776699" id="Fill-8" fill="#000000"></path>
                        <path d="M25.6174068,4.0776699 L25.6174068,11.4034932 C25.6174068,12.3853544 25.633236,13.0045664 25.6598209,13.260078 C25.6889764,13.5126467 25.7950792,13.709054 25.9753899,13.8422227 C26.1530623,13.9794205 26.7256863,14.0454268 27.1897384,14.0454268 L27.414966,14.0454268 L27.414966,14.5631068 L22.2131519,14.5631068 L22.2131519,14.0454268 L22.5816201,14.0454268 C23.0907245,14.0454268 23.602467,13.9700311 23.7562265,13.8134588 C23.9099184,13.6596543 24.0028641,13.4769458 24.0266079,13.2655084 C24.0530913,13.0499369 24.0689882,12.4319862 24.0689882,11.4034932 L24.0689882,8.62015752 C24.0689882,7.53939196 24.0186933,6.8816413 23.9205389,6.64273633 C23.8224521,6.40239493 23.6925378,6.25409097 23.5280225,6.19232393 C23.3638793,6.13055689 23.0826069,6.10445567 22.6798084,6.10445567 L22.3881185,6.10445567 L22.3881185,5.63344257 C24.5965599,5.63344257 25.6174068,4.0776699 25.6174068,4.0776699" id="Fill-10" fill="#000000"></path>
                        <path d="M17.7514517,6.85817494 C17.2629694,6.42245538 16.8361699,6.16288605 16.3463138,5.94226452 C15.8535384,5.72992824 15.3635449,5.62030791 14.8681937,5.62030791 C14.036266,5.62030791 13.1880591,5.94226452 12.6310251,6.60692628 C12.0737507,7.26471907 11.6631618,8.28759429 11.6631618,9.7808172 C11.6631618,11.2975858 12.1139681,12.2051402 12.6860107,12.928082 C13.2569542,13.6455003 14.0659397,14.0243207 14.9288805,14.0661719 C16.2128509,14.1216193 17.3463923,13.6261326 17.7514517,13.0779602 L17.7514517,6.85817494 Z M17.7514517,6.19758499 L17.7514517,2.55331098 C17.7514517,1.55975282 17.7434838,2.14258881 17.7138101,1.88726834 C17.6868496,1.62635354 17.5832322,1.4306586 17.4016183,1.2947308 C17.2131011,1.16011307 16.8846644,1.09071519 16.4190212,1.09071519 L16.1846541,1.09071519 L16.1846541,0.56612385 C17.0703996,0.543923609 18.0409075,0.384273072 19.0976544,0.0873138666 L19.3318155,0 L19.3318155,11.046408 C19.3318155,12.134326 19.364168,12.4937433 19.3857707,12.7338387 C19.4259195,13.1917585 19.8299829,14.0341993 21.0884354,14.0341993 L21.0884354,14.5574451 C20.0143787,14.5574451 17.7594883,14.5433885 17.7594883,14.5433885 L17.7594883,13.7162437 C17.2131011,14.2783311 16.1187812,14.8543689 14.367313,14.8543689 C13.1936229,14.8543689 12.1838936,14.4158168 11.3306036,13.4456981 C10.4785501,12.4785183 9.98185941,11.2975858 9.98185941,9.91819668 C9.98185941,8.39994096 10.4879261,7.17457263 11.3602773,6.23508109 C12.2297435,5.29973218 13.2637201,4.83062374 14.464405,4.83062374 C15.080752,4.83062374 15.6569503,4.94304123 16.2035779,5.17208965 C16.7472519,5.39965097 17.2668847,5.74104606 17.7514517,6.19758499 Z" id="Fill-12" fill="#000000"></path>
                        <g id="Group-16" transform="translate(50.893424, 4.660194)">
                            <mask id="mask-4" fill="white">
                                <use xlink:href="#path-3"></use>
                            </mask>
                            <g id="Clip-15"></g>
                            <path d="M2.5383909,0.39852453 L3.12857254,0.17075754 C3.16080206,0.890047976 3.10990259,1.16385297 3.1341599,2.00458113 C3.67088689,1.33699437 4.23442638,0.838415565 4.82457395,0.508773446 C5.41720858,0.183371669 6.0316816,0.0185327928 6.67524976,0.0185327928 C7.40974875,0.0185327928 8.00521112,0.177741634 8.47267532,0.500328393 C8.94000324,0.820313933 9.23899499,1.212706 9.375272,1.6819231 C9.51154901,2.14426301 9.57818846,2.82432137 9.57818846,3.7167532 L9.57818846,6.72091143 C9.57818846,7.833948 9.59416694,8.50990854 9.63423238,8.75428057 C9.67170856,8.99722728 9.78931561,9.17895626 9.9894384,9.29893302 C10.1843145,9.42190296 10.5504908,9.48475981 11.0817667,9.48475981 L11.0817667,10.0209672 L6.39203207,10.0209672 L6.39203207,9.48475981 L6.60315922,9.48475981 C7.14271395,9.48475981 7.49236668,9.39948972 7.65807952,9.23746586 C7.82103275,9.0713442 7.91707397,8.88010117 7.93863981,8.66081486 C7.96248828,8.44135039 7.97325417,7.79621251 7.97325417,6.72091143 L7.97325417,3.62321623 C7.97325417,2.86348218 7.9358802,2.32435287 7.86372152,1.9975614 C7.79677544,1.67076993 7.60465893,1.38306801 7.29469689,1.13310158 C6.98228185,0.883028248 6.58721481,0.755960494 6.10905287,0.755960494 C5.56149186,0.755960494 5.04077742,0.927783464 4.54401366,1.26993281 C4.04745432,1.60930278 3.57453905,2.11903476 3.1341599,2.79920001 L3.1341599,6.72091143 C3.1341599,7.833948 3.15282985,8.50990854 3.19555269,8.75428057 C3.23537965,8.99722728 3.35571224,9.17895626 3.55334797,9.29893302 C3.75347075,9.42190296 4.12203192,9.48475981 4.66158665,9.48475981 L4.66158665,10.0209672 L0.00145816396,10.0209672 L0.00145816396,9.48475981 C0.516755592,9.48475981 0.877344549,9.4273192 1.0775014,9.31710592 C1.27793081,9.20810416 1.40616747,9.0405928 1.45682845,8.81717305 C1.50227683,8.59371767 1.52888491,7.89391856 1.52888491,6.72091143 L1.52888491,3.85084068 C1.52888491,2.7293947 1.50748942,2.24478408 1.46486879,2.00732488 C1.42493963,1.76712193 1.30733257,1.58411015 1.10690316,1.46552308 C0.909199299,1.34248187 0.690440635,1.28115725 0.15364551,1.28115725 L0.15364551,0.924968447 C0.978973126,0.835564914 1.67316819,0.659572867 2.5383909,0.39852453" id="Fill-14" fill="#000000" mask="url(#mask-4)"></path>
                        </g>
                    </g>
                </g>
            </g>
        </g>
    </g>
</svg>