<?xml version="1.0" encoding="UTF-8"?>
<svg width="233px" height="40px" viewBox="0 0 233 40" version="1.1" xmlns="http://www.w3.org/2000/svg" xmlns:xlink="http://www.w3.org/1999/xlink">
    <!-- Generator: Sketch 52.3 (67297) - http://www.bohemiancoding.com/sketch -->
    <title>logo/MO&amp;Co</title>
    <desc>Created with Sketch.</desc>
    <g id="Symbols" stroke="none" stroke-width="1" fill="none" fill-rule="evenodd">
        <g id="module/head/01" transform="translate(-844.000000, -57.000000)" fill="#231916">
            <g id="head" transform="translate(0.000000, 32.000000)">
                <g id="模块/head">
                    <g id="head">
                        <g id="logo/MO&amp;Co./black" transform="translate(844.000000, 25.000000)">
                            <g id="Group-15">
                                <path d="M0,1.66641975 L13.5070743,1.66641975 L27.1041826,30.7444444 L41.0886348,1.73209877 L53.7413758,1.73209877 L53.7389023,2.3854321 C53.7389023,2.3854321 47.6977219,2.3854321 47.4137686,6.69703704 C47.1298153,11.0145679 47.4137686,34.7498765 47.4137686,34.7498765 C47.4424607,37.4367901 50.418034,39.497037 53.5870318,39.2604938 C53.7557219,39.248642 53.6854756,39.9671605 53.6567834,39.9671605 L34.3761571,39.8753086 L34.3677473,39.1562963 C34.3677473,39.1562963 34.3885244,39.1725926 34.6744565,39.1597531 C35.7009427,39.1232099 38.088327,39.0945679 39.4358684,38.2644444 C41.0060212,37.288642 40.9318174,35.3869136 40.9832654,34.9780247 L41.0886348,6.25111111 L24.5545393,39.8753086 L8.0288535,7.05851852 L8.12185563,34.5711111 C8.4696242,38.0777778 10.7021699,39.6674074 14.8279023,39.337037 L14.9223885,39.8753086 L0.0944861996,39.7844444 L0.186993631,39.337037 C2.64215074,39.0738272 5.00875796,38.4165432 6.70406794,35.0209877 L6.70406794,7.05851852 C6.13616136,3.4491358 3.59047558,2.30493827 0,2.29506173 L0,1.66641975 Z" id="Fill-1"></path>
                                <path d="M84.3003399,1.14054321 C92.7679854,1.14054321 100.130489,9.72276543 100.130489,20.2477037 C100.130489,30.7691852 93.1093229,39.4625185 84.6416775,39.4625185 C76.172548,39.4625185 68.8100448,30.7691852 68.8100448,20.2477037 C68.8100448,9.72276543 75.8346732,1.14054321 84.3003399,1.14054321 M84.3498091,0.635358025 C96.9303251,0.635358025 107.19024,9.38597531 107.19024,20.2477037 C107.19024,31.1084444 96.9303251,39.9672099 84.3498091,39.9672099 C71.7687985,39.9672099 61.5088834,31.1084444 61.5088834,20.2477037 C61.5088834,9.38597531 71.7687985,0.635358025 84.3498091,0.635358025" id="Fill-3"></path>
                                <path d="M209.985239,15.4658765 C215.352155,15.4658765 219.726223,20.6876049 219.726223,27.3962469 C219.726223,34.1068642 215.352155,39.4085926 209.985239,39.4085926 C204.622777,39.4085926 200.247719,34.1068642 200.247719,27.3962469 C200.247719,20.6876049 204.622777,15.4658765 209.985239,15.4658765 M210.019868,14.827358 C217.989853,14.827358 224.487634,20.4698272 224.487634,27.3962469 C224.487634,34.3231605 217.989853,39.9671111 210.019868,39.9671111 C202.048893,39.9671111 195.548144,34.3231605 195.548144,27.3962469 C195.548144,20.4698272 202.048893,14.827358 210.019868,14.827358" id="Fill-5"></path>
                                <path d="M230.691766,35.6375309 C231.924539,35.6375309 232.924807,36.6088889 232.924807,37.8024691 C232.924807,38.9980247 231.924539,39.9674074 230.691766,39.9674074 C229.459488,39.9674074 228.463673,38.9980247 228.463673,37.8024691 C228.463673,36.6088889 229.459488,35.6375309 230.691766,35.6375309" id="Fill-7"></path>
                                <path d="M187.930874,0.748246914 L187.883384,13.3131852 L187.215055,13.3028148 C184.733184,6.23071605 181.407369,2.1862716 177.127787,1.40948148 C174.563798,0.635160494 171.759388,1.03762963 169.736592,1.59071605 C152.179968,6.3971358 155.044235,37.5581235 174.074053,37.7921975 C177.634352,37.8351605 182.753426,36.699358 185.058197,33.8934321 C187.222475,31.2578765 187.617734,27.6302222 187.642469,27.6302222 L188.646694,27.585284 C188.181683,33.4376296 184.210295,37.0568889 179.487963,38.7719506 C170.475167,42.0499753 157.5919,38.3961481 153.20497,30.1013333 C151.342454,26.5808395 150.587554,22.9675062 150.889811,19.0647901 C151.850503,6.76898765 161.005276,-0.204839506 172.641919,0.00454320988 C174.498004,0.035654321 177.539371,0.369975309 179.823365,0.95762963 C181.617613,1.42182716 182.790528,1.93738272 183.959486,2.09392593 C185.089363,2.23565432 186.23507,1.97046914 187.04587,1.18775309 C187.317456,0.927012346 187.383745,0.748246914 187.383745,0.748246914 L187.930874,0.748246914 Z" id="Fill-10"></path>
                                <path d="M124.215565,10.3387654 C117.863718,10.4928395 122.03051,18.7195062 124.57768,20.822716 C129.084325,19.588642 129.462765,10.2093827 124.215565,10.3387654 M117.063306,31.4325926 C117.301748,33.4167901 118.227811,34.9738272 119.194934,36.0933333 C122.104219,39.4577778 127.450357,39.5441975 131.598845,34.2755556 C128.042998,30.7955556 124.721635,27.2874074 121.703518,23.4069136 C119.030697,25.4118519 116.664089,28.2074074 117.063306,31.4325926 M133.64044,31.0074074 C135.026567,29.5407407 137.146818,25.3175309 136.442871,23.411358 C136.154465,22.6325926 135.263525,22.1496296 133.62362,22.1437037 L133.62362,21.2750617 L142.665108,21.2869136 L142.677476,22.1664198 C141.681661,22.0923457 140.249527,22.548642 139.602964,23.0335802 C137.537624,24.5738272 137.07014,27.9792593 134.29838,31.7758025 C135.788393,33.3575309 138.743189,36.3832099 141.282444,37.6523457 C142.805106,38.4167901 144.58303,37.8350617 144.862531,36.3748148 L145.759903,36.3669136 C145.012917,39.6241975 141.434809,40.8671605 137.871047,39.2814815 C135.273913,38.1269136 133.183344,35.7649383 132.244913,34.9777778 C126.808246,42.0296296 115.902758,41.0069136 114.021939,35.0296296 C112.74217,30.9619753 114.264832,26.057284 121.219709,22.7990123 C120.569684,22.1353086 116.914898,18.317037 117.363584,15.0553086 C117.81227,11.7807407 120.84127,10.0182716 124.139877,9.90320988 C130.232506,9.69777778 132.562011,13.6419753 131.456869,16.7580247 C130.670803,18.9703704 128.125117,20.4409877 125.047142,21.5298765 C126.878493,23.8380247 131.071998,28.5219753 133.64044,31.0074074" id="Fill-12"></path>
                            </g>
                        </g>
                    </g>
                </g>
            </g>
        </g>
    </g>
</svg>