<?xml version="1.0" encoding="UTF-8"?>
<svg width="20px" height="19px" viewBox="0 0 20 19" version="1.1" xmlns="http://www.w3.org/2000/svg" xmlns:xlink="http://www.w3.org/1999/xlink">
    <!-- Generator: Sketch 52.5 (67469) - http://www.bohemiancoding.com/sketch -->
    <title>icon/全部订单</title>
    <desc>Created with Sketch.</desc>
    <g id="Page-1" stroke="none" stroke-width="1" fill="none" fill-rule="evenodd">
        <g id="个人中心" transform="translate(-350.000000, -393.000000)" fill="#000000">
            <g id="icon/全部订单" transform="translate(348.000000, 391.000000)">
                <g id="Group-6">
                    <g id="Group" transform="translate(2.000000, 2.000000)">
                        <circle id="Oval" cx="5" cy="11" r="1"></circle>
                        <circle id="Oval-Copy" cx="10" cy="11" r="1"></circle>
                        <circle id="Oval-Copy-2" cx="15" cy="11" r="1"></circle>
                        <path d="M1.93555309,5 L1.06888643,18 L18.9311136,18 L18.0644469,5 L1.93555309,5 Z M1.93555309,4 L18.0644469,4 C18.5909108,4 19.0272122,4.40818315 19.0622321,4.93348099 L19.9288987,17.933481 C19.9656362,18.4845425 19.5486941,18.9610477 18.9976326,18.9977852 C18.9754903,18.9992613 18.953305,19 18.9311136,19 L1.06888643,19 C0.516601675,19 0.0688864252,18.5522847 0.0688864252,18 C0.0688864252,17.9778086 0.069625115,17.9556233 0.0711012674,17.933481 L0.937767934,4.93348099 C0.97278779,4.40818315 1.40908922,4 1.93555309,4 Z" id="Rectangle" fill-rule="nonzero"></path>
                        <path d="M12.8292943,4 C12.4174579,2.83480763 11.3062188,2 10,2 C8.69378117,2 7.58254212,2.83480763 7.17070571,4 L5.10001812,4 C5.56328845,1.71775968 7.58104209,0 10,0 C12.4189579,0 14.4367116,1.71775968 14.8999819,4 L12.8292943,4 Z" id="Combined-Shape" fill-rule="nonzero"></path>
                    </g>
                </g>
            </g>
        </g>
    </g>
</svg>