<?xml version="1.0" encoding="UTF-8"?>
<svg xmlns:xlink="http://www.w3.org/1999/xlink" height="60px" version="1.1" viewBox="0 0 49 60" width="49px"
  xmlns="http://www.w3.org/2000/svg">
  <!-- Generator: Sketch 51.2 (57519) - http://www.bohemiancoding.com/sketch -->
  <title>折扣优惠</title>
  <desc>Created with Sketch.</desc>
  <defs>
    <polygon id="path-1" points="0 0.5908 48.715 0.5908 48.715 47.9998 0 47.9998"></polygon>
  </defs>
  <g fill="none" fill-rule="evenodd" id="14-会员权益" stroke="none" stroke-width="1">
    <g id="会员权益" transform="translate(-788.000000, -439.000000)">
      <g id="dazhe" transform="translate(780.000000, 439.000000)">
        <g>
          <path d="M20.2423,14.4187 C27.0783,10.6097 23.2703,3.7727 23.2703,3.7727" id="Stroke-1"
            stroke="#000000" stroke-width="2"></path>
          <g id="Group-5" transform="translate(8.000000, 11.610100)">
            <mask fill="white" id="mask-2">
              <use xlink:href="#path-1"></use>
            </mask>
            <g id="Clip-4"></g>
            <path
              d="M20.8009,0.5908 L-0.0001,3.2508 L0.6719,24.2108 L28.5859,47.9998 L48.7159,24.3808 L20.8009,0.5908 Z M20.1769,2.6868 L45.8959,24.6048 L28.3609,45.1808 L2.6419,23.2618 L2.0569,5.0038 L20.1769,2.6868 Z"
              fill="#000000" id="Fill-3" mask="url(#mask-2)"></path>
          </g>
          <path
            d="M29.8165,17.008 L29.1685,17.769 L29.9285,18.418 L30.5775,17.657 L29.8165,17.008 Z M31.7195,18.63 L31.0705,19.391 L31.8315,20.039 L32.4805,19.279 L31.7195,18.63 Z M33.6225,20.251 L32.9735,21.012 L33.7345,21.661 L34.3835,20.9 C34.3835,20.9 34.0875,20.648 33.8645,20.458 L33.8585,20.452 C33.8575,20.452 33.8575,20.452 33.8575,20.452 L33.6225,20.251 Z M35.5245,21.873 L34.8765,22.634 L35.6375,23.282 L36.2855,22.522 L35.9025,22.195 C35.9025,22.195 35.9015,22.194 35.9015,22.194 L35.9005,22.193 C35.7115,22.032 35.5245,21.873 35.5245,21.873 Z M37.4275,23.494 L36.7785,24.256 L37.5405,24.904 L38.1885,24.143 L37.4275,23.494 Z M39.3305,25.116 L38.6815,25.877 L39.4425,26.526 L40.0915,25.765 L39.3305,25.116 Z M41.2335,26.737 L40.5845,27.499 L41.3455,28.147 L41.9945,27.386 L41.2335,26.737 Z M43.1355,28.359 L42.4875,29.12 L43.2485,29.769 L43.8975,29.008 L43.3575,28.548 L43.3515,28.543 L43.3505,28.542 L43.3475,28.539 L43.3465,28.539 L43.3385,28.532 C43.3385,28.532 43.3385,28.532 43.3385,28.532 L43.3375,28.531 L43.3365,28.53 L43.3355,28.529 L43.3325,28.527 L43.3255,28.521 L43.3245,28.52 L43.3235,28.519 C43.3225,28.519 43.3215,28.518 43.3205,28.517 L43.3175,28.514 L43.3165,28.513 L43.3085,28.506 C43.3075,28.505 43.3065,28.504 43.3055,28.504 L43.3045,28.503 C43.3015,28.501 43.2995,28.499 43.2975,28.497 L43.2965,28.496 C43.2945,28.494 43.2925,28.493 43.2905,28.491 L43.2895,28.49 C43.2875,28.488 43.2855,28.487 43.2835,28.485 L43.2815,28.484 C43.2775,28.48 43.2735,28.476 43.2695,28.472 L43.2685,28.472 C43.2665,28.47 43.2635,28.468 43.2615,28.466 C43.2595,28.465 43.2575,28.463 43.2555,28.461 L43.2535,28.459 C43.2515,28.458 43.2505,28.456 43.2485,28.455 C43.2455,28.453 43.2435,28.451 43.2415,28.449 C43.1775,28.395 43.1355,28.359 43.1355,28.359 Z M45.0385,29.981 L44.3905,30.742 L45.1505,31.39 L45.7995,30.63 L45.0385,29.981 Z M46.9415,31.602 L46.2925,32.363 L47.0535,33.012 L47.7025,32.251 L46.9415,31.602 Z M48.8445,33.224 L48.1955,33.985 L48.9565,34.633 L49.6055,33.872 C49.6055,33.872 49.3785,33.678 49.1715,33.503 L49.1705,33.503 C49.1705,33.501 49.1685,33.5 49.1675,33.499 L49.1665,33.498 C49.1665,33.498 49.1655,33.498 49.1655,33.497 L48.8445,33.224 Z M50.7475,34.845 L50.0985,35.607 L50.8595,36.255 L51.5075,35.494 L51.0595,35.112 L51.0555,35.109 C50.8925,34.969 50.7475,34.845 50.7475,34.845 Z M51.5865,35.842 L50.9375,36.604 L51.6985,37.252 L52.2745,36.576 L52.2755,36.575 C52.2755,36.575 52.2755,36.574 52.2765,36.574 L52.2805,36.569 L52.2845,36.565 C52.2845,36.565 52.2845,36.565 52.2845,36.565 L52.2895,36.559 L52.2895,36.558 C52.2905,36.558 52.2915,36.557 52.2925,36.556 C52.3265,36.516 52.3475,36.491 52.3475,36.491 L51.5865,35.842 Z M49.9645,37.745 L49.3165,38.507 L50.0775,39.155 L50.7255,38.394 L49.9645,37.745 Z M48.3425,39.648 L47.6945,40.409 L48.4555,41.058 L49.1045,40.297 L48.3425,39.648 Z M46.7215,41.551 L46.0725,42.312 L46.8345,42.961 L47.4825,42.199 L46.7215,41.551 Z M45.0995,43.453 L44.4515,44.215 L45.2125,44.863 C45.2125,44.863 45.8605,44.103 45.8605,44.102 L45.0995,43.453 Z M43.4785,45.356 L42.8295,46.117 L43.5905,46.766 L44.2395,46.005 L43.4785,45.356 Z M41.8565,47.259 L41.2085,48.02 L41.9695,48.669 L42.6175,47.907 L41.8565,47.259 Z M40.2345,49.162 L39.5865,49.923 L40.3475,50.571 C40.3475,50.571 40.6005,50.274 40.7905,50.051 L40.7915,50.051 C40.7955,50.046 40.8005,50.04 40.8045,50.035 L40.8055,50.034 L40.8115,50.027 L40.8145,50.024 C40.8145,50.024 40.8145,50.024 40.8145,50.023 L40.8165,50.022 C40.8165,50.021 40.8165,50.021 40.8165,50.021 L40.8215,50.015 L40.9965,49.81 L40.2345,49.162 Z M38.6135,51.065 L37.9645,51.825 L38.7265,52.474 L39.3745,51.713 L38.6135,51.065 Z M36.9915,52.967 L36.3435,53.728 L37.1045,54.377 L37.2075,54.256 C37.3905,54.041 37.7535,53.616 37.7535,53.616 L36.9915,52.967 Z M35.9985,53.854 L35.3505,54.615 C35.3505,54.615 35.4905,54.735 35.6505,54.872 L36.1105,55.264 L36.7595,54.503 L35.9985,53.854 Z M34.0955,52.233 L33.4475,52.993 L34.2085,53.642 L34.8575,52.881 L34.0955,52.233 Z M32.1925,50.611 L31.5445,51.372 L31.7015,51.506 L31.7225,51.524 C31.7235,51.525 31.7245,51.525 31.7245,51.526 L31.7255,51.526 C31.7265,51.527 31.7275,51.528 31.7285,51.529 L31.7295,51.529 C31.9545,51.721 32.3055,52.021 32.3055,52.021 L32.9545,51.259 L32.1925,50.611 Z M30.2905,48.989 L29.6415,49.75 C29.6415,49.75 29.7855,49.873 29.9485,50.012 L29.9495,50.013 L29.9505,50.013 L29.9535,50.016 L29.9555,50.018 L29.9565,50.018 L29.9575,50.02 L30.4025,50.399 L31.0515,49.638 L30.2905,48.989 Z M28.3875,47.368 L27.7385,48.129 L28.5005,48.778 L29.1485,48.016 L28.3875,47.368 Z M26.4845,45.746 L25.8365,46.507 L26.0235,46.667 L26.0255,46.669 C26.0265,46.669 26.0265,46.67 26.0275,46.671 L26.0285,46.671 C26.2535,46.863 26.5975,47.156 26.5975,47.156 L27.2455,46.395 L26.4845,45.746 Z M24.5825,44.125 L23.9335,44.885 C23.9335,44.885 24.0685,45.001 24.2255,45.134 C24.2285,45.137 24.2315,45.139 24.2335,45.142 L24.6945,45.534 L25.3435,44.773 L24.5825,44.125 Z M22.6795,42.503 L22.0305,43.264 C22.0305,43.264 22.6995,43.834 22.7835,43.905 C22.7865,43.908 22.7885,43.909 22.7895,43.911 C22.7905,43.911 22.7915,43.912 22.7915,43.912 C22.7915,43.912 22.7915,43.912 22.7915,43.913 L23.4405,43.152 L22.6795,42.503 Z M20.7765,40.882 L20.1285,41.642 L20.3205,41.807 L20.3215,41.807 L20.3225,41.808 C20.3225,41.808 20.3235,41.809 20.3235,41.809 L20.3245,41.81 C20.3255,41.811 20.3265,41.812 20.3275,41.813 L20.3285,41.813 C20.3305,41.815 20.3335,41.817 20.3355,41.82 L20.3365,41.82 C20.5615,42.012 20.8895,42.291 20.8895,42.291 L21.5375,41.53 L20.7765,40.882 Z M18.8735,39.26 L18.2255,40.021 C18.2255,40.021 18.3505,40.128 18.4995,40.255 L18.5005,40.255 C18.5055,40.26 18.5105,40.264 18.5165,40.269 L18.5185,40.271 C18.5195,40.272 18.5205,40.272 18.5215,40.273 L18.9865,40.67 L19.6345,39.908 L18.8735,39.26 Z M16.9715,37.638 L16.3225,38.399 C16.3225,38.399 16.9895,38.968 17.0745,39.04 L17.0755,39.041 L17.0765,39.042 C17.0775,39.043 17.0775,39.043 17.0775,39.043 C17.0785,39.043 17.0785,39.044 17.0785,39.044 L17.0795,39.044 L17.0795,39.045 L17.0805,39.045 C17.0805,39.045 17.0805,39.046 17.0805,39.046 C17.0805,39.046 17.0815,39.046 17.0815,39.046 L17.0815,39.047 C17.0825,39.047 17.0825,39.047 17.0825,39.047 C17.0825,39.047 17.0825,39.048 17.0835,39.048 L17.7325,38.287 L16.9715,37.638 Z M15.0685,36.017 L14.4195,36.778 L14.6295,36.957 L14.6315,36.958 L14.6315,36.959 C14.6325,36.96 14.6345,36.961 14.6355,36.962 C14.6385,36.964 14.6415,36.966 14.6435,36.968 L14.6445,36.969 L14.6605,36.983 L14.6615,36.984 C14.8835,37.174 15.1805,37.426 15.1805,37.426 L15.8295,36.665 L15.0685,36.017 Z M13.1655,34.395 L12.5175,35.156 C12.5175,35.156 12.6405,35.261 12.7875,35.386 L12.7875,35.387 C12.7885,35.387 12.7895,35.388 12.7905,35.389 L12.7925,35.391 C12.7955,35.393 12.7975,35.395 12.7995,35.397 L12.8015,35.399 L12.8025,35.4 C12.8035,35.4 12.8035,35.401 12.8035,35.401 L13.2775,35.805 L13.9265,35.044 L13.1655,34.395 Z M12.5845,33.035 L11.5855,33.068 C11.5855,33.068 11.5875,33.165 11.5925,33.299 L11.5925,33.3 L11.5925,33.304 L11.5925,33.305 L11.5925,33.309 L11.5925,33.31 L11.5925,33.319 L11.5925,33.32 L11.5925,33.321 L11.5935,33.323 L11.5935,33.324 L11.5935,33.325 L11.5935,33.327 L11.5935,33.328 L11.5935,33.329 L11.5935,33.331 L11.5935,33.332 L11.5935,33.333 L11.5935,33.335 L11.5935,33.336 L11.5935,33.337 L11.5935,33.341 L11.5935,33.342 L11.5935,33.35 L11.5945,33.355 L11.6165,34.067 L12.6165,34.035 L12.5845,33.035 Z M12.5045,30.537 L11.5045,30.569 C11.5045,30.569 11.5065,30.616 11.5085,30.691 L11.5085,30.692 C11.5085,30.696 11.5085,30.699 11.5095,30.703 L11.5095,30.705 L11.5095,30.711 L11.5095,30.713 L11.5365,31.568 L12.5365,31.536 L12.5045,30.537 Z M12.4245,28.038 L11.4245,28.07 L11.4565,29.07 L12.4565,29.037 L12.4245,28.038 Z M12.3445,25.539 L11.3445,25.571 L11.3775,26.571 L12.3765,26.539 L12.3445,25.539 Z M12.2645,23.041 L11.2645,23.072 L11.2965,24.072 L12.2965,24.04 L12.2645,23.041 Z M12.1845,20.542 L11.1845,20.574 L11.2165,21.573 L12.2165,21.541 L12.1845,20.542 Z M12.9855,17.248 L11.9945,17.375 L12.0795,18.044 L11.1045,18.075 L11.1365,19.074 L12.1365,19.043 L12.1125,18.3 L12.1215,18.367 L13.1125,18.24 L12.9855,17.248 Z M15.4655,16.931 L14.4735,17.058 L14.6005,18.05 L15.5925,17.923 L15.4655,16.931 Z M17.9455,16.613 L16.9535,16.74 L17.0805,17.732 L18.0725,17.606 L17.9455,16.613 Z M20.4255,16.297 L19.4335,16.423 L19.5605,17.415 L20.5525,17.288 L20.4255,16.297 Z M22.9055,15.979 L21.9135,16.106 L22.0405,17.098 L23.0315,16.971 L22.9055,15.979 Z M25.3845,15.662 L24.3935,15.789 L24.5205,16.781 L25.5115,16.654 L25.3845,15.662 Z M27.8645,15.345 L26.8725,15.472 L26.9995,16.464 L27.5525,16.393 L28.0255,16.797 L28.6745,16.035 L28.5085,15.894 L28.4665,15.858 C28.4655,15.857 28.4655,15.857 28.4645,15.857 L28.4625,15.854 C28.4605,15.853 28.4585,15.851 28.4565,15.849 C28.4555,15.848 28.4545,15.847 28.4525,15.846 C28.2285,15.654 27.9135,15.386 27.9135,15.386 L27.8765,15.431 L27.8645,15.345 Z"
            fill="#000000" id="Fill-6"></path>
          <path
            d="M24.3751,31.4622 C23.3851,31.4622 22.4011,31.8792 21.7091,32.6912 C20.4561,34.1632 20.6321,36.3722 22.1031,37.6262 C22.7621,38.1872 23.5691,38.4622 24.3721,38.4622 C25.3611,38.4622 26.3451,38.0452 27.0371,37.2322 C28.2911,35.7612 28.1151,33.5522 26.6441,32.2982 C25.9841,31.7362 25.1781,31.4622 24.3751,31.4622 M24.3751,33.4622 C24.6261,33.4622 24.9991,33.5242 25.3461,33.8202 C25.9761,34.3572 26.0511,35.3052 25.5151,35.9352 C25.2291,36.2702 24.8121,36.4622 24.3721,36.4622 C24.1201,36.4622 23.7481,36.4002 23.4001,36.1042 C22.7711,35.5672 22.6951,34.6182 23.2311,33.9892 C23.5171,33.6542 23.9341,33.4622 24.3751,33.4622"
            fill="#000000" id="Fill-8"></path>
          <g id="Group-13" transform="translate(29.000000, 23.610100)">
            <path d="M0.7155,0.5547 L5.1515,21.9997" fill="#FFFFFF" id="Fill-10"></path>
            <path d="M0.7155,0.5547 L5.1515,21.9997" id="Stroke-12" stroke="#000000"
              stroke-width="2"></path>
          </g>
          <path
            d="M39.2335,30.9861 C38.2435,30.9861 37.2605,31.4031 36.5675,32.2151 C35.3145,33.6871 35.4905,35.8961 36.9615,37.1501 C37.6205,37.7111 38.4275,37.9861 39.2305,37.9861 C40.2195,37.9861 41.2035,37.5691 41.8955,36.7561 C43.1495,35.2851 42.9735,33.0761 41.5025,31.8221 C40.8425,31.2601 40.0365,30.9861 39.2335,30.9861 M39.2335,32.9861 C39.4845,32.9861 39.8575,33.0481 40.2045,33.3441 C40.8345,33.8811 40.9095,34.8291 40.3735,35.4591 C40.0875,35.7941 39.6705,35.9861 39.2305,35.9861 C38.9785,35.9861 38.6065,35.9241 38.2585,35.6281 C37.9535,35.3681 37.7685,35.0051 37.7365,34.6051 C37.7045,34.2061 37.8305,33.8181 38.0895,33.5131 C38.3755,33.1781 38.7925,32.9861 39.2335,32.9861"
            fill="#000000" id="Fill-14"></path>
          <path
            d="M15.8307,21.8264 C15.8307,21.8264 9.8747,17.0353369 14.9507,11.4127281 C20.0267,5.79106306 14.0707,1 14.0707,1"
            id="Stroke-16" stroke="#000000" stroke-width="2"></path>
          <path
            d="M16.6036,19.9143 C17.4256,20.6153 17.5246,21.8503 16.8236,22.6723 C16.1226,23.4953 14.8876,23.5933 14.0656,22.8933 C13.2426,22.1913 13.1446,20.9563 13.8456,20.1343 C14.5456,19.3123 15.7816,19.2133 16.6036,19.9143"
            fill="#000000" id="Fill-18"></path>
        </g>
      </g>
    </g>
  </g>
</svg>