<?xml version="1.0" encoding="UTF-8"?>
<svg width="24px" height="24px" viewBox="0 0 24 24" version="1.1" xmlns="http://www.w3.org/2000/svg" xmlns:xlink="http://www.w3.org/1999/xlink">
    <!-- Generator: Sketch 52.5 (67469) - http://www.bohemiancoding.com/sketch -->
    <title>物流</title>
    <desc>Created with Sketch.</desc>
    <g id="Page-1" stroke="none" stroke-width="1" fill="none" fill-rule="evenodd">
        <g id="08订单审核成功" transform="translate(-20.000000, -222.000000)" fill="#000000">
            <g id="Group-9" transform="translate(32.000000, 234.000000) scale(-1, 1) translate(-32.000000, -234.000000) translate(20.000000, 222.000000)">
                <path d="M2,17 L2,9 L11,9 L11,8 L14.462944,8 L18,13.1147541 L18,17 L2,17 Z M2,9 L2,16 L17,16 L17,13.494366 L14.0132609,9 L2,9 Z" id="Combined-Shape" fill-rule="nonzero"></path>
                <path d="M12,10 L11,10 L11,7 L2,7 L2,10 L2,10 L2,6 L12,6 L12,10 Z" id="Combined-Shape" fill-rule="nonzero"></path>
                <circle id="Oval-3" cx="13" cy="17" r="2"></circle>
                <circle id="Oval-3-Copy" cx="5" cy="17" r="2"></circle>
            </g>
        </g>
    </g>
</svg>