<?xml version="1.0" encoding="UTF-8"?>
<svg height="20px" version="1.1" viewBox="0 0 19 20" width="19px" xmlns="http://www.w3.org/2000/svg"
>
  <!-- Generator: Sketch 49.2 (51160) - http://www.bohemiancoding.com/sketch -->
  <title>INS</title>
  <desc>Created with Sketch.</desc>
  <defs></defs>
  <g fill="none" fill-rule="evenodd" id="首页" stroke="none" stroke-width="1">
    <g fill="#FFFFFF" id="首页_完整" transform="translate(-274.000000, -4011.000000)">
      <g id="icon/INS" transform="translate(271.000000, 4009.000000)">
        <g id="INS">
          <g id="Group-4" transform="translate(3.000000, 2.000000)">
            <path
              d="M7.125,9.52320326 C7.125,10.3727212 7.57766651,11.1576778 8.31244488,11.5823927 C9.04731144,12.0071075 9.95260037,12.0071075 10.6874669,11.5823927 C11.4222673,11.1576778 11.875,10.3727212 11.875,9.52320326 C11.875,8.21007906 10.811657,7.14551084 9.49995591,7.14551084 C8.188343,7.14551084 7.125,8.21007906 7.125,9.52320326 Z"
              id="Fill-1"></path>
            <path
              d="M12.793511,3.37550827 L6.24488293,3.37550827 C4.67895854,3.37550827 3.40718659,4.64870763 3.40718659,6.21641815 L3.40718659,12.7820497 C3.40718659,14.3497603 4.67895854,15.6229596 6.24488293,15.6229596 L12.803011,15.6229596 C14.3689354,15.6229596 15.6407073,14.3497603 15.6407073,12.7820497 L15.6407073,6.21641815 C15.6311841,4.64870763 14.359528,3.37550827 12.793511,3.37550827 Z M9.51918537,13.3996742 C7.36477073,13.3996742 5.62805488,11.6513505 5.62805488,9.50398937 C5.62805488,7.34711736 7.37427073,5.60832778 9.51918537,5.60832778 C11.6736232,5.60832778 13.4104317,7.3566282 13.4104317,9.50398937 C13.4104317,11.6513505 11.6736232,13.3996742 9.51918537,13.3996742 Z M13.5147927,6.37798638 C13.0118024,6.37798638 12.6036963,5.96941479 12.6036963,5.46587402 C12.6036963,4.96224046 13.0118024,4.55366887 13.5147927,4.55366887 C14.0178293,4.55366887 14.4259585,4.96224046 14.4259585,5.46587402 C14.4259585,5.96941479 14.0178293,6.37798638 13.5147927,6.37798638 Z"
              id="Fill-2"></path>
            <path
              d="M14.6346805,0.0309416295 L4.34678293,0.0309416295 C1.94562317,0.0309416295 0,1.97878402 0,4.38268259 L0,14.6823148 C0,17.0861901 1.94562317,19.0340325 4.34678293,19.0340325 L14.6346805,19.0340325 C17.0358171,19.0340325 18.9814402,17.0861901 18.9814402,14.6823148 L18.9814402,4.38268259 C18.9814402,1.97878402 17.0358171,0.0309416295 14.6346805,0.0309416295 Z M17.0264098,12.753494 C17.0264098,15.1384637 15.0903098,17.0767721 12.7080573,17.0767721 L6.27338293,17.0767721 C3.89124634,17.0767721 1.95512317,15.1384637 1.95512317,12.753494 L1.95512317,6.31148012 C1.95512317,3.92660322 3.89124634,1.98829486 6.27338293,1.98829486 L12.7175573,1.98829486 C15.0997171,1.98829486 17.0358171,3.92660322 17.0358171,6.31148012 L17.0358171,12.753494 L17.0264098,12.753494 Z"
              id="Fill-4"></path>
          </g>
        </g>
      </g>
    </g>
  </g>
</svg>