<?xml version="1.0" encoding="UTF-8"?>
<svg width="18px" height="17px" viewBox="0 0 18 17" version="1.1" xmlns="http://www.w3.org/2000/svg" xmlns:xlink="http://www.w3.org/1999/xlink">
    <!-- Generator: Sketch 52.5 (67469) - http://www.bohemiancoding.com/sketch -->
    <title>icon/积分</title>
    <desc>Created with Sketch.</desc>
    <g id="Page-1" stroke="none" stroke-width="1" fill="none" fill-rule="evenodd">
        <g id="个人中心" transform="translate(-147.000000, -494.000000)" fill="#000000">
            <g id="icon/积分" transform="translate(144.000000, 490.000000)">
                <g id="Group-3">
                    <g id="Group" transform="translate(3.000000, 4.000000)" fill-rule="nonzero">
                        <path d="M9,8 C13.4891388,8 17,6.24456939 17,4.5 C17,2.75543061 13.4891388,1 9,1 C4.51086122,1 1,2.75543061 1,4.5 C1,6.24456939 4.51086122,8 9,8 Z M9,9 C4.02943725,9 0,6.98528137 0,4.5 C0,2.01471863 4.02943725,0 9,0 C13.9705627,0 18,2.01471863 18,4.5 C18,6.98528137 13.9705627,9 9,9 Z" id="Oval"></path>
                        <path d="M16.846493,7.87053112 L17.7728208,7.5 C17.9214729,7.82440495 18,8.16218139 18,8.50912833 C18,10.9944097 13.9705627,13.0091283 9,13.0091283 C4.02943725,13.0091283 0,10.9944097 0,8.50912833 C0,8.16218139 0.0785270671,7.82440495 0.227179183,7.5 L1.15350698,7.87053112 C1.05272251,8.08139303 1,8.29534223 1,8.50912833 C1,10.2536977 4.51086122,12.0091283 9,12.0091283 C13.4891388,12.0091283 17,10.2536977 17,8.50912833 C17,8.29534223 16.9472775,8.08139303 16.846493,7.87053112 Z" id="Combined-Shape"></path>
                        <path d="M16.846493,11.8614028 L17.7728208,11.4908717 C17.9214729,11.8152766 18,12.1530531 18,12.5 C18,14.9852814 13.9705627,17 9,17 C4.02943725,17 0,14.9852814 0,12.5 C0,12.1530531 0.0785270671,11.8152766 0.227179183,11.4908717 L1.15350698,11.8614028 C1.05272251,12.0722647 1,12.2862139 1,12.5 C1,14.2445694 4.51086122,16 9,16 C13.4891388,16 17,14.2445694 17,12.5 C17,12.2862139 16.9472775,12.0722647 16.846493,11.8614028 Z" id="Combined-Shape-Copy"></path>
                    </g>
                </g>
            </g>
        </g>
    </g>
</svg>