<?xml version="1.0" encoding="UTF-8"?>
<svg width="338px" height="35px" viewBox="0 0 338 35" version="1.1" xmlns="http://www.w3.org/2000/svg" xmlns:xlink="http://www.w3.org/1999/xlink">
    <!-- Generator: Sketch 51.2 (57519) - http://www.bohemiancoding.com/sketch -->
    <title>Group 2</title>
    <desc>Created with Sketch.</desc>
    <defs>
        <polygon id="path-1" points="0.327770701 0.0917728395 3.88901911 0.0917728395 3.88901911 3.55555556 0.327770701 3.55555556"></polygon>
        <polygon id="path-3" points="0.260448131 0.0413620542 25.9245694 0.0413620542 25.9245694 24.0987654 0.260448131 24.0987654"></polygon>
        <polygon id="path-5" points="0 0.0466382857 9.97772637 0.0466382857 9.97772637 12.365664 0 12.365664"></polygon>
        <polygon id="path-7" points="0.0404147353 0.0471628571 12.5199035 0.0471628571 12.5199035 12.7551029 0.0404147353 12.7551029"></polygon>
    </defs>
    <g id="Symbols" stroke="none" stroke-width="1" fill="none" fill-rule="evenodd">
        <g id="module/head/02" transform="translate(-460.000000, -19.000000)">
            <g id="Group">
                <g id="head">
                    <g id="Group-2" transform="translate(460.000000, 19.000000)">
                        <g id="logo/MO&amp;Co">
                            <g id="Group-15">
                                <path d="M0,1.3331358 L10.7824713,1.3331358 L21.6368153,24.5955556 L32.8003694,1.38567901 L42.9008408,1.38567901 L42.8988662,1.90834568 C42.8988662,1.90834568 38.076293,1.90834568 37.8496178,5.35762963 C37.6229427,8.81165432 37.8496178,27.7999012 37.8496178,27.7999012 C37.8725223,29.9494321 40.2478726,31.5976296 42.7776306,31.4083951 C42.912293,31.3989136 42.8562166,31.9737284 42.8333121,31.9737284 L27.4419108,31.9002469 L27.4351975,31.325037 C27.4351975,31.325037 27.4517834,31.3380741 27.6800382,31.3278025 C28.499465,31.2985679 30.4052739,31.2756543 31.4809936,30.6115556 C32.7344204,29.8309136 32.6751847,28.3095309 32.7162548,27.9824198 L32.8003694,5.00088889 L19.6014777,31.9002469 L6.40929936,5.64681481 L6.4835414,27.6568889 C6.76115924,30.4622222 8.54336306,31.7339259 11.8368662,31.4696296 L11.912293,31.9002469 L0.0754267516,31.8275556 L0.149273885,31.4696296 C2.10918471,31.2590617 3.99840764,30.7332346 5.35174522,28.0167901 L5.35174522,5.64681481 C4.8983949,2.75930864 2.86621656,1.84395062 0,1.83604938 L0,1.3331358 Z" id="Fill-1" fill="#231916"></path>
                                <path d="M67.2955503,0.912434568 C74.0551299,0.912434568 79.932493,7.77821235 79.932493,16.198163 C79.932493,24.6153481 74.327614,31.5700148 67.5680344,31.5700148 C60.8072701,31.5700148 54.929907,24.6153481 54.929907,16.198163 C54.929907,7.77821235 60.5375503,0.912434568 67.2955503,0.912434568 M67.3350408,0.50828642 C77.3778561,0.50828642 85.5681745,7.50878025 85.5681745,16.198163 C85.5681745,24.8867556 77.3778561,31.9737679 67.3350408,31.9737679 C57.2918306,31.9737679 49.1015121,24.8867556 49.1015121,16.198163 C49.1015121,7.50878025 57.2918306,0.50828642 67.3350408,0.50828642" id="Fill-3" fill="#231916"></path>
                                <path d="M167.627702,12.3727012 C171.91202,12.3727012 175.403766,16.550084 175.403766,21.9169975 C175.403766,27.2854914 171.91202,31.5268741 167.627702,31.5268741 C163.346938,31.5268741 159.854403,27.2854914 159.854403,21.9169975 C159.854403,16.550084 163.346938,12.3727012 167.627702,12.3727012 M167.655345,11.8618864 C174.017651,11.8618864 179.204721,16.3758617 179.204721,21.9169975 C179.204721,27.4585284 174.017651,31.9736889 167.655345,31.9736889 C161.29225,31.9736889 156.10281,27.4585284 156.10281,21.9169975 C156.10281,16.3758617 161.29225,11.8618864 167.655345,11.8618864" id="Fill-5" fill="#231916"></path>
                                <g id="Group-9" transform="translate(182.050955, 28.418252)">
                                    <mask id="mask-2" fill="white">
                                        <use xlink:href="#path-1"></use>
                                    </mask>
                                    <g id="Clip-8"></g>
                                    <path d="M2.10642038,0.0917728395 C3.09052229,0.0917728395 3.88901911,0.868859259 3.88901911,1.82372346 C3.88901911,2.7801679 3.09052229,3.55567407 2.10642038,3.55567407 C1.12271338,3.55567407 0.327770701,2.7801679 0.327770701,1.82372346 C0.327770701,0.868859259 1.12271338,0.0917728395 2.10642038,0.0917728395" id="Fill-7" fill="#231916" mask="url(#mask-2)"></path>
                                </g>
                                <path d="M150.022071,0.598597531 L149.984161,10.6505481 L149.450645,10.6422519 C147.469409,4.98457284 144.814466,1.74901728 141.398148,1.12758519 C139.351358,0.508128395 137.112645,0.830103704 135.49788,1.27257284 C121.482721,5.11770864 123.769218,30.0464988 138.960403,30.233758 C141.80253,30.2681284 145.889001,29.3594864 147.728861,27.1147457 C149.456568,25.0063012 149.772097,22.1041778 149.791842,22.1041778 L150.593498,22.0682272 C150.222288,26.7501037 147.051995,29.6455111 143.282237,31.0175605 C136.087473,33.6399802 125.802976,30.7169185 122.300963,24.0810667 C120.814148,21.2646716 120.211524,18.3740049 120.45281,15.2518321 C121.219715,5.41519012 128.527817,-0.163871605 137.817154,0.0036345679 C139.298836,0.0285234568 141.726708,0.295980247 143.549982,0.766103704 C144.982301,1.13746173 145.918619,1.54990617 146.851778,1.67514074 C147.75374,1.78852346 148.668339,1.57637531 149.315587,0.950202469 C149.53239,0.741609877 149.585307,0.598597531 149.585307,0.598597531 L150.022071,0.598597531 Z" id="Fill-10" fill="#231916"></path>
                                <g id="Group-14" transform="translate(90.433121, 7.875042)">
                                    <mask id="mask-4" fill="white">
                                        <use xlink:href="#path-3"></use>
                                    </mask>
                                    <g id="Clip-13"></g>
                                    <path d="M8.72608535,0.39597037 C3.6555121,0.51922963 6.98179236,7.10056296 9.01515541,8.78313086 C12.612735,7.7958716 12.9148369,0.292464198 8.72608535,0.39597037 M3.01655669,17.2710321 C3.20690064,18.8583901 3.94616178,20.1040198 4.7182,20.9996247 C7.04063312,23.6911802 11.3083656,23.760316 14.6200344,19.5454025 C11.7814611,16.7614025 9.13007261,13.954884 6.72076051,10.8504889 C4.58709172,12.4544395 2.69786879,14.690884 3.01655669,17.2710321 M16.2498051,16.930884 C17.3563274,15.7575506 19.0488879,12.3789827 18.4869389,10.8540444 C18.2567096,10.2310321 17.5454866,9.84466173 16.2363783,9.83992099 L16.2363783,9.14500741 L23.4540471,9.15448889 L23.4639197,9.85809383 C22.6689771,9.79883457 21.5257287,10.1638716 21.0095885,10.5518222 C19.3608624,11.7840198 18.9876777,14.5083654 16.775028,17.5456 C17.9644803,18.8109827 20.3232446,21.2315259 22.3502892,22.2468346 C23.5658051,22.8583901 24.9850917,22.3930074 25.2082127,21.2248099 L25.9245694,21.2184889 C25.3282637,23.824316 22.4719197,24.8186864 19.627028,23.5501432 C17.5537796,22.6264889 15.8849134,20.7369086 15.1357796,20.1071802 C10.7957796,25.7486617 2.09011083,24.9304889 0.588684076,20.1486617 C-0.432933758,16.8945383 0.782582166,12.9707852 6.33454395,10.3641679 C5.81563949,9.83320494 2.89808535,6.77858765 3.25626369,4.16920494 C3.61444204,1.54955062 6.03244204,0.139575309 8.66566497,0.0475259259 C13.5293083,-0.116819753 15.3889134,3.03853827 14.5066968,5.53137778 C13.8791936,7.30125432 11.8470153,8.47774815 9.38991975,9.34885926 C10.8518561,11.1953778 14.1994611,14.9425383 16.2498051,16.930884" id="Fill-12" fill="#231916" mask="url(#mask-4)"></path>
                                </g>
                            </g>
                        </g>
                        <g id="icon/epo" transform="translate(198.000000, 18.000000)">
                            <g id="Page-1">
                                <path d="M63.6399911,6.34695486 C64.0191798,5.83855771 64.4443774,5.45683486 64.914814,5.20270914 C65.3859244,4.94804914 65.902418,4.82084057 66.4648243,4.82084057 C67.1032224,4.82084057 67.6321327,4.94804914 68.0525658,5.20270914 C68.472614,5.45683486 68.7460206,5.76987771 68.8723527,6.14290629 C68.9989735,6.515352 69.0621155,7.11962914 69.0621155,7.95544629 L69.0621155,10.0088034 C69.0621155,10.8808063 69.0795373,11.4107691 69.1142846,11.5985463 C69.1489357,11.7862749 69.2516858,11.9240234 69.422198,12.011792 C69.5930471,12.099852 69.7114864,12.1437606 70.1726346,12.1437606 L70.1726346,12.5613291 L66.5579972,12.5613291 L66.5579972,12.1437606 L66.7380866,12.1437606 C67.199331,12.1437606 67.3006373,12.0797434 67.4364985,11.9526806 C67.5722633,11.825472 67.6510945,11.6757263 67.6731846,11.502812 C67.6953709,11.3304806 67.7065844,10.8322349 67.7065844,10.0088034 L67.7065844,7.77344914 C67.7065844,7.15566914 67.6686607,6.69836914 67.5929096,6.40169486 C67.5171103,6.10516629 67.3384166,5.85978343 67.0574541,5.66598343 C66.7759622,5.472232 66.4235799,5.37547771 66.0003073,5.37547771 C65.5076363,5.37547771 65.0652094,5.51322629 64.6733634,5.78852914 C64.2815655,6.06422057 63.9372204,6.47751486 63.6399911,7.02846057 L63.6399911,10.0088034 C63.6399911,10.8441834 63.654429,11.3592834 63.6828237,11.5528891 C63.7111702,11.7471749 63.8076157,11.8935691 63.9717752,11.9938691 C64.1361272,12.0936834 64.2390217,12.1437606 64.6749515,12.1437606 L64.6749515,12.5613291 L61.1263919,12.5613291 L61.1263919,12.1437606 L61.325395,12.1437606 C61.7805273,12.1437606 61.8786091,12.0813949 62.0142778,11.9574406 C62.150187,11.8334377 62.2289701,11.6849549 62.2513489,11.5122834 C62.2733427,11.3397091 62.2847487,10.8384034 62.2847487,10.0088034 L62.2847487,2.59510343 C62.2847487,1.84404343 62.210297,1.36882057 62.0617786,1.16890057 C61.9133565,0.969320571 61.7554053,0.869312 61.1928546,0.869312 L61.1928546,0.451306286 C62.1723733,0.451306286 62.7901733,0.323709143 63.4410842,0.069632 L63.6399911,0.069632 L63.6399911,6.34695486 Z" id="Fill-1" fill="#231916"></path>
                                <g id="Group-5" transform="translate(0.000000, 0.195694)">
                                    <mask id="mask-6" fill="white">
                                        <use xlink:href="#path-5"></use>
                                    </mask>
                                    <g id="Clip-4"></g>
                                    <path d="M9.65455689,9.17165543 C9.55065177,10.0995154 9.21780887,10.714284 8.80700103,11.1253926 C8.54711791,11.3702411 8.20084771,11.538784 7.8476473,11.659144 L7.84995737,11.6609411 C7.8124187,11.6734726 7.77444689,11.6830411 7.73647508,11.694844 C7.67997456,11.7124269 7.62414782,11.7300097 7.56793606,11.7448726 C6.42464283,12.0589354 5.22143211,12.0020097 4.5581045,11.9306583 C4.37897766,11.9173983 4.22068958,11.8960269 4.08299966,11.8659611 C4.05941767,11.861784 4.0429584,11.8588697 4.0429584,11.8588697 L4.04281403,11.8578011 C3.77142867,11.7935897 3.58513097,11.6953783 3.48671227,11.5616126 C3.29767136,11.3042326 3.20305466,10.4458297 3.20305466,8.98611257 L3.20305466,6.06968971 L4.57355311,6.06968971 C5.10693915,6.06968971 5.73089928,6.10485543 5.95468752,6.17431257 C6.17852389,6.24406114 6.34841045,6.39540971 6.4652616,6.628504 C6.58182399,6.861744 6.64000894,7.01003257 6.64000894,7.69450114 L7.061934,7.69450114 L7.061934,4.11527257 L6.64000894,4.11527257 C6.64000894,4.72086114 6.60145961,4.80241257 6.52489034,5.01160971 C6.44812857,5.22036971 6.28878171,5.37623543 6.0467054,5.47954686 C5.8042922,5.58217829 5.13466002,5.63380971 4.52739979,5.63380971 L3.20305466,5.63380971 L3.20305466,0.464789714 L4.92733104,0.464789714 C5.03816638,0.464789714 5.1467879,0.465324 5.25329185,0.466975429 C5.25329185,0.466975429 5.98582537,0.438706857 6.68669165,0.536189714 C6.76427157,0.548915429 7.56288278,0.686275429 7.92546786,1.03914686 C8.31947955,1.41363257 8.52738604,1.79117829 8.63047301,2.65842114 L8.92957924,2.65842114 L8.68774355,0.0466382857 L0.158572018,0.0466382857 L0.158572018,0.429624 L0.378028876,0.429624 C0.378028876,0.429624 0.63223307,0.440504 0.781377106,0.468772571 C0.926141629,0.505395429 1.06489034,0.567032571 1.15464627,0.680106857 C1.36712479,0.947104 1.3460935,1.07669257 1.37824201,1.76742686 C1.37881953,1.777384 1.37896391,1.78845829 1.3796858,1.798804 C1.38199587,1.84480114 1.38396906,1.886524 1.38651977,1.93834971 L1.38560536,1.93868971 C1.39807013,2.24468971 1.40519285,2.65443829 1.40519285,3.11717829 L1.40519285,9.15858971 C1.40519285,9.34529829 1.40398969,9.514764 1.40259402,9.675924 L1.40278652,9.675924 C1.40278652,9.675924 1.43411688,11.1711954 1.2986889,11.494924 C1.16600413,11.8119011 0.802841526,11.9063726 0.58776418,11.9286669 L0.58776418,11.9293469 C0.449977999,11.9516411 -4.8126504e-06,11.9476583 -4.8126504e-06,11.9476583 L-4.8126504e-06,12.365664 L9.6523912,12.365664 L9.97772637,9.139064 L9.66013957,9.139064 C9.66013957,9.139064 9.65807013,9.15212971 9.65455689,9.17165543" id="Fill-3" fill="#231916" mask="url(#mask-6)"></path>
                                </g>
                                <path d="M72.9512039,2.84231743 C73.2080069,2.84231743 73.4255387,2.75153743 73.6046655,2.57012314 C73.7842255,2.38827171 73.8737889,2.168486 73.8737889,1.91071743 C73.8737889,1.65877743 73.7842255,1.44166314 73.6046655,1.26024886 C73.4255387,1.07849457 73.2080069,0.987811714 72.9512039,0.987811714 C72.6943527,0.987811714 72.4751846,1.07849457 72.2929777,1.26024886 C72.1107707,1.44166314 72.0199079,1.65877743 72.0199079,1.91071743 C72.0199079,2.168486 72.1107707,2.38827171 72.2929777,2.57012314 C72.4751846,2.75153743 72.6943527,2.84231743 72.9512039,2.84231743" id="Fill-6" fill="#231916"></path>
                                <path d="M73.9324359,11.979866 C73.7739553,11.8707746 73.6822262,11.7134517 73.6570079,11.5073631 C73.6316452,11.3016631 73.6188436,10.8019603 73.6188436,10.0084489 L73.6188436,4.820826 L73.4104558,4.820826 C72.7911158,5.03293743 72.1161898,5.193466 70.991714,5.302266 L70.991714,5.72036886 L71.2476026,5.72036886 C71.6013805,5.72036886 71.6519615,5.74465457 71.7943678,5.79308029 C71.9366779,5.84145743 72.0502564,5.962886 72.1355847,6.15663743 C72.2207205,6.35058314 72.26312,6.883266 72.26312,7.75551171 L72.26312,10.0084489 C72.26312,10.8383889 72.2521471,11.3396946 72.2299608,11.5122689 C72.207967,11.6846489 72.1287989,11.8330831 71.9932747,11.9570374 C71.8575579,12.0813803 71.7625562,12.1433574 71.3137766,12.1433574 L70.991714,12.1433574 L70.991714,12.5613631 L74.7790292,12.5613631 L74.7790292,12.1433574 L74.5796892,12.1433574 C74.174416,12.1433574 74.0905315,12.089006 73.9324359,11.979866" id="Fill-8" fill="#231916"></path>
                                <g id="Group-12" transform="translate(20.838776, 0.001409)">
                                    <mask id="mask-8" fill="white">
                                        <use xlink:href="#path-7"></use>
                                    </mask>
                                    <g id="Clip-11"></g>
                                    <path d="M9.50312685,10.843144 C8.7416693,11.8361869 7.70617944,12.3328297 6.39535785,12.3328297 C4.90146305,12.3328297 3.78136679,11.8361869 3.0343472,10.843144 C2.28780887,9.84990686 1.91410657,8.36294114 1.91410657,6.382344 C1.91410657,4.43229829 2.28780887,2.95873829 3.0343472,1.96224686 C3.78136679,0.966435429 4.85555036,0.468044 6.25814919,0.468044 C7.68288622,0.468044 8.77049708,0.978384 9.52016363,1.99886971 C10.2696858,3.01945257 10.6446875,4.48664971 10.6446875,6.40065543 C10.6446875,8.36876971 10.264055,9.84990686 9.50312685,10.843144 M12.4485651,5.31498686 C11.6821506,1.63817829 9.05579099,0.514089714 7.47690478,0.168989714 C6.49733792,-0.0341845714 5.64439189,0.0598497143 5.19715229,0.142712571 C3.6392011,0.457164 0.911727741,1.541764 0.117688553,5.28001543 C0.105849433,5.34490686 -0.0768387762,6.395604 0.164900653,7.71460971 C1.02107116,11.3339097 3.72424063,12.3681411 5.24508628,12.664864 C5.5543472,12.7184869 6.38934204,12.8308811 7.25802544,12.6777354 C8.7679945,12.3953411 11.5291564,11.3774297 12.3954816,7.71533829 C12.6171042,6.50537543 12.4818687,5.52049257 12.4485651,5.31498686" id="Fill-10" fill="#231916" mask="url(#mask-8)"></path>
                                </g>
                                <path d="M81.5947961,8.84102971 C81.5955662,10.0510411 81.3583025,10.9510697 80.9003307,11.5448554 C80.4387975,12.1415554 79.8260509,12.4344411 79.0304716,12.4362869 C78.1176562,12.4344411 77.4522592,12.1379126 77.0033352,11.5456326 C76.5540261,10.9518469 76.3213826,10.0470583 76.3213826,8.82888686 C76.3213826,7.63062971 76.5532561,6.73468114 77.0033352,6.13870971 C77.4542324,5.54200971 78.0903204,5.246404 78.945384,5.24533543 C79.8134417,5.24732686 80.4573262,5.54963543 80.9103891,6.16080971 C81.3622489,6.77290686 81.5955662,7.66433829 81.5947961,8.84102971 M82.8844421,8.15626971 L82.8836721,8.15121829 C82.3992307,5.83508971 80.7213001,5.11302686 79.7226751,4.89877829 C79.4442152,4.840784 79.1831289,4.82048114 78.9532767,4.82048114 C78.665769,4.82048114 78.4277353,4.85146971 78.2687253,4.881924 C77.2812657,5.07659829 75.5385569,5.77388971 75.0365975,8.12979829 C75.0308704,8.15991257 74.9862571,8.41326114 74.9862571,8.79478971 C74.9862571,9.04109543 75.0050265,9.34233543 75.0655696,9.67004686 C75.6082922,11.956304 77.335023,12.6198869 78.2975531,12.8038269 C78.4237889,12.8255869 78.6772231,12.8611411 78.986099,12.8611411 C79.169846,12.8611411 79.3741911,12.8476869 79.5826751,12.8117926 C80.53866,12.6366926 82.3018226,11.983504 82.8494541,9.67402971 C82.9112485,9.343064 82.9288147,9.04187257 82.9288147,8.79478971 C82.9288147,8.465524 82.8957037,8.22985543 82.8844421,8.15626971" id="Fill-13" fill="#231916"></path>
                                <path d="M46.4946641,0.242322857 L36.9747604,0.242322857 L36.9747604,0.660474286 L37.2020619,0.660474286 C37.8527322,0.660474286 37.8798274,0.714874286 38.0727666,0.823625714 C38.265032,0.932717143 38.3914603,1.12957714 38.4519072,1.41410857 C38.5117766,1.69902857 38.5421444,2.33191429 38.5421444,3.31286286 L38.5421444,9.35432286 C38.5421444,10.3022429 38.5160117,10.9290086 38.4652864,11.2428771 L38.4658157,11.2436543 C38.4658157,11.2436543 38.4625913,11.2637629 38.4568161,11.2926143 C38.4551317,11.3013086 38.4535435,11.3130629 38.4519072,11.3214171 C38.4502709,11.3288486 38.4474314,11.3357457 38.4456026,11.3433714 C38.4012781,11.5296914 38.2645988,11.9251114 37.9234782,12.06218 C37.8890677,12.0763143 37.8561973,12.0893314 37.8249632,12.0980743 C37.8210168,12.0988029 37.8179367,12.1011343 37.8138941,12.1018629 L37.8133647,12.1006 C37.787232,12.1074486 37.7603293,12.11454 37.7382393,12.1185229 C37.6439594,12.1350371 37.5500165,12.1433429 37.2967748,12.1433429 L36.898528,12.1433429 L36.898528,12.5613486 L42.0901746,12.5613486 L42.0901746,12.1433429 L41.8514672,12.1433429 C41.2637944,12.1433429 41.0643582,12.07102 40.8592912,11.9256943 C40.6539354,11.7809029 40.5260633,11.5583 40.4754823,11.2589057 C40.4248532,10.9598029 40.3995387,10.32614 40.3995387,9.35884 L40.3995387,6.30199714 L41.6034232,6.30199714 C41.7382736,6.30199714 41.8714878,6.30491143 42.0016219,6.30996286 L42.001285,6.30962286 C42.001285,6.30962286 42.7719828,6.32701143 42.9415806,6.38359714 C43.3877614,6.53237143 43.8220069,6.65545143 43.8547329,8.06237143 L44.2082221,8.06237143 L44.2082221,4.18360286 L43.8547329,4.18360286 C43.8547329,4.83917143 43.6436019,5.24061429 43.3661526,5.49002857 C43.3607625,5.49542 43.3559979,5.50178286 43.3506078,5.50707714 C43.3426188,5.51484857 43.3304909,5.52150286 43.3214912,5.52917714 C42.9262764,5.85271143 42.4181086,5.88603143 42.1693427,5.88039714 L42.1693427,5.88117429 L41.6900509,5.88117429 C41.6609343,5.88166 41.633021,5.88404 41.6034232,5.88404 L40.3995387,5.88404 L40.3995387,0.660474286 L43.1088683,0.660474286 C43.1088683,0.660474286 44.018748,0.610834286 44.84046,0.856217143 C45.1049151,0.94214 45.8346573,1.26402286 46.0577236,2.22865143 C46.1214912,2.49977714 46.1738047,2.65637143 46.2213056,3.12396857 L46.5986174,3.12396857 L46.4946641,0.242322857 Z" id="Fill-15" fill="#231916"></path>
                                <path d="M51.5175407,10.8456454 L51.5175407,10.8454511 C51.1236253,11.3556454 50.1143163,11.8486454 49.9739794,11.9157226 C49.9197408,11.9376283 49.8673792,11.9552597 49.8148732,11.9729883 C48.967221,12.237994 48.5265266,11.8718626 48.3927831,11.7272169 C48.1940688,11.4950454 48.0935806,11.1923483 48.0935806,10.8169883 C48.0935806,9.97271971 48.6736975,9.31190543 49.930088,8.682614 C49.930088,8.682614 49.9338419,8.68081686 49.9356226,8.68008829 C50.0285067,8.63370257 50.1249041,8.58726829 50.2251516,8.54156257 C50.4855641,8.413674 50.8561382,8.22332257 51.0841134,8.06983686 C51.2679086,7.93456543 51.437362,7.783994 51.5235565,7.64823686 L51.5175407,10.8456454 Z M53.961549,11.3491369 C53.8635153,11.8022597 53.7089811,12.0106797 53.4957326,12.0579883 C53.4035222,12.0782911 53.2745431,12.0665369 53.2095242,12.0454569 C53.0886786,12.0063083 53.0139381,11.8881826 52.9879979,11.8392226 C52.9643678,11.7910397 52.9445397,11.7393597 52.9296205,11.6846197 C52.8749488,11.4513797 52.8475648,11.0359483 52.8475648,10.435314 L52.8475648,7.42854829 C52.8475648,7.15479971 52.8321162,6.91772257 52.8060798,6.70473686 C52.6728175,5.90068543 52.1819271,5.462474 51.9594383,5.30189686 C51.9268085,5.28105971 51.7458047,5.17138543 51.7309818,5.16380829 C50.8255297,4.683874 49.7642441,4.75993686 49.7642441,4.75993686 C49.3722537,4.75993686 49.0268979,4.82011686 48.7227865,4.90584543 C48.6261966,4.934114 48.5315318,4.96364543 48.4437009,4.99628543 C48.4308993,5.00099686 48.4172314,5.00536829 48.4045741,5.01041971 C47.9562276,5.182994 47.6402289,5.39831114 47.4474823,5.55582829 L47.4472898,5.55582829 C47.4472898,5.55582829 46.8371901,6.02546543 46.854275,6.49884257 L46.8539381,6.49884257 C46.8539381,6.49884257 46.8549969,6.53002543 46.8643334,6.57660543 C46.8672692,6.59307114 46.8718893,6.60977971 46.8769907,6.626634 C46.882044,6.64421686 46.8894555,6.662674 46.8971076,6.68263686 C46.9014871,6.69239971 46.9043747,6.70240543 46.9093799,6.71216829 C46.9328656,6.76311971 46.9690086,6.81528543 47.0177607,6.864974 C47.0242578,6.87221114 47.0314287,6.87910829 47.0386476,6.88634543 C47.0498611,6.89649686 47.0603527,6.90630829 47.0729137,6.91573114 C47.0909612,6.930594 47.1135325,6.94307686 47.1355263,6.95594829 L47.1355263,6.95886257 C47.1355263,6.95886257 47.1451035,6.96430257 47.1587714,6.97134543 L47.1744125,6.97916543 C47.2003527,6.991454 47.2380839,7.00636543 47.2851035,7.01938257 C47.2862104,7.01972257 47.2868842,7.02011114 47.2879911,7.02064543 C47.2884242,7.02064543 47.2890498,7.02064543 47.2895792,7.02083971 C47.3042578,7.02482257 47.3194658,7.02807686 47.3359251,7.03137971 C47.3368395,7.03171971 47.3373689,7.03205971 47.3386201,7.032254 L47.3386201,7.03186543 C47.365571,7.03715971 47.3942063,7.04080257 47.4247185,7.04240543 C47.4259697,7.042794 47.4265473,7.04293971 47.4275098,7.04293971 C47.4316487,7.043134 47.4341513,7.04439686 47.4379051,7.04439686 L47.4379051,7.04332829 C47.4392045,7.04332829 47.4406965,7.04293971 47.4418034,7.04293971 C47.4829997,7.04439686 47.5265541,7.04187114 47.5719374,7.03337114 C47.5807927,7.03186543 47.5880117,7.03298257 47.5967707,7.03137971 C47.9113255,6.95050829 48.1117243,6.651794 48.1959457,6.12911686 C48.2167845,6.00948543 48.2572107,5.90437686 48.3117381,5.80951686 L48.3098611,5.80869114 C48.3173689,5.79450829 48.3276198,5.78435686 48.3358013,5.77095114 C48.3503355,5.74851114 48.3648697,5.725634 48.3812809,5.70460257 C48.4077023,5.67016543 48.4325837,5.64009971 48.4594383,5.61289971 L48.4587164,5.61217114 C48.4587164,5.61217114 48.476427,5.593714 48.5044366,5.56724257 C48.5232059,5.550534 48.537307,5.538974 48.5537181,5.52624829 C48.5634397,5.51828257 48.5676267,5.51323114 48.5793214,5.50453686 L48.5785995,5.50414829 C48.5785995,5.50414829 48.6010265,5.48841114 48.6346188,5.46718543 C48.7056535,5.42079971 48.8019065,5.37004257 48.9259766,5.32219971 C48.9414734,5.31603114 48.9580289,5.31020257 48.9749213,5.304034 C48.9886855,5.29937114 49.0006208,5.29388257 49.0149625,5.28921971 L49.0158769,5.28955971 C49.2045328,5.22452257 49.4476198,5.16958829 49.7392664,5.16958829 C49.7392664,5.16958829 50.6695036,5.09235971 51.2260866,5.77964543 L51.2258941,5.77964543 C51.3165163,5.884074 51.3799952,5.99442829 51.4146463,6.11095114 C51.4785583,6.325734 51.5112843,6.574954 51.5155675,7.03715971 C51.4923224,7.30702257 51.293945,7.55745686 51.0818515,7.71618829 L51.0823809,7.71691686 C51.0823809,7.71691686 51.0735256,7.72308543 51.0598577,7.731974 C51.0104799,7.76728543 50.9611502,7.79919686 50.9129275,7.823094 C50.8963719,7.83144829 50.8716831,7.84232829 50.8450691,7.85432543 C50.7414527,7.90760829 50.6011158,7.97211114 50.4318549,8.03807114 L50.4326731,8.03918829 C50.3836322,8.058374 49.680889,8.33027686 49.606726,8.358934 C49.3764888,8.458554 49.1589089,8.559194 48.9520131,8.66012543 L48.9513393,8.65978543 C48.9513393,8.65978543 48.1165851,9.033494 47.4913737,9.52323971 C47.4897374,9.52450257 47.4875235,9.52576543 47.4860798,9.52688257 C47.4839141,9.52833971 47.4824703,9.53013686 47.4801121,9.531934 C47.4275098,9.57346257 47.3761588,9.61547686 47.3272142,9.65880257 C47.2886167,9.69217114 47.2520887,9.726414 47.2172932,9.76065686 C47.1882248,9.78950829 47.1610815,9.81797114 47.1346119,9.84691971 C47.1189708,9.86396829 47.1012121,9.88028829 47.0864854,9.89767686 C47.0861004,9.89840543 47.0854266,9.89918257 47.0848491,9.89986257 L47.0850416,9.89986257 C46.7661073,10.2772626 46.6460316,10.6977454 46.6460316,11.1620883 C46.6460316,11.6407597 46.8881561,12.0458454 47.2051653,12.3159511 C47.5425321,12.6035426 47.9257154,12.7521711 48.4415352,12.7521711 C48.8453647,12.7521711 49.3034809,12.6430797 49.8162207,12.4250426 C49.8700261,12.4021654 49.9273929,12.3731683 49.9823534,12.347814 C50.1855435,12.2363426 51.2005796,11.6696111 51.4950175,11.3361197 C51.5137869,11.4437054 51.5678329,11.6699511 51.5691805,11.6732054 C51.65422,11.9889197 51.7921506,12.2390626 51.9875442,12.4170769 C52.1227796,12.5388454 52.4114424,12.7424083 52.83356,12.7498397 C53.7927212,12.736774 54.1825459,12.309394 54.3012259,11.3491369 L53.961549,11.3491369 Z" id="Fill-17" fill="#231916"></path>
                                <path d="M19.4634555,1.36752857 C19.0188147,0.9095 18.3876356,0.53142 17.9105576,0.42466 C17.3219704,0.292545714 16.5947308,0.242322857 16.5947308,0.242322857 L10.8709976,0.242322857 L10.8709976,0.660474286 L11.0998872,0.660474286 C11.7296707,0.660474286 11.7719739,0.714825714 11.9616404,0.823625714 C12.1510182,0.932717143 12.2732114,1.12957714 12.3285088,1.41410857 C12.3835655,1.69902857 12.410757,2.33191429 12.410757,3.31286286 L12.410757,9.35432286 C12.410757,10.3841829 12.3835655,11.0395571 12.3285088,11.3214171 C12.3152259,11.3875714 12.2975634,11.44882 12.2762434,11.50662 L12.2769653,11.5070086 C12.2762434,11.5078829 12.2759065,11.509 12.2755696,11.5098743 C12.2504957,11.5778743 12.2193579,11.6398514 12.1831667,11.6963886 C12.0409048,11.9318629 11.851912,12.04042 11.6987253,12.0907886 C11.6933352,12.09278 11.6870306,12.0944314 11.6813517,12.0964229 C11.5456831,12.1379029 11.4429811,12.13664 11.4429811,12.13664 L11.4429811,12.1353771 C11.3761815,12.1404771 11.300286,12.1433429 11.2009529,12.1433429 L10.8709976,12.1433429 L10.8709976,12.5613486 L15.5860956,12.5613486 L15.5860956,12.1433429 L15.3180309,12.1433429 C15.2718776,12.1433429 15.2327989,12.14208 15.1952121,12.1406714 L15.1952121,12.1412057 C15.1929502,12.1412057 15.1915064,12.1404771 15.1895332,12.1404771 C15.0109357,12.1328514 14.9190622,12.1078371 14.8446105,12.0657743 C14.568605,11.9416257 14.4333695,11.7056657 14.4047343,11.6494686 L14.4047343,11.6491286 C14.4005954,11.6416486 14.396649,11.6336829 14.396649,11.6336829 L14.3975634,11.6330029 C14.3400523,11.52532 14.2993372,11.4009771 14.2774878,11.2577886 C14.2313345,10.9576171 14.208715,10.3232743 14.208715,9.35432286 L14.208715,0.587617143 C14.4288938,0.563525714 14.7466731,0.551188571 15.1625823,0.551188571 C15.6819636,0.551188571 16.4365871,0.55046 16.9249749,0.812745714 C17.7215648,1.24066 18.5182991,2.32394857 18.4605473,3.54231429 C18.4376391,4.02205429 18.4508257,5.52048286 17.1552121,6.07686857 C17.0466387,6.12364286 16.5602241,6.31433429 16.2497601,6.37631143 C15.8785122,6.45028571 15.2481031,6.44445714 15.1154665,6.44445714 L15.1154665,6.88674857 L15.575219,6.88674857 C16.999956,6.88674857 18.1435861,6.52168571 18.5858206,6.28713429 C19.10679,6.01095714 19.5392547,5.68810286 19.8414892,5.17246857 C20.1242324,4.69127143 20.290702,4.17670571 20.3095675,3.54396571 C20.2873331,2.37762 19.7536583,1.68202857 19.4634555,1.36752857" id="Fill-19" fill="#231916"></path>
                                <path d="M91.6854802,12.1379126 L91.6854802,12.1386897 C91.6815339,12.1386897 91.6790794,12.1375726 91.6750368,12.1373783 C91.6086703,12.1332011 91.5565975,12.1266926 91.5143905,12.1183869 C91.2117229,12.0621411 91.0689316,11.8751411 91.0066559,11.7259783 C90.998715,11.7076669 90.9931805,11.687704 90.9868759,11.6681297 C90.978165,11.6385983 90.9708979,11.6141183 90.9665665,11.5934754 C90.9655559,11.5887154 90.9637752,11.5849269 90.9630052,11.5800697 C90.9626201,11.5773011 90.9619945,11.5729783 90.9616095,11.5699183 C90.9581444,11.550004 90.9567006,11.5365497 90.9567006,11.5365497 L90.9570856,11.5365497 C90.929461,11.3210869 90.9154562,10.8140983 90.9154562,10.008444 L90.9154562,7.682844 C90.9154562,6.99225543 90.8586669,6.46695543 90.745329,6.10645829 C90.6317023,5.74630114 90.3778831,5.44185543 89.9837752,5.19346114 C89.5891378,4.94535829 89.0826064,4.82082114 88.4631702,4.82082114 C87.9197738,4.82082114 87.496405,4.94841829 86.9981513,5.20273829 C86.4984538,5.45681543 86.0215201,5.84145257 85.5662915,6.35640686 L85.5613826,4.82082114 L85.3274397,4.82082114 C84.59789,5.02278114 83.9153118,5.15873257 83.2169,5.22988971 L83.2169,5.64770114 C83.6723211,5.64770114 83.7863328,5.69505829 83.9537649,5.78889829 C84.1210526,5.88278686 84.222022,6.02252686 84.2571543,6.20704971 C84.2916611,6.39210686 84.309131,6.91823257 84.309131,7.78576686 L84.309131,10.0057726 C84.309131,10.329064 84.3064359,10.5987811 84.3012382,10.8280383 L84.301527,10.8280383 C84.301527,10.8280383 84.312548,11.1321926 84.2803994,11.4238154 C84.2774637,11.4849183 84.2435345,11.6804669 84.2099904,11.7667297 C84.1823658,11.8387126 84.146704,11.8965126 84.0963637,11.947804 C84.045494,11.9989011 83.9438989,12.0458211 83.9267659,12.0529126 C83.7543768,12.1266926 83.4453084,12.1393697 83.3284091,12.1418954 C83.2621389,12.1437411 83.2169,12.1433526 83.2169,12.1433526 L83.2169,12.5613583 L86.562077,12.5613583 L86.562077,12.1433526 C86.4921492,12.1433526 86.4368518,12.1418954 86.3864153,12.1393697 L86.3864153,12.1397583 C86.3842496,12.1397583 86.3826133,12.1393697 86.3804957,12.1393697 C86.3768862,12.1389811 86.3729398,12.1389811 86.369571,12.1386897 C86.3693785,12.1386897 86.3689935,12.1393697 86.3689935,12.1393697 C86.3639402,12.1393697 86.3601863,12.1383011 86.3549887,12.1379126 C86.3420426,12.1373783 86.3311179,12.1361154 86.3192788,12.1353869 C85.9221389,12.1125583 85.741087,11.9044783 85.741087,11.9044783 C85.580922,11.7507497 85.5862159,11.2171926 85.5862159,11.2171926 C85.5728367,10.942424 85.5662915,10.5400583 85.5662915,10.008444 L85.5662915,6.97408971 C85.9396088,6.44718686 86.3366525,6.05205829 86.7581444,5.78850971 C87.1790588,5.524864 87.5221526,5.39323543 87.9843596,5.39323543 C88.3890072,5.39323543 88.7228608,5.49003829 88.9861609,5.68393543 C89.2483059,5.87788114 89.4098185,6.100484 89.4699766,6.35169543 C89.5301348,6.60310114 89.5603101,7.02266114 89.5603101,7.60998686 L89.5603101,10.008444 C89.5603101,10.838384 89.5508773,11.3378926 89.5317229,11.5074069 C89.524504,11.5742897 89.504724,11.6369954 89.4785431,11.6967869 C89.4033214,11.8968526 89.2828127,12.0081297 89.1657209,12.0676297 C89.1646621,12.0686983 89.1633627,12.0694269 89.1617745,12.0703011 C89.1567693,12.0730211 89.1520529,12.0759354 89.1469034,12.0782669 C89.1143699,12.0971611 89.0726442,12.1118297 89.0155662,12.1227097 C88.926099,12.1426726 88.859155,12.1397583 88.859155,12.1397583 C88.8122798,12.1418954 88.7600144,12.1433526 88.6976906,12.1433526 L88.5174087,12.1433526 L88.5174087,12.5613583 L91.8902104,12.5613583 L91.8902104,12.1433526 C91.8070959,12.1433526 91.7427989,12.1411669 91.6854802,12.1379126" id="Fill-21" fill="#231916"></path>
                                <path d="M60.1908415,9.10964429 C60.1695696,9.08458143 60.1451213,9.06029571 60.1210581,9.03571857 C60.0830863,8.99637571 60.0457882,8.95975286 60.0087308,8.92623857 C60.0043994,8.92254714 60.0012712,8.91856429 59.9968917,8.91516429 C59.7605425,8.70256714 59.5573042,8.60139286 59.5573042,8.60139286 L59.5555235,8.60139286 C59.1692121,8.36504429 58.6557023,8.12544143 58.0099409,7.88292429 C57.1807693,7.57250429 56.619518,7.29559857 56.3256576,7.05181857 C56.0249151,6.81440143 55.8744716,6.53127857 55.8744716,6.20235286 C55.8744716,5.90436714 56.0106696,5.64261571 56.2820069,5.41719571 C56.5534404,5.19187286 56.9091915,5.07928429 57.3496452,5.07928429 C57.92211,5.07928429 58.5247982,5.27847571 58.9473489,5.67724714 C59.3690333,6.07621286 59.6534129,6.55284429 59.8002949,7.10636429 L60.2075414,7.10636429 L60.2075414,4.79587 L59.9252795,4.79587 L59.6377717,5.66073286 L59.4309722,5.46246429 C58.938638,4.98364714 58.1639938,4.69362714 57.4145679,4.67225571 C56.3463039,4.68129 55.7280708,5.14490429 55.4519691,5.42550143 C55.0781705,5.84744143 54.8840763,6.28861571 54.8840763,6.75043286 C54.8840763,7.26805857 55.0823094,7.70350143 55.4786311,8.05637286 C55.8744716,8.41580143 56.5276927,8.78120429 57.4380055,9.15224143 C58.3035607,9.50545286 58.8870464,9.80708143 59.1882221,10.0564471 C59.4338597,10.2656443 59.5672183,10.5284643 59.6063451,10.8362129 C59.6063451,10.8362129 59.617318,11.00767 59.6120241,11.0472071 C59.6002812,11.19739 59.5599512,11.4089671 59.446517,11.6188443 L59.4473352,11.6191843 C59.445362,11.6230214 59.4431,11.6262757 59.4412231,11.6300643 C59.4392499,11.6340471 59.4368917,11.6380786 59.4345816,11.6416729 C59.3374142,11.8312471 59.1953448,11.9693843 59.0399443,12.0710443 C59.0401368,12.0712386 59.0404737,12.0715786 59.0404737,12.0715786 C59.035276,12.0750271 59.0293565,12.0774071 59.0237738,12.0806614 C58.9862351,12.1045586 58.9482633,12.1285043 58.9094734,12.1484186 C58.9074039,12.1499243 58.8996556,12.1549271 58.8996556,12.1549271 C58.898693,12.15551 58.893736,12.1571129 58.8905115,12.15857 C58.7438219,12.2314271 58.5948223,12.2773271 58.4657951,12.30579 C58.4532822,12.3097729 58.4440901,12.3121043 58.4436088,12.3124443 C58.4314809,12.3148243 58.4144441,12.3177386 58.3961079,12.3206043 C58.0733716,12.39079 57.7640626,12.3912757 57.5312265,12.3735471 L57.5312265,12.3737414 C57.5306971,12.3737414 57.5303121,12.3735471 57.5295421,12.3735471 C57.3904565,12.3630071 57.2801506,12.3460071 57.2105596,12.3332814 C55.5457676,12.05181 55.2630244,10.7175043 55.2630244,10.7175043 L55.1184043,10.7175043 L54.8823919,10.7175043 L54.8150629,10.7175043 C54.9297965,11.1825757 55.1100303,11.5452586 55.3257814,11.8288671 C55.3522991,11.86243 56.0920034,12.7864043 57.558418,12.8527529 C57.558418,12.8527529 58.9718934,13.0207614 59.9752348,12.0625443 C59.9758604,12.0621557 59.9763898,12.0616214 59.9770155,12.0610871 L59.9768711,12.0610871 C60.0251901,12.0150414 60.0721134,11.9654014 60.1181705,11.9137214 C60.131309,11.8994414 60.1456989,11.8872986 60.158308,11.8723871 C60.1707728,11.8584471 60.1827563,11.8447014 60.1947879,11.8308586 C60.1984455,11.8261957 60.2027769,11.8225529 60.2063864,11.8178414 L60.2056645,11.8178414 C60.3845988,11.6086929 60.5002468,11.3973586 60.5753242,11.2180814 C60.5758536,11.2168186 60.5765755,11.21541 60.5773936,11.2140986 L60.576768,11.2146329 C60.626627,11.0957786 60.6587755,10.9909614 60.6778817,10.91179 C60.6868814,10.8590414 60.7026669,10.8090129 60.7076721,10.7542729 C60.789054,9.99850143 60.5000062,9.45906714 60.1908415,9.10964429" id="Fill-23" fill="#231916"></path>
                                <path d="M102.871788,7.42330257 L107.972187,7.42330257 L107.972187,7.84563114 C107.408385,7.84563114 107.026164,7.90284829 106.825669,8.01728257 C106.625174,8.13161971 106.492826,8.32235971 106.429011,8.58921114 C106.365002,8.85620829 106.333046,9.50293686 106.333046,10.5293969 L106.333046,11.7964797 C106.193528,11.7731654 106.068543,11.761314 105.958189,11.761314 C105.510564,11.761314 104.923565,11.8992083 104.197048,12.1748511 C103.208866,12.5502111 102.293404,12.7380369 101.450661,12.7380369 C99.7592547,12.7380369 98.3526133,12.1763569 97.2308326,11.0529969 C96.1090519,9.929734 95.5481856,8.50557114 95.5481856,6.78094543 C95.5481856,5.07395114 96.0828711,3.57804829 97.1524345,2.29338257 C98.2217573,1.00871686 99.6749371,0.366359714 101.511733,0.366359714 C103.092593,0.366359714 104.400479,0.953005429 105.435102,2.12619971 C105.626838,1.71562543 105.748935,1.272654 105.8012,0.797528286 L106.219757,0.797528286 L106.219757,4.78354257 L105.8012,4.78354257 C105.632565,3.55755114 105.171994,2.58680257 104.419344,1.87100543 C103.666549,1.15540257 102.752579,0.797528286 101.677385,0.797528286 C100.567058,0.797528286 99.5993785,1.21412543 98.7740571,2.04702829 C97.9486875,2.88002829 97.5360509,4.35829971 97.5360509,6.481794 C97.5360509,8.59950829 97.9341052,10.0997826 98.7304545,10.9825683 C99.5267075,11.8654997 100.514793,12.3068683 101.694758,12.3068683 C102.299275,12.3068683 102.848495,12.1822826 103.34261,11.9329169 C103.83658,11.6836483 104.173755,11.3800769 104.35394,11.0222026 C104.53403,10.6644254 104.624267,10.2126626 104.624267,9.66705971 C104.624267,9.02776257 104.581964,8.601014 104.497838,8.386814 C104.413521,8.17275971 104.284205,8.02908543 104.109843,7.95564543 C103.93548,7.88235114 103.615776,7.84563114 103.150778,7.84563114 L102.871788,7.84563114 L102.871788,7.42330257 Z" id="Fill-25" fill="#231916"></path>
                                <path d="M110.926023,6.86018 C111.123583,6.33813429 111.444779,5.90104 111.889516,5.54909143 C112.334109,5.19714286 112.768547,5.02116857 113.192878,5.02116857 C113.576542,5.02116857 113.878681,5.14143143 114.099629,5.38186 C114.320434,5.62253143 114.430884,5.86888571 114.430884,6.12102 C114.430884,6.29126286 114.374191,6.43780286 114.260949,6.56098 C114.147563,6.68420571 114.009392,6.74579429 113.846773,6.74579429 C113.556041,6.74579429 113.335284,6.52882571 113.184215,6.09464571 C113.079588,5.80137143 112.9226,5.65468571 112.713394,5.65468571 C112.463328,5.65468571 112.164078,5.82628857 111.815353,6.16939714 C111.46658,6.51260286 111.242792,6.86897143 111.143988,7.23850286 C111.045136,7.60808286 110.995759,8.11555714 110.995759,8.76078 L110.995759,10.0454457 C110.995759,10.8139914 111.005913,11.2979571 111.026319,11.4973429 C111.046628,11.6968257 111.129454,11.8492914 111.274748,11.9549343 C111.419994,12.06048 111.67877,12.1132771 112.050788,12.1132771 L112.294886,12.1132771 L112.294886,12.5180229 L108.502325,12.5180229 L108.502325,12.1132771 L108.685398,12.1132771 C109.034122,12.1132771 109.2826,12.0648514 109.430829,11.9680971 C109.579059,11.8712943 109.667612,11.7349057 109.696728,11.5589314 C109.725796,11.3829086 109.740331,10.8784943 109.740331,10.0454457 L109.740331,8.01282857 C109.740331,7.23850286 109.73008,6.75322571 109.709818,6.55660857 C109.689413,6.36013714 109.606587,6.20762286 109.461341,6.09901714 C109.315951,5.99055714 109.057271,5.93625429 108.685398,5.93625429 L108.502325,5.93625429 L108.502325,5.5403 C109.048512,5.47579714 109.76348,5.30273714 110.647034,5.02116857 C110.815573,5.48463714 110.90865,6.09765714 110.926023,6.86018" id="Fill-27" fill="#231916"></path>
                                <path d="M116.129326,8.94557486 C116.129326,10.2244606 116.335548,11.1204577 116.748281,11.633712 C117.160966,12.147112 117.739206,12.4036177 118.48329,12.4036177 C119.244651,12.4036177 119.827367,12.147112 120.231341,11.633712 C120.635363,11.1204577 120.83735,10.2244606 120.83735,8.94557486 C120.83735,7.678492 120.636758,6.77516057 120.235768,6.23543486 C119.834682,5.69580629 119.250571,5.42589486 118.48329,5.42589486 C117.721832,5.42589486 117.139117,5.69430057 116.735239,6.23101486 C116.331217,6.76777771 116.129326,7.672712 116.129326,8.94557486 M114.682066,8.90156914 C114.682066,7.79880343 115.048164,6.87638343 115.780602,6.134212 C116.512943,5.39223486 117.413774,5.02114914 118.48329,5.02114914 C119.558532,5.02114914 120.462396,5.39374057 121.194833,6.138632 C121.927174,6.88366914 122.293369,7.80472914 122.293369,8.90156914 C122.293369,10.1158549 121.921351,11.0705749 121.177363,11.7657291 C120.433279,12.4608349 119.535287,12.808412 118.48329,12.808412 C117.431196,12.808412 116.534744,12.4550549 115.793644,11.7480977 C115.052592,11.0412863 114.682066,10.092492 114.682066,8.90156914" id="Fill-29" fill="#231916"></path>
                                <path d="M130.260375,5.31148971 L130.260375,10.036664 C130.260375,10.8228411 130.271925,11.3155497 130.295266,11.5149354 C130.318463,11.7144183 130.404273,11.8640183 130.552406,11.9636869 C130.700636,12.0635011 130.966583,12.1132869 131.350199,12.1132869 L131.350199,12.5180326 C130.466597,12.5296897 129.821509,12.6236269 129.414696,12.7996011 L129.310069,12.7996011 C129.123964,12.4770383 129.025256,11.9196811 129.013609,11.1277726 C128.659062,11.6851783 128.253644,12.1044469 127.797356,12.3860154 C127.341021,12.6676326 126.8368,12.8084411 126.284692,12.8084411 C125.807999,12.8084411 125.3867,12.6984269 125.020505,12.4784469 C124.654311,12.2584669 124.40285,11.9901097 124.266363,11.6733269 C124.129684,11.356544 124.06144,10.878504 124.06144,10.2390126 L124.06144,7.78406686 C124.06144,6.95121257 124.046906,6.442184 124.017838,6.25741829 C123.988721,6.07265257 123.897136,5.93621543 123.743276,5.84825257 C123.589223,5.76024114 123.305806,5.716284 122.893169,5.716284 L122.893169,5.31148971 L125.316965,5.31148971 L125.316965,10.3094411 C125.316965,10.8021983 125.345937,11.1600726 125.404122,11.3829183 C125.46221,11.6059583 125.61044,11.8008754 125.848811,11.9681069 C126.087085,12.1352411 126.363139,12.2188811 126.67702,12.2188811 C127.124548,12.2188811 127.551767,12.0707869 127.958677,11.7745011 C128.36549,11.4783611 128.643084,11.1644926 128.791313,10.8329926 C128.939543,10.5016383 129.013609,10.0278726 129.013609,9.41193829 L129.013609,7.78406686 C129.013609,6.998084 129.004947,6.520044 128.987477,6.34980114 C128.970055,6.17975257 128.895892,6.03165829 128.76518,5.90546971 C128.634421,5.77937829 128.362554,5.716284 127.949917,5.716284 L127.766892,5.716284 L127.766892,5.31148971 L130.260375,5.31148971 Z" id="Fill-31" fill="#231916"></path>
                                <path d="M133.946658,11.1629723 C134.260491,11.5501351 134.593189,11.8420009 134.944898,12.0384723 C135.296558,12.2350894 135.667084,12.3332523 136.056524,12.3332523 C136.713258,12.3332523 137.285819,12.0487694 137.774111,11.4797066 C138.262354,10.910838 138.506452,10.0044951 138.506452,8.76077514 C138.506452,7.68146943 138.271065,6.87489229 137.800243,6.34104371 C137.329422,5.80729229 136.768459,5.54029514 136.1175,5.54029514 C135.71651,5.54029514 135.335733,5.64302371 134.975458,5.848238 C134.614991,6.05369514 134.272089,6.36450371 133.946658,6.78095514 L133.946658,11.1629723 Z M133.562945,5.02116371 L133.798428,5.02116371 C133.897232,5.34970086 133.946658,5.74570371 133.946658,6.20902657 C134.318531,5.810158 134.718174,5.51251229 135.145393,5.31589514 C135.572612,5.11942371 136.024568,5.02116371 136.501213,5.02116371 C137.489202,5.02116371 138.311587,5.37175229 138.968562,6.072638 C139.625297,6.773718 139.953712,7.69914943 139.953712,8.848738 C139.953712,9.97506086 139.623805,10.916618 138.964231,11.6733123 C138.304465,12.4300551 137.436936,12.8084266 136.361646,12.8084266 C135.919845,12.8084266 135.497053,12.7189094 135.093128,12.5400694 C134.689057,12.3611809 134.306933,12.0956894 133.946658,11.7436923 L133.946658,14.4802551 C133.946658,15.313158 133.96254,15.8206323 133.994592,16.0025323 C134.026452,16.1842866 134.118036,16.3206751 134.26925,16.411698 C134.420319,16.5025751 134.7021,16.5480866 135.114929,16.5480866 L135.114929,16.9528323 L131.383344,16.9528323 L131.383344,16.5480866 L131.64496,16.5480866 C132.0575,16.5480866 132.326335,16.487858 132.451367,16.3676923 C132.576256,16.2473809 132.648927,16.1037066 132.669332,15.9365237 C132.689642,15.7693409 132.699893,15.2838694 132.699893,14.4802551 L132.699893,7.93365229 C132.699893,7.16520371 132.689642,6.68128657 132.669332,6.48180371 C132.648927,6.28246657 132.566101,6.12985514 132.420903,6.02426086 C132.275465,5.918618 132.016785,5.86582086 131.64496,5.86582086 L131.383344,5.86582086 L131.383344,5.46107514 C131.958793,5.402498 132.68531,5.25581229 133.562945,5.02116371 Z" id="Fill-33" fill="#231916"></path>
                            </g>
                        </g>
                    </g>
                </g>
            </g>
        </g>
    </g>
</svg>