<?xml version="1.0" encoding="UTF-8"?>
<svg width="20px" height="20px" viewBox="0 0 20 20" version="1.1" xmlns="http://www.w3.org/2000/svg" xmlns:xlink="http://www.w3.org/1999/xlink">
    <!-- Generator: Sketch 49.2 (51160) - http://www.bohemiancoding.com/sketch -->
    <title>订单</title>
    <desc>Created with Sketch.</desc>
    <defs>
        <polygon id="path-1" points="0 0.5084 15.0709 0.5084 15.0709 9.5384 0 9.5384"></polygon>
        <polygon id="path-3" points="0 18.4918 15.071 18.4918 15.071 0.9998 0 0.9998"></polygon>
    </defs>
    <g id="首页" stroke="none" stroke-width="1" fill="none" fill-rule="evenodd">
        <g id="PC首页" transform="translate(-270.000000, -50.000000)">
            <g id="head" transform="translate(0.000000, 36.000000)">
                <g id="Group-20" transform="translate(270.000000, 14.000000)">
                    <g id="Group-15">
                        <g id="Page-1" transform="translate(2.000000, 0.000000)">
                            <g id="Group-3" transform="translate(0.000000, 0.491800)">
                                <mask id="mask-2" fill="white">
                                    <use xlink:href="#path-1"></use>
                                </mask>
                                <g id="Clip-2"></g>
                                <path d="M7.5359,0.5084 C7.1859,0.5084 6.8379,0.5994 6.5259,0.7814 L-0.0001,4.5954 L6.3699,9.1644 C6.7189,9.4134 7.1269,9.5384 7.5359,9.5384 C7.9439,9.5384 8.3519,9.4134 8.7009,9.1644 L15.0709,4.5954 L8.5449,0.7814 C8.2329,0.5994 7.8849,0.5084 7.5359,0.5084 M7.5359,1.5084 C7.7129,1.5084 7.8879,1.5554 8.0399,1.6444 L13.2359,4.6814 L8.1179,8.3514 C7.9469,8.4744 7.7459,8.5384 7.5359,8.5384 C7.3249,8.5384 7.1239,8.4744 6.9529,8.3514 L1.8359,4.6814 L7.0309,1.6444 C7.1839,1.5554 7.3579,1.5084 7.5359,1.5084" id="Fill-1" fill="#020202" mask="url(#mask-2)"></path>
                            </g>
                            <mask id="mask-4" fill="white">
                                <use xlink:href="#path-3"></use>
                            </mask>
                            <g id="Clip-5"></g>
                            <polygon id="Fill-4" fill="#020202" mask="url(#mask-4)" points="0.071 13.0878 1.071 13.0878 1.071 5.0878 0.071 5.0878"></polygon>
                            <polygon id="Fill-6" fill="#020202" mask="url(#mask-4)" points="7.071 18 8.071 18 8.071 9.0878 7.071 9.0878"></polygon>
                            <polygon id="Fill-7" fill="#020202" mask="url(#mask-4)" points="14.071 13.0878 15.071 13.0878 15.071 5.0878 14.071 5.0878"></polygon>
                            <polygon id="Fill-8" fill="#020202" mask="url(#mask-4)" points="7.5359 17.2615 1.0709 12.6255 -0.0001 13.0875 7.5359 18.4915 15.0709 13.0875 14.1819 12.4955"></polygon>
                            <polygon id="Fill-9" fill="#020202" mask="url(#mask-4)" points="5.0711 12.0876 2.0711 10.0876 2.0711 8.0876 5.0711 10.0876"></polygon>
                        </g>
                    </g>
                </g>
            </g>
        </g>
    </g>
</svg>