<?xml version="1.0" encoding="UTF-8"?>
<svg width="23px" height="15px" viewBox="0 0 23 15" version="1.1" xmlns="http://www.w3.org/2000/svg" xmlns:xlink="http://www.w3.org/1999/xlink">
    <!-- Generator: Sketch 52.5 (67469) - http://www.bohemiancoding.com/sketch -->
    <title>icon/待付款</title>
    <desc>Created with Sketch.</desc>
    <g id="Page-1" stroke="none" stroke-width="1" fill="none" fill-rule="evenodd">
        <g id="个人中心" transform="translate(-43.000000, -397.000000)" fill="#000000">
            <g id="icon/待付款" transform="translate(42.000000, 390.000000)">
                <g id="Group-8">
                    <g id="Group" transform="translate(1.000000, 7.000000)">
                        <path d="M1,1 L1,14 L22,14 L22,1 L1,1 Z M1,0 L22,0 C22.5522847,-1.01453063e-16 23,0.44771525 23,1 L23,14 C23,14.5522847 22.5522847,15 22,15 L1,15 C0.44771525,15 6.76353751e-17,14.5522847 0,14 L0,1 C-6.76353751e-17,0.44771525 0.44771525,1.01453063e-16 1,0 Z" id="Rectangle" fill-rule="nonzero"></path>
                        <rect id="Rectangle" x="0" y="4" width="23" height="3"></rect>
                        <rect id="Rectangle" x="3" y="10" width="4" height="1" rx="0.5"></rect>
                    </g>
                </g>
            </g>
        </g>
    </g>
</svg>