<?xml version="1.0" encoding="UTF-8"?>
<svg width="17px" height="19px" viewBox="0 0 17 19" version="1.1" xmlns="http://www.w3.org/2000/svg" xmlns:xlink="http://www.w3.org/1999/xlink">
    <!-- Generator: Sketch 49.2 (51160) - http://www.bohemiancoding.com/sketch -->
    <title>icon/qq/black</title>
    <desc>Created with Sketch.</desc>
    <defs></defs>
    <g id="登录" stroke="none" stroke-width="1" fill="none" fill-rule="evenodd">
        <g id="手机快速登录/注册" transform="translate(-1038.000000, -562.000000)" fill="#000000">
            <g id="icon/qq/black" transform="translate(1034.000000, 560.000000)">
                <g id="Group-3">
                    <path d="M19.3496,15.3994 C19.0696,16.1344 18.6326,16.8084 18.0786,17.3944 C19.2886,17.7594 18.9926,18.3944 18.9926,18.3944 C19.5306,18.6864 19.4956,20.5874 16.5236,20.5534 C14.5426,20.5314 13.7026,19.9794 13.3606,19.6134 C13.1076,19.6374 12.8516,19.6544 12.5926,19.6544 C12.2756,19.6544 11.9666,19.6304 11.6606,19.5954 C11.3296,19.9614 10.4946,20.5314 8.4836,20.5534 C5.5156,20.5874 5.4806,18.6864 6.0176,18.3944 C6.0176,18.3944 5.6946,17.7124 7.0636,17.3544 C6.4776,16.7234 6.0296,15.9914 5.7616,15.1924 C4.5186,17.3804 3.9186,15.9304 4.0086,14.2544 C4.0886,12.7664 5.4116,11.0754 5.7536,10.6614 C5.6906,10.5044 5.6526,10.3374 5.6526,10.1604 C5.6526,9.7964 5.7986,9.4664 6.0366,9.2184 C6.0256,9.1594 6.0176,9.0974 6.0176,9.0354 C6.0176,8.6854 6.2026,8.3784 6.4806,8.2034 C6.4786,8.1504 6.4746,8.0984 6.4746,8.0454 C6.4746,4.7144 9.2136,2.0154 12.5926,2.0154 C15.9716,2.0154 18.7106,4.7144 18.7106,8.0454 C18.7106,8.1454 18.7036,8.2454 18.6996,8.3444 C18.8756,8.5234 18.9846,8.7654 18.9846,9.0354 C18.9846,9.1014 18.9776,9.1674 18.9646,9.2304 C19.2006,9.4764 19.3496,9.7984 19.3496,10.1604 C19.3496,10.3384 19.3116,10.5074 19.2476,10.6654 C19.5926,11.0864 20.9066,12.7764 20.9856,14.2644 C21.0716,15.8944 20.5126,17.3134 19.3496,15.3994" id="Fill-1"></path>
                </g>
            </g>
        </g>
    </g>
</svg>