<?xml version="1.0" encoding="UTF-8"?>
<svg height="19px" version="1.1" viewBox="0 0 20 19" width="20px" xmlns="http://www.w3.org/2000/svg"
>
  <!-- Generator: Sketch 52.5 (67469) - http://www.bohemiancoding.com/sketch -->
  <title>icon/自提凭证</title>
  <desc>Created with Sketch.</desc>
  <g fill="none" fill-rule="evenodd" id="Page-1" stroke="none" stroke-width="1">
    <g fill="#000000" id="个人中心" transform="translate(-44.000000, -578.000000)">
      <g id="icon/自提凭证" transform="translate(42.000000, 576.000000)">
        <g id="Group-2">
          <path
            d="M19.5830074,7 L4.27921974,7 C4.01401738,7 3.79494976,7.20705823 3.78001338,7.47183964 L3.1030903,19.4718396 C3.08753776,19.7475437 3.29843224,19.9836538 3.5741363,19.9992064 C3.58351377,19.9997353 3.59290429,20 3.60229666,20 L20.2599305,20 C20.5360729,20 20.7599305,19.7761424 20.7599305,19.5 C20.7599305,19.4906076 20.7596658,19.4812171 20.7591369,19.4718396 L20.0822138,7.47183964 C20.0672774,7.20705823 19.8482098,7 19.5830074,7 Z M3.86666667,6 L19.9955605,6 C20.5220244,6 20.9583258,6.40818315 20.9933456,6.93348099 L21.8600123,19.933481 C21.8967497,20.4845425 21.4798077,20.9610477 20.9287462,20.9977852 C20.9066039,20.9992613 20.8844186,21 20.8622271,21 L3,21 C2.44771525,21 2,20.5522847 2,20 C2,19.9778086 2.00073869,19.9556233 2.00221484,19.933481 L2.86888151,6.93348099 C2.90390136,6.40818315 3.34020279,6 3.86666667,6 Z"
            fill-rule="nonzero" id="Rectangle-2-Copy"></path>
          <path
            d="M15.8739825,6 C15.4299397,4.27477279 13.8638394,3 12,3 C10.1361606,3 8.57006028,4.27477279 8.12601749,6 L7.10001812,6 C7.56328845,3.71775968 9.58104209,2 12,2 C14.4189579,2 16.4367116,3.71775968 16.8999819,6 L15.8739825,6 Z"
            fill-rule="nonzero" id="Combined-Shape"></path>
          <rect height="1" id="Rectangle-25" width="12" x="6" y="11"></rect>
          <rect height="1" id="Rectangle-25-Copy" width="12" x="6" y="14"></rect>
        </g>
      </g>
    </g>
  </g>
</svg>