<?xml version="1.0" encoding="UTF-8"?>
<svg height="14px" version="1.1" viewBox="0 0 14 14" width="14px" xmlns="http://www.w3.org/2000/svg"
>
  <!-- Generator: Sketch 51.2 (57519) - http://www.bohemiancoding.com/sketch -->
  <title>icon/telephone</title>
  <desc>Created with Sketch.</desc>
  <defs></defs>
  <g fill="none" fill-rule="evenodd" id="21-关于我们" stroke="none" stroke-width="1">
    <g fill="#000000" id="联系我们" transform="translate(-954.000000, -336.000000)">
      <g id="icon/telephone" transform="translate(949.000000, 331.000000)">
        <g id="Group-2">
          <path
            d="M8.34470598,5.22045436 L10.4757648,7.35151316 C10.7706225,7.64545231 10.7706225,8.12218486 10.4757648,8.41612401 L9.26418437,9.62770442 C8.87195932,10.0199295 8.87195932,10.6546543 9.26418437,11.0459608 L12.9540392,14.7358156 C13.3444271,15.1280407 13.9800705,15.1280407 14.3722956,14.7358156 L15.5847946,13.5233167 C15.8778151,13.2293775 16.3545477,13.2293775 16.6475683,13.5233167 L18.7795456,15.655294 C19.0734848,15.9492332 19.0734848,16.4250472 18.7795456,16.7189863 L17.3796605,18.1188715 C16.205741,19.2937095 14.2997294,19.2937095 13.1258099,18.1188715 L5.88112852,10.8741901 C4.70629049,9.69935209 4.70629049,7.79517756 5.88112852,6.61942098 L7.2810137,5.22045436 C7.57495284,4.92651521 8.05168539,4.92651521 8.34470598,5.22045436 Z"
            id="Stroke-1"></path>
        </g>
      </g>
    </g>
  </g>
</svg>