<?xml version="1.0" encoding="UTF-8"?>
<svg width="24px" height="24px" viewBox="0 0 24 24" version="1.1" xmlns="http://www.w3.org/2000/svg" xmlns:xlink="http://www.w3.org/1999/xlink">
    <!-- Generator: Sketch 49.2 (51160) - http://www.bohemiancoding.com/sketch -->
    <title>电话</title>
    <desc>Created with Sketch.</desc>
    <defs></defs>
    <g id="首页" stroke="none" stroke-width="1" fill="none" fill-rule="evenodd">
        <g id="PC首页" transform="translate(-986.000000, -5236.000000)" fill="#000000">
            <g id="Group-4" transform="translate(0.000000, 5206.000000)">
                <g id="客服">
                    <g id="Group-6" transform="translate(736.000000, 30.000000)">
                        <g id="Group-17" transform="translate(250.000000, 0.000000)">
                            <g id="icon/电话" transform="translate(3.000000, 3.000000)">
                                <g id="电话-2">
                                    <path d="M5.89034372,5.30000696 C5.89034372,5.30000696 5.82433168,6.52975419 4.0615255,7.45861972 C4.0615255,7.45861972 6.4635227,12.0766283 10.7375318,13.8032077 C10.7375318,13.8032077 12.4344267,11.9474253 12.9415936,12.0766283 L17.9887823,14.235241 C17.9887823,14.235241 18.3641267,16.2848773 14.7724771,17.6457762 C11.1808527,19.0047511 7.60985547,16.3070278 3.84291255,12.0565004 C0.0760703714,7.80597305 -0.587827944,3.70275389 0.426606667,1.5442398 C1.44101609,-0.61434829 3.68834715,0.120614066 3.68834715,0.120614066 L5.89034372,5.30000696 Z" id="Fill-1"></path>
                                </g>
                            </g>
                        </g>
                    </g>
                </g>
            </g>
        </g>
    </g>
</svg>