<?xml version="1.0" encoding="UTF-8"?>
<svg height="20px" version="1.1" viewBox="0 0 24 20" width="24px" xmlns="http://www.w3.org/2000/svg"
>
  <!-- Generator: Sketch 49.2 (51160) - http://www.bohemiancoding.com/sketch -->
  <title>icon/wechat/black</title>
  <desc>Created with Sketch.</desc>
  <defs></defs>
  <g fill="none" fill-rule="evenodd" id="登录" stroke="none" stroke-width="1">
    <g fill="#000000" id="手机快速登录/注册" transform="translate(-950.000000, -562.000000)">
      <g id="icon/wechat/black" transform="translate(950.000000, 560.000000)">
        <g id="微信-1">
          <path
            d="M23.2380952,14.6580031 C23.2380952,11.469657 19.926475,8.8733818 16.2009752,8.8733818 C12.2539168,8.8733818 9.15440115,11.469657 9.15440115,14.6580031 C9.15440115,17.8543543 12.2539168,20.441529 16.2009752,20.441529 C17.0266627,20.441529 17.8618042,20.2387885 18.6869372,20.0451204 L20.9617867,21.245469 L20.3393042,19.2503091 C21.9991118,18.0495391 23.2380952,16.4512652 23.2380952,14.6580031 Z M13.9151835,13.6598895 C13.5033756,13.6598895 13.0905465,13.2630315 13.0905465,12.8646568 C13.0905465,12.4686695 13.5033756,12.0708285 13.9151835,12.0708285 C14.5397086,12.0708285 14.9530046,12.4686695 14.9530046,12.8646568 C14.9530046,13.2630315 14.5397086,13.6598895 13.9151835,13.6598895 Z M18.4762916,13.6598895 C18.0640169,13.6598895 17.6520924,13.2630315 17.6520924,12.8646568 C17.6520924,12.4686695 18.0640169,12.0708285 18.4762916,12.0708285 C19.0997663,12.0708285 19.513179,12.4686695 19.513179,12.8646568 C19.513179,13.2630315 19.0898454,13.6598895 18.4762916,13.6598895 Z"
            id="Fill-1"></path>
          <path
            d="M15.4199115,8.02657057 C15.6784865,8.02657057 15.9380625,8.04578694 16.1962482,8.07437278 C15.500598,4.58597464 12.028047,2 8.06253528,2 C3.63381284,2 0,5.23837644 0,9.35825918 C0,11.7348828 1.2057658,13.6888954 3.22340149,15.2034379 L2.42001175,17.8087781 L5.24100938,16.2860597 C6.24986893,16.4964551 7.06226709,16.7174434 8.06253528,16.7174434 C8.31212966,16.7174434 8.56311424,16.7077755 8.81323689,16.6802639 C8.65239212,16.1043397 8.56311424,15.4926384 8.56311424,14.8688224 C8.56269718,11.0927755 11.5901377,8.02657057 15.4199115,8.02657057 Z M11.0800221,5.6788312 C11.6869226,5.6788312 12.0883256,6.11021488 12.0883256,6.7620199 C12.0883256,7.4128999 11.6863666,7.84416423 11.0800221,7.84416423 C10.4725655,7.84416423 9.86622101,7.4128999 9.86622101,6.7620199 C9.87522943,6.10964794 10.4811568,5.6788312 11.0800221,5.6788312 Z M5.43747077,7.84320938 C4.83015317,7.84320938 4.22366968,7.41242248 4.22366968,6.76097553 C4.22366968,6.10917051 4.83057023,5.67838361 5.43747077,5.67838361 C6.04537225,5.67838361 6.44733126,6.10964794 6.44733126,6.76097553 C6.44677518,7.4032022 6.04537225,7.84320938 5.43747077,7.84320938 Z"
            id="Fill-3"></path>
        </g>
      </g>
    </g>
  </g>
</svg>