<?xml version="1.0" encoding="UTF-8"?>
<svg width="24px" height="24px" viewBox="0 0 24 24" version="1.1" xmlns="http://www.w3.org/2000/svg" xmlns:xlink="http://www.w3.org/1999/xlink">
    <!-- Generator: Sketch 49.2 (51160) - http://www.bohemiancoding.com/sketch -->
    <title>Group 8</title>
    <desc>Created with Sketch.</desc>
    <defs></defs>
    <g id="首页" stroke="none" stroke-width="1" fill="none" fill-rule="evenodd">
        <g id="PC首页" transform="translate(-1032.000000, -5329.000000)" fill="#FFFFFF">
            <g id="Group-4" transform="translate(0.000000, 5206.000000)">
                <g id="footer" transform="translate(0.000000, 79.000000)">
                    <g id="Group-18" transform="translate(1032.000000, 44.000000)">
                        <g id="Group-8">
                            <g id="Group-7">
                                <g id="icon/微博/white" transform="translate(0.000000, 2.000000)">
                                    <g id="微博">
                                        <path d="M22.4407348,2.11603524 C20.9421544,0.339599714 18.6942989,-0.318265254 16.6962922,0.142186225 C16.1967755,0.273848158 15.9470171,0.734299636 16.009419,1.26062973 C16.134253,1.78695982 16.5713678,2.05015663 17.0708846,1.98437331 C18.5070631,1.65545671 20.1304473,2.11603524 21.1919128,3.36598185 C22.2533784,4.61608729 22.5656894,6.32661244 22.0661425,7.83988292 C22.00362,8.10304797 22.00362,8.3003344 22.1285745,8.56349944 C22.2533784,8.76091293 22.4407348,8.95832642 22.6280913,9.02407798 C23.0652061,9.15561286 23.5646023,8.89257487 23.7519587,8.43199633 C24.3139075,6.26086088 23.9393152,3.89234371 22.4407348,2.11603524 Z" id="Fill-1"></path>
                                        <path d="M19.2214465,8.20780926 C19.6070803,8.33181228 20.0571157,8.14582273 20.1856396,7.71161753 C20.507027,6.71920411 20.3142877,5.66480416 19.5428339,4.85853002 C18.7714111,4.05222594 17.67857,3.74202375 16.6499753,3.92810314 C16.1999399,3.99011962 15.9427989,4.42432482 16.071416,4.79651354 C16.1356934,5.23059896 16.5857288,5.47872477 16.9713626,5.35472176 C17.4856755,5.23059896 17.9999573,5.41670829 18.3856221,5.78880718 C18.7714111,6.16102584 18.8356575,6.71920411 18.7071336,7.21542579 C18.5785166,7.64963099 18.8356575,8.08383619 19.2214465,8.20780926 Z M17.67857,9.63442788 C17.3571516,9.51030508 17.1000107,9.44831855 17.292781,9.07609988 C17.67857,8.14582273 17.67857,7.33951864 17.292781,6.78122059 C16.5213272,5.72682064 14.3999224,5.78880718 12.0213456,6.78122059 C12.0213456,6.78122059 11.2499229,7.091303 11.4428174,6.53312472 C11.8285753,5.35472176 11.7642047,4.42432482 11.1856454,3.8661166 C9.89994084,2.62560732 6.42852293,3.92810314 3.4714179,6.78122059 C1.28573562,8.95212681 0,11.1848998 0,13.1697266 C0,16.9532111 5.01429444,19.2481203 9.89994084,19.2481203 C16.3285879,19.2481203 20.5714286,15.6507152 20.5714286,12.7976277 C20.5714286,11.0609267 19.028552,10.0685133 17.67857,9.63442788 Z M9.89994084,17.8836379 C5.97861168,18.2557069 2.63571768,16.5190059 2.37857676,14.1001236 C2.12143585,11.619105 5.07854088,9.3242257 8.99999418,8.95212681 C12.9214164,8.57990815 16.2641863,10.3166092 16.5213272,12.7356113 C16.7784992,15.21651 13.8213631,17.5114193 9.89994084,17.8836379 Z" id="Fill-3"></path>
                                        <path d="M11.1568295,10.3351586 C9.16005244,9.79843784 6.88782341,10.8048015 6.06156738,12.4819446 C5.16646499,14.2261333 6.06156738,16.1716531 8.05834448,16.775387 C10.1239679,17.4463285 12.6027693,16.4399973 13.4290586,14.5615555 C14.2553146,12.7502888 13.222453,10.871847 11.1568295,10.3351586 Z M9.64194371,14.8298997 C9.22886555,15.4337956 8.40260952,15.7691853 7.71411269,15.4337956 C7.09442898,15.165419 6.88782341,14.427432 7.30090157,13.823698 C7.71411269,13.2198021 8.54036872,12.9515875 9.16005244,13.2198021 C9.84854927,13.4211007 10.0551548,14.1590878 9.64194371,14.8298997 Z" id="Fill-4"></path>
                                    </g>
                                </g>
                            </g>
                        </g>
                    </g>
                </g>
            </g>
        </g>
    </g>
</svg>