<?xml version="1.0" encoding="UTF-8"?>
<svg height="20px" version="1.1" viewBox="0 0 24 20" width="24px" xmlns="http://www.w3.org/2000/svg"
>
  <!-- Generator: Sketch 49.2 (51160) - http://www.bohemiancoding.com/sketch -->
  <title>微信</title>
  <desc>Created with Sketch.</desc>
  <defs></defs>
  <g fill="none" fill-rule="evenodd" id="首页" stroke="none" stroke-width="1">
    <g fill="#FFFFFF" id="首页_完整" transform="translate(-196.000000, -4011.000000)">
      <g id="icon/微信" transform="translate(196.000000, 4009.000000)">
        <g id="微信">
          <g id="Group-9" transform="translate(0.000000, 2.000000)">
            <path
              d="M23.2380952,12.6580031 C23.2380952,9.46965703 19.926475,6.8733818 16.2009752,6.8733818 C12.2539168,6.8733818 9.15440115,9.46965703 9.15440115,12.6580031 C9.15440115,15.8543543 12.2539168,18.441529 16.2009752,18.441529 C17.0266627,18.441529 17.8618042,18.2387885 18.6869372,18.0451204 L20.9617867,19.245469 L20.3393042,17.2503091 C21.9991118,16.0495391 23.2380952,14.4512652 23.2380952,12.6580031 Z M13.9151835,11.6598895 C13.5033756,11.6598895 13.0905465,11.2630315 13.0905465,10.8646568 C13.0905465,10.4686695 13.5033756,10.0708285 13.9151835,10.0708285 C14.5397086,10.0708285 14.9530046,10.4686695 14.9530046,10.8646568 C14.9530046,11.2630315 14.5397086,11.6598895 13.9151835,11.6598895 Z M18.4762916,11.6598895 C18.0640169,11.6598895 17.6520924,11.2630315 17.6520924,10.8646568 C17.6520924,10.4686695 18.0640169,10.0708285 18.4762916,10.0708285 C19.0997663,10.0708285 19.513179,10.4686695 19.513179,10.8646568 C19.513179,11.2630315 19.0898454,11.6598895 18.4762916,11.6598895 Z"
              id="Fill-1"></path>
            <path
              d="M15.4199115,6.02657057 C15.6784865,6.02657057 15.9380625,6.04578694 16.1962482,6.07437278 C15.500598,2.58597464 12.028047,0 8.06253528,0 C3.63381284,0 0,3.23837644 0,7.35825918 C0,9.73488278 1.2057658,11.6888954 3.22340149,13.2034379 L2.42001175,15.8087781 L5.24100938,14.2860597 C6.24986893,14.4964551 7.06226709,14.7174434 8.06253528,14.7174434 C8.31212966,14.7174434 8.56311424,14.7077755 8.81323689,14.6802639 C8.65239212,14.1043397 8.56311424,13.4926384 8.56311424,12.8688224 C8.56269718,9.09277547 11.5901377,6.02657057 15.4199115,6.02657057 Z M11.0800221,3.6788312 C11.6869226,3.6788312 12.0883256,4.11021488 12.0883256,4.7620199 C12.0883256,5.4128999 11.6863666,5.84416423 11.0800221,5.84416423 C10.4725655,5.84416423 9.86622101,5.4128999 9.86622101,4.7620199 C9.87522943,4.10964794 10.4811568,3.6788312 11.0800221,3.6788312 Z M5.43747077,5.84320938 C4.83015317,5.84320938 4.22366968,5.41242248 4.22366968,4.76097553 C4.22366968,4.10917051 4.83057023,3.67838361 5.43747077,3.67838361 C6.04537225,3.67838361 6.44733126,4.10964794 6.44733126,4.76097553 C6.44677518,5.4032022 6.04537225,5.84320938 5.43747077,5.84320938 Z"
              id="Fill-3"></path>
          </g>
        </g>
      </g>
    </g>
  </g>
</svg>