<?xml version="1.0" encoding="UTF-8"?>
<svg xmlns:xlink="http://www.w3.org/1999/xlink" height="18px" version="1.1" viewBox="0 0 18 18" width="18px"
  xmlns="http://www.w3.org/2000/svg">
  <!-- Generator: Sketch 52.2 (67145) - http://www.bohemiancoding.com/sketch -->
  <title>账号绑定</title>
  <desc>Created with Sketch.</desc>
  <defs>
    <polygon id="path-1" points="0 0 11.9998 0 11.9998 12 0 12"></polygon>
  </defs>
  <g fill="none" fill-rule="evenodd" id="Page-1" stroke="none" stroke-width="1">
    <g id="个人中心" transform="translate(-149.000000, -579.000000)">
      <g id="账号绑定" transform="translate(146.000000, 576.000000)">
        <polygon fill="#000000" id="Fill-1"
          points="9.4998 6.9996 9.0008 6.9996 9.4998 6.9996 9.9998 6.9996"></polygon>
        <g id="Group-7" transform="translate(3.000000, 3.000000)">
          <path
            d="M16.7998,0 L7.1998,0 C6.5398,0 5.9998,0.54 5.9998,1.2 L5.9998,3.5 C5.9998,3.776 6.2238,4 6.4998,4 C6.7768,4 6.9998,3.776 6.9998,3.5 L6.9998,1.2 C6.9998,1.092 7.0918,1 7.1998,1 L16.7998,1 C16.9078,1 16.9998,1.092 16.9998,1.2 L16.9998,10.8 C16.9998,10.908 16.9078,11 16.7998,11 L7.1998,11 C7.0918,11 6.9998,10.908 6.9998,10.8 L6.9998,9.6 L6.9998,9.5 L6.9998,9 L6.9998,8.5 C6.9998,8.225 6.7748,8 6.4998,8 C6.2248,8 5.9998,8.225 5.9998,8.5 L5.9998,9 L5.9998,9.5 L5.9998,9.6 L5.9998,10.8 C5.9998,11.46 6.5398,12 7.1998,12 L16.7998,12 C17.4598,12 17.9998,11.46 17.9998,10.8 L17.9998,1.2 C17.9998,0.54 17.4598,0 16.7998,0"
            fill="#000000" id="Fill-2"></path>
          <g id="Group-6" transform="translate(0.000000, 6.000000)">
            <mask fill="white" id="mask-2">
              <use xlink:href="#path-1"></use>
            </mask>
            <g id="Clip-5"></g>
            <path
              d="M10.7998,0 L1.1998,0 C0.5398,0 -0.0002,0.54 -0.0002,1.2 L-0.0002,10.8 C-0.0002,11.46 0.5398,12 1.1998,12 L10.7998,12 C11.4598,12 11.9998,11.46 11.9998,10.8 L11.9998,9.5 L11.9998,9 L11.9998,8.5 C11.9998,8.225 11.7748,8 11.4998,8 C11.2248,8 10.9998,8.225 10.9998,8.5 L10.9998,9 L10.9998,9.5 L10.9998,10.8 C10.9998,10.908 10.9078,11 10.7998,11 L1.1998,11 C1.0918,11 0.9998,10.908 0.9998,10.8 L0.9998,1.2 C0.9998,1.092 1.0918,1 1.1998,1 L10.7998,1 C10.9078,1 10.9998,1.092 10.9998,1.2 L10.9998,2.4 L10.9998,2.5 L10.9998,3 L10.9998,3.5 C10.9998,3.775 11.2248,4 11.4998,4 C11.7748,4 11.9998,3.775 11.9998,3.5 L11.9998,3 L11.9998,2.5 L11.9998,2.4 L11.9998,1.2 C11.9998,0.54 11.4598,0 10.7998,0"
              fill="#000000" id="Fill-4" mask="url(#mask-2)"></path>
          </g>
        </g>
      </g>
    </g>
  </g>
</svg>